<?xml version="1.0" standalone="no"?>
<!DOCTYPE svg PUBLIC "-//W3C//DTD SVG 20010904//EN"
 "http://www.w3.org/TR/2001/REC-SVG-20010904/DTD/svg10.dtd">
<svg version="1.0" xmlns="http://www.w3.org/2000/svg"
 width="900.000000pt" height="520.000000pt" viewBox="0 0 900.000000 520.000000"
 preserveAspectRatio="xMidYMid meet">

<g transform="translate(0.000000,520.000000) scale(0.100000,-0.100000)"
fill="#000000" stroke="none">
<path d="M4290 5194 c-375 -43 -632 -115 -926 -259 -141 -70 -351 -205 -479
-308 -376 -305 -658 -716 -814 -1184 -92 -277 -126 -493 -126 -803 1 -311 34
-525 125 -800 274 -831 953 -1466 1795 -1680 244 -62 354 -75 635 -74 281 0
394 13 635 74 442 112 851 345 1174 670 403 404 650 908 733 1495 17 119 17
514 0 630 -86 596 -336 1102 -742 1504 -392 387 -879 631 -1430 716 -100 16
-497 29 -580 19z m465 -225 c365 -38 726 -169 1042 -378 116 -78 300 -228 378
-311 l40 -42 -107 -102 c-704 -674 -1776 -833 -2652 -395 -220 110 -397 234
-567 398 l-104 99 40 42 c78 83 262 234 378 311 463 307 994 436 1552 378z
m-2010 -988 c240 -229 565 -431 876 -545 432 -158 926 -197 1374 -107 477 96
915 323 1261 654 74 70 97 87 108 78 23 -19 142 -202 193 -296 194 -361 286
-722 285 -1120 0 -93 -5 -216 -12 -273 -35 -318 -155 -667 -324 -945 -57 -94
-133 -204 -147 -213 -5 -3 -52 35 -103 84 -242 231 -560 429 -877 546 -271
100 -588 156 -879 156 -646 0 -1284 -254 -1748 -695 -84 -80 -105 -95 -117
-85 -19 16 -132 187 -182 276 -125 221 -222 499 -267 759 -18 103 -34 362 -29
480 7 212 55 465 128 675 44 128 153 355 225 470 60 96 128 190 137 190 3 0
47 -40 98 -89z m2060 -2217 c502 -62 1009 -312 1355 -669 l55 -57 -82 -78
c-330 -314 -708 -516 -1148 -614 -283 -62 -687 -62 -970 0 -296 66 -564 179
-812 343 -116 77 -299 228 -378 310 l-40 43 95 91 c175 168 352 293 567 401
287 145 585 226 913 249 88 6 327 -4 445 -19z"/>
</g>
</svg>
