<?xml version="1.0" standalone="no"?>
<!DOCTYPE svg PUBLIC "-//W3C//DTD SVG 20010904//EN"
 "http://www.w3.org/TR/2001/REC-SVG-20010904/DTD/svg10.dtd">
<svg version="1.0" xmlns="http://www.w3.org/2000/svg"
 width="300.000000pt" height="259.000000pt" viewBox="0 0 300.000000 259.000000"
 preserveAspectRatio="xMidYMid meet">
<metadata>
Created by potrace 1.10, written by Peter Selinger 2001-2011
</metadata>
<g transform="translate(0.000000,259.000000) scale(0.100000,-0.100000)"
fill="#000000" stroke="none">
<path d="M835 2494 c-35 -9 -196 -64 -206 -70 -6 -3 -5 -12 2 -20 8 -10 14
-11 19 -4 4 6 20 13 36 16 16 3 61 16 99 29 58 20 85 24 155 21 47 -2 96 -7
110 -11 14 -4 32 -8 40 -9 29 -5 85 -34 107 -55 12 -11 34 -21 48 -21 14 0 25
-3 25 -7 0 -5 12 -9 28 -10 15 -1 43 -5 62 -8 33 -7 34 -6 18 10 -14 15 -69
34 -142 50 -11 3 -29 13 -40 23 -36 33 -153 64 -251 68 -49 1 -99 1 -110 -2z"/>
<path d="M595 2401 c-3 -7 -24 -23 -46 -37 -23 -14 -37 -29 -33 -36 4 -6 3 -9
-2 -5 -11 7 -38 -13 -42 -31 -4 -19 34 -6 76 26 25 19 30 27 20 34 -9 6 -2 8
20 5 24 -3 32 0 32 12 0 25 -16 45 -25 32z"/>
<path d="M1390 2310 c-13 -8 -13 -11 2 -27 20 -19 37 -11 20 10 -7 8 -9 17 -5
20 9 10 0 8 -17 -3z"/>
<path d="M1440 2220 c46 -39 63 -39 20 0 -18 17 -38 30 -44 30 -6 0 5 -14 24
-30z"/>
<path d="M660 2182 c-13 -20 -28 -43 -33 -49 -6 -9 -5 -13 4 -13 8 0 26 23 41
50 33 58 24 67 -12 12z"/>
<path d="M1465 2170 c-3 -4 9 -13 27 -19 38 -13 58 -14 58 -2 0 12 -79 31 -85
21z"/>
<path d="M792 2108 c2 -7 -8 -14 -22 -16 -31 -4 -70 -23 -70 -34 0 -4 9 -17
20 -28 22 -22 84 -28 96 -8 15 23 9 80 -9 89 -12 7 -17 6 -15 -3z"/>
<path d="M1217 2104 c-4 -4 -3 -12 2 -18 5 -6 11 -28 14 -49 4 -34 3 -38 -14
-34 -23 6 -23 6 -5 -27 7 -14 12 -34 12 -44 -5 -48 -20 -94 -32 -99 -7 -2 -10
-11 -7 -19 3 -8 -1 -22 -9 -32 -27 -34 -21 -65 22 -107 22 -21 40 -36 40 -32
0 4 10 2 23 -4 l22 -11 -22 21 c-12 12 -29 43 -37 70 -12 42 -12 57 1 117 28
133 33 238 12 259 -8 9 -18 12 -22 9z"/>
<path d="M619 2023 c-2 -70 0 -115 6 -171 2 -18 0 -46 -5 -62 -6 -21 -5 -30 3
-30 6 0 4 -6 -5 -12 -31 -26 -37 -49 -16 -70 20 -20 20 -20 44 3 22 21 33 59
17 59 -4 0 -20 -12 -36 -27 -24 -23 -27 -24 -16 -6 7 12 23 27 36 34 17 9 20
16 12 25 -7 8 -7 14 1 19 6 4 7 13 1 23 -23 43 -33 135 -22 192 11 56 7 90
-10 90 -5 0 -10 -30 -10 -67z"/>
<path d="M1534 2075 c14 -10 15 -15 6 -15 -9 0 -6 -6 8 -16 12 -8 22 -22 22
-30 0 -8 5 -14 11 -14 5 0 7 -5 4 -11 -4 -6 -14 -8 -24 -5 -13 5 -13 3 2 -8
12 -9 14 -16 8 -21 -14 -8 -14 -45 0 -45 16 0 41 70 34 97 -9 39 -47 83 -69
83 -21 -1 -21 -1 -2 -15z"/>
<path d="M1048 2073 c11 -4 10 -8 -2 -22 -9 -10 -13 -26 -10 -38 8 -28 71 -41
106 -22 13 7 28 12 33 10 6 -1 0 7 -12 19 -21 19 -106 61 -121 59 -4 0 -1 -3
6 -6z"/>
<path d="M351 2007 c-15 -18 -20 -59 -10 -77 5 -8 18 -35 29 -60 19 -41 31
-63 53 -98 7 -10 12 -10 23 -1 13 10 11 17 -14 43 -32 33 -57 98 -48 121 3 9
-1 15 -10 15 -12 0 -14 8 -10 35 6 38 4 42 -13 22z"/>
<path d="M519 1964 c-7 -45 -2 -94 9 -94 10 0 12 11 6 48 -6 46 -13 64 -15 46z"/>
<path d="M1522 1895 c3 -13 0 -26 -6 -28 -8 -3 -7 -8 1 -17 10 -11 16 -9 32
11 26 31 26 32 -5 46 -25 11 -26 11 -22 -12z"/>
<path d="M712 1860 c-26 -41 -28 -48 -12 -40 11 6 20 18 20 26 0 9 5 12 12 8
7 -4 8 -3 4 5 -4 6 -2 19 5 27 6 8 10 17 7 19 -3 3 -19 -17 -36 -45z"/>
<path d="M1322 1860 c0 -19 3 -44 8 -55 7 -17 9 -15 8 10 0 17 -4 41 -8 55 -7
23 -8 22 -8 -10z"/>
<path d="M853 1856 c-37 -17 -48 -49 -30 -85 11 -22 12 -31 4 -31 -7 0 -6 -4
3 -10 13 -8 12 -10 -3 -10 -10 0 -15 -4 -12 -10 4 -6 -6 -10 -22 -11 -26 -1
-26 -2 7 -9 37 -9 65 4 56 25 -2 7 1 18 7 24 9 9 9 14 -1 20 -9 5 -6 10 11 18
19 9 28 7 48 -8 20 -15 21 -19 7 -19 -22 0 -23 -16 -2 -24 13 -5 14 -9 4 -22
-20 -23 1 -38 34 -23 22 11 24 14 11 21 -8 5 -13 14 -9 19 3 5 2 9 -3 8 -19
-3 -23 2 -11 15 7 8 17 11 22 8 5 -3 7 2 3 11 -3 10 -2 17 3 17 17 0 11 28
-13 55 -25 29 -77 39 -114 21z m81 -16 c14 -5 26 -14 26 -20 0 -6 -5 -8 -11
-4 -6 3 -14 1 -18 -5 -10 -15 -71 6 -71 25 0 16 37 18 74 4z"/>
<path d="M1480 1810 c-6 -15 -27 -43 -45 -61 -40 -40 -43 -50 -13 -46 33 3 33
-25 1 -45 l-28 -18 48 7 c45 5 63 -6 36 -22 -6 -5 -4 -11 6 -19 9 -7 18 -24
18 -39 1 -18 7 -26 17 -24 10 1 14 -5 12 -20 -4 -26 11 -37 38 -28 22 7 27 25
7 25 -15 0 -42 43 -51 85 -4 17 -18 44 -30 60 -40 52 -40 67 -1 118 20 26 35
47 33 48 -29 7 -38 4 -48 -21z"/>
<path d="M470 1714 c0 -16 53 -93 61 -88 12 7 12 7 -16 40 -14 16 -25 35 -25
42 0 6 -4 12 -10 12 -5 0 -10 -3 -10 -6z"/>
<path d="M1151 1691 c-9 -6 -10 -11 -2 -15 15 -10 14 -29 -1 -20 -7 4 -4 -3 7
-16 11 -13 14 -20 8 -16 -7 4 -13 3 -13 -2 0 -6 11 -9 25 -8 19 1 24 6 23 23
-1 12 -5 20 -9 17 -7 -4 -23 26 -21 39 2 9 0 9 -17 -2z"/>
<path d="M694 1671 c15 -16 15 -19 1 -24 -8 -4 -15 -2 -15 3 0 6 -5 10 -12 10
-6 0 -8 -3 -5 -7 4 -3 2 -12 -4 -19 -7 -8 -7 -14 1 -19 5 -3 10 -11 10 -17 0
-6 -10 -3 -22 8 l-22 19 18 -29 c16 -25 17 -36 7 -80 -18 -83 4 -145 51 -146
10 0 33 -8 53 -17 31 -15 35 -20 31 -50 -2 -18 1 -33 5 -33 5 0 9 5 9 10 0 6
11 10 25 10 18 0 26 7 31 25 3 14 10 25 15 25 5 0 33 22 63 49 92 83 106 84
102 8 -1 -32 1 -35 13 -22 11 11 12 17 3 28 -7 8 -10 16 -7 19 3 2 1 19 -5 36
-5 18 -5 30 0 27 5 -3 14 3 19 14 15 26 14 31 -4 25 -8 -4 -15 -1 -15 5 0 6 5
11 11 11 5 0 7 5 4 10 -5 8 -11 7 -21 -1 -7 -6 -12 -15 -9 -19 3 -4 -11 -15
-30 -24 -19 -10 -42 -27 -50 -40 -10 -15 -29 -26 -53 -29 -20 -3 -50 -9 -66
-12 -60 -12 -66 -10 -66 30 0 38 -15 47 -25 15 -3 -11 -11 -20 -16 -20 -5 0
-9 -7 -9 -16 0 -9 -7 -14 -17 -12 -14 3 -18 13 -17 40 1 20 5 44 9 55 4 10 7
26 6 37 -2 10 2 15 7 12 12 -7 10 13 -1 32 -5 6 -4 12 2 12 6 0 8 6 5 14 -7
18 13 31 29 19 10 -8 28 -9 67 -4 6 0 10 11 10 24 0 18 -2 19 -10 7 -5 -8 -10
-12 -10 -8 0 4 -10 4 -22 -1 -24 -9 -68 5 -68 21 0 4 -5 8 -12 8 -6 0 -4 -8 6
-19z m304 -203 c2 -9 -5 -18 -14 -22 -22 -9 -27 -2 -19 24 7 23 28 22 33 -2z
m-78 -65 c0 -11 -22 -43 -29 -43 -13 0 -20 49 -7 53 12 4 36 -2 36 -10z m-93
-21 c-27 -29 -20 -49 16 -43 10 2 9 -27 -3 -34 -13 -8 -50 31 -50 53 0 22 19
42 39 42 12 0 11 -3 -2 -18z"/>
<path d="M877 1674 c-2 -2 -14 -5 -27 -7 -13 -2 -26 -10 -28 -16 -3 -9 2 -11
17 -6 17 5 20 3 14 -12 -6 -17 -6 -17 9 -2 18 18 53 16 103 -6 59 -25 75 -28
75 -10 0 9 -4 14 -9 11 -4 -3 -16 3 -26 14 -18 20 -41 28 -31 11 4 -5 -16 -1
-43 9 -28 10 -51 16 -54 14z"/>
<path d="M1097 1644 c-6 -6 12 -45 26 -55 5 -3 1 -9 -9 -13 -9 -3 -19 -4 -22
-1 -3 3 0 5 8 5 10 0 10 3 0 15 -23 28 -31 7 -21 -57 2 -16 46 -2 53 17 12 40
8 64 -12 70 -11 4 -18 11 -15 16 7 10 2 12 -8 3z"/>
<path d="M551 1627 c-6 -8 -8 -16 -5 -19 3 -3 6 -19 7 -34 2 -22 7 -29 22 -29
21 1 21 2 10 48 -5 17 -3 27 4 27 6 0 11 5 11 10 0 15 -36 12 -49 -3z"/>
<path d="M757 1603 c-13 -12 -7 -18 19 -20 15 0 30 -7 35 -15 7 -10 9 -10 9 3
0 9 -11 21 -25 27 -30 14 -30 14 -38 5z"/>
<path d="M978 1579 c-9 -5 -15 -16 -12 -23 4 -11 12 -12 35 -4 24 8 27 13 18
24 -13 16 -18 17 -41 3z"/>
<path d="M830 1562 c0 -7 8 -12 18 -10 9 1 23 -1 31 -6 8 -5 16 -4 21 4 5 8 9
4 13 -11 4 -13 9 -20 12 -17 8 7 -12 48 -23 47 -4 -1 -9 0 -12 1 -22 8 -60 4
-60 -8z"/>
<path d="M545 1510 c3 -5 -1 -10 -9 -10 -9 0 -16 -4 -16 -10 0 -17 36 -11 61
10 l24 19 -33 1 c-20 0 -31 -4 -27 -10z"/>
<path d="M1582 1477 c-9 -10 0 -25 36 -63 26 -27 53 -61 61 -77 8 -15 42 -55
75 -89 34 -34 60 -65 59 -70 -2 -4 5 -8 16 -8 11 0 23 -12 31 -30 7 -16 16
-30 21 -30 5 0 14 -11 21 -25 6 -13 15 -22 20 -19 4 3 10 -1 13 -8 4 -9 19
-12 47 -9 38 3 41 2 29 -12 -11 -14 -8 -18 28 -33 37 -15 45 -25 44 -60 0 -7
10 -17 22 -24 13 -7 26 -20 29 -29 3 -9 9 -22 12 -28 3 -8 -1 -13 -12 -13 -16
0 -16 -1 2 -19 17 -16 20 -16 25 -2 7 19 4 29 -30 101 -35 73 -100 136 -151
144 -29 5 -43 13 -54 34 -16 29 -130 152 -141 152 -12 0 -75 74 -75 88 0 14
-8 26 -62 85 -21 23 -38 45 -38 49 0 12 -16 9 -28 -5z"/>
<path d="M488 1367 c-29 -59 -30 -67 -3 -67 14 0 25 5 25 10 0 6 -4 10 -10 10
-5 0 -10 5 -10 11 0 20 33 38 70 39 40 1 26 13 -26 23 -26 5 -32 2 -46 -26z"/>
<path d="M440 1223 c-6 -15 -13 -34 -15 -40 -10 -30 22 -10 33 20 16 41 16 41
3 45 -6 2 -16 -9 -21 -25z"/>
<path d="M805 1220 c4 -6 -3 -19 -16 -28 -18 -16 -20 -22 -10 -40 14 -26 43
-29 61 -7 11 13 9 22 -6 50 -10 19 -22 35 -27 35 -4 0 -5 -5 -2 -10z"/>
<path d="M430 1141 c0 -13 7 -21 18 -21 14 0 15 -2 2 -10 -13 -8 -13 -10 2
-10 12 0 16 7 14 28 -4 33 -36 45 -36 13z"/>
<path d="M973 1090 c-24 -11 -43 -21 -43 -24 0 -9 64 16 80 30 18 18 15 17
-37 -6z"/>
<path d="M455 1029 c-4 -6 -13 -8 -21 -5 -8 3 -14 1 -14 -4 0 -6 5 -10 11 -10
8 0 8 -4 2 -12 -6 -7 -10 -20 -10 -30 0 -22 27 -11 28 13 3 36 4 40 19 49 9 6
10 10 3 10 -6 0 -15 -5 -18 -11z"/>
<path d="M405 930 c-3 -5 -2 -10 2 -10 15 0 8 -80 -7 -90 -13 -9 -13 -10 0
-10 21 1 72 48 65 60 -3 6 -15 10 -26 10 -26 0 -21 33 6 42 17 5 16 6 -7 7
-15 1 -30 -3 -33 -9z"/>
<path d="M412 811 c-11 -7 -11 -11 1 -22 7 -8 13 -24 12 -35 -2 -24 14 -26 39
-5 22 18 20 31 -3 31 -14 0 -19 6 -16 20 4 21 -10 26 -33 11z"/>
<path d="M2460 800 c-19 -10 -39 -14 -45 -10 -5 5 -28 2 -50 -6 -22 -7 -48
-11 -58 -8 -10 3 -20 -1 -23 -11 -6 -16 -54 -45 -74 -45 -5 0 -10 6 -10 14 0
8 -9 24 -19 37 -15 18 -22 21 -31 13 -8 -8 -9 -14 -1 -18 6 -4 11 -16 11 -27
0 -11 6 -27 14 -35 8 -7 12 -23 9 -34 -3 -11 -4 -20 -1 -20 2 0 30 20 63 45
64 48 137 78 174 72 23 -3 161 -121 161 -136 0 -4 -7 -8 -15 -8 -8 0 -12 3
-10 7 5 9 -23 32 -58 48 -43 19 -46 14 -7 -9 47 -29 46 -27 22 -49 -27 -26
-49 -25 -71 1 -17 21 -17 21 -16 -6 1 -15 8 -31 16 -36 8 -5 10 -9 4 -9 -5 0
-3 -5 5 -10 12 -7 12 -12 3 -21 -13 -13 -13 -12 -27 35 -4 11 -13 12 -40 6
-24 -5 -37 -4 -40 4 -2 6 -5 -3 -5 -21 -1 -26 2 -30 19 -26 24 6 26 -9 5 -27
-12 -10 -13 -16 -4 -27 18 -21 48 10 41 42 -2 15 0 25 7 25 6 0 11 -6 11 -14
0 -8 7 -17 16 -20 8 -3 13 -10 9 -15 -3 -5 0 -13 6 -16 16 -11 23 3 10 19 -7
8 -10 20 -6 26 10 16 25 2 25 -24 0 -12 4 -26 10 -32 5 -5 11 -22 12 -36 1
-15 5 -26 8 -26 18 2 23 -4 10 -12 -13 -8 -12 -10 3 -10 9 0 17 -5 17 -12 0
-6 2 -9 5 -6 5 5 0 21 -36 103 -7 17 -13 35 -14 40 0 6 -8 19 -17 29 -10 11
-18 23 -18 28 0 13 18 9 23 -4 2 -7 14 4 27 24 24 41 44 42 34 2 -4 -15 -2
-24 5 -24 7 0 11 7 9 16 -2 10 3 19 10 21 6 3 12 -2 12 -11 0 -8 6 -19 13 -23
15 -9 47 -54 47 -66 0 -4 -5 -5 -12 -1 -7 4 -8 3 -4 -5 4 -6 11 -9 15 -7 4 3
8 0 8 -7 0 -7 17 -38 38 -70 36 -54 55 -70 55 -46 0 5 -4 8 -9 5 -5 -3 -12 1
-15 9 -4 10 3 20 19 27 29 13 31 21 8 39 -15 12 -16 12 -10 -5 6 -14 4 -17 -9
-12 -12 4 -15 2 -10 -9 3 -8 2 -15 -2 -15 -14 0 -51 88 -47 110 2 13 -4 31
-16 43 -19 21 -20 21 -14 2 5 -14 2 -13 -9 5 -25 41 -20 57 10 29 22 -21 24
-21 18 -4 -6 18 -5 18 15 -2 11 -12 20 -27 19 -34 -2 -6 6 -15 17 -19 19 -7
21 -4 19 22 -1 16 -10 38 -21 50 -10 11 -17 22 -15 24 5 8 -48 104 -58 104 -5
0 2 -23 15 -52 13 -28 22 -55 20 -58 -3 -4 -16 -5 -30 -2 -17 3 -25 11 -26 26
0 19 -1 19 -8 3 -6 -16 -16 -10 -74 43 -70 64 -79 80 -49 80 19 0 42 18 42 32
0 12 -21 8 -60 -12z"/>
<path d="M2528 780 c-20 -22 -25 -41 -6 -22 15 15 138 16 175 0 l28 -11 -30
-6 c-41 -9 -23 -18 72 -37 43 -9 90 -22 104 -30 24 -12 29 -11 53 11 15 14 31
25 37 25 5 0 9 5 9 10 0 15 -7 12 -42 -12 l-30 -23 -15 22 c-13 19 -18 20 -35
10 -16 -10 -22 -9 -33 7 -9 12 -22 17 -39 14 -18 -4 -26 0 -29 14 -3 10 -14
18 -25 18 -11 0 -24 6 -30 13 -7 8 -38 13 -79 14 -56 2 -71 -1 -85 -17z"/>
<path d="M755 760 c-3 -5 -2 -10 3 -10 5 0 14 -12 21 -27 11 -25 14 -26 23
-10 6 12 6 22 -1 31 -6 7 -8 16 -4 19 3 4 -3 7 -15 7 -11 0 -24 -4 -27 -10z"/>
<path d="M382 722 c-10 -7 -8 -13 7 -26 16 -15 18 -23 10 -44 -12 -31 4 -53
23 -34 10 10 10 17 0 32 -10 17 -9 18 6 14 15 -5 15 -4 2 8 -17 15 -26 43 -10
33 5 -3 18 -1 27 4 14 8 15 10 3 11 -8 0 -24 3 -35 5 -11 3 -26 1 -33 -3z"/>
<path d="M1180 709 c-11 -6 -12 -11 -4 -16 6 -5 11 -15 12 -23 1 -19 9 -102
17 -162 6 -54 0 -62 -16 -20 -7 16 -13 22 -16 14 -3 -7 0 -25 6 -40 5 -15 8
-58 5 -97 -2 -38 -4 -82 -5 -98 0 -25 -2 -26 -22 -16 -16 8 -13 1 13 -26 19
-21 28 -34 20 -30 -9 5 -7 0 5 -14 26 -30 30 -14 11 50 -9 29 -16 61 -16 72 0
35 28 0 36 -46 4 -23 9 -45 10 -49 1 -5 2 -13 3 -19 0 -5 6 -7 12 -3 8 4 9 -1
4 -15 -9 -29 65 -104 98 -99 19 4 18 6 -13 20 -59 28 -104 78 -70 78 6 0 10 6
9 13 -1 6 1 25 6 40 5 21 3 33 -8 44 -12 13 -15 13 -14 2 2 -8 6 -19 10 -26 9
-14 -1 -43 -15 -43 -5 0 -7 4 -3 9 3 5 1 12 -5 16 -5 3 -10 24 -10 46 0 21 -5
39 -11 39 -7 0 -10 21 -7 60 1 33 0 60 -4 60 -4 0 -2 15 3 33 11 38 1 159 -13
151 -5 -3 -4 4 4 16 9 16 10 24 2 27 -6 2 -9 14 -7 27 6 28 -7 39 -27 25z"/>
<path d="M220 693 c-1 -5 -2 -30 -4 -58 -4 -53 6 -38 18 28 4 23 3 37 -4 37
-5 0 -10 -3 -10 -7z"/>
<path d="M758 694 c-7 -6 33 -73 45 -74 15 0 6 47 -11 63 -20 18 -26 20 -34
11z"/>
<path d="M700 666 c0 -13 31 -67 50 -86 10 -10 21 -32 25 -49 4 -19 11 -29 18
-25 7 4 -1 -7 -18 -24 -33 -33 -45 -32 -45 1 0 16 -6 23 -19 23 -11 0 -17 -5
-13 -11 4 -5 7 -12 8 -15 0 -3 4 -13 9 -23 12 -28 2 -28 -46 -3 -24 13 -55 26
-69 30 -22 6 -21 5 5 -10 17 -9 41 -23 55 -32 35 -22 51 -23 78 -6 22 14 25
14 43 -2 10 -9 19 -23 19 -31 0 -7 4 -13 9 -13 16 0 0 40 -20 51 -29 15 -23
30 7 18 23 -8 25 -7 15 5 -9 11 -8 15 4 19 8 4 14 3 13 -1 -1 -4 4 -20 10 -35
7 -16 12 -40 13 -55 0 -22 2 -23 8 -9 6 16 9 16 18 5 6 -7 13 -22 16 -33 4
-18 5 -17 6 3 0 13 6 20 11 17 15 -9 12 32 -5 65 -21 41 -27 38 -9 -5 8 -19
10 -35 6 -35 -17 0 -53 48 -56 74 -1 14 -11 33 -22 42 -17 14 -17 15 -1 10 15
-5 14 -1 -5 24 -12 17 -23 30 -23 30 -1 0 0 -12 3 -27 3 -21 -8 -10 -43 42
-54 80 -55 81 -55 71z"/>
<path d="M837 663 c-10 -9 -8 -56 3 -73 6 -9 5 -17 -3 -22 -9 -5 -7 -12 6 -25
16 -16 17 -16 17 0 0 10 5 15 10 12 6 -3 10 -1 10 4 0 6 -4 11 -10 11 -5 0
-10 17 -10 38 0 39 -12 67 -23 55z"/>
<path d="M1833 619 c-3 -40 -6 -43 -35 -29 l-23 11 23 -20 c13 -11 25 -30 27
-42 4 -18 1 -20 -20 -16 -29 5 -28 6 -15 -27 8 -21 14 -24 41 -21 29 4 31 2
25 -23 l-6 -27 20 24 c24 27 26 51 5 51 -8 0 -18 16 -24 38 -11 42 -11 82 1
82 4 0 8 7 8 15 0 29 -25 14 -27 -16z"/>
<path d="M2943 643 c-7 -3 -13 -17 -14 -31 l-1 -27 -11 25 c-10 22 -18 25 -57
23 -25 -1 -46 -2 -48 -2 -2 -1 4 -11 12 -23 24 -33 19 -45 -5 -14 -23 30 -39
34 -39 9 0 -15 -1 -15 -12 -1 -15 18 -58 31 -58 17 0 -5 12 -14 26 -19 19 -8
25 -16 21 -30 -3 -11 1 -21 10 -24 23 -9 26 -7 20 14 -8 30 14 36 35 10 10
-12 18 -17 18 -11 0 7 5 9 11 5 8 -5 8 -1 0 14 -13 25 -14 35 -2 28 5 -3 14 1
21 9 10 13 14 12 30 -7 9 -12 25 -23 34 -24 14 -2 17 3 12 21 -4 17 -1 24 11
27 10 2 14 6 8 9 -5 4 -16 4 -22 2z"/>
<path d="M2976 620 c-10 -18 -15 -39 -11 -50 4 -11 2 -20 -4 -20 -17 0 -13
-26 9 -67 11 -21 20 -31 20 -23 0 9 -7 26 -16 38 -14 21 -14 22 8 23 13 0 17
3 11 6 -16 6 -17 85 -1 101 6 6 9 14 7 17 -3 2 -13 -9 -23 -25z"/>
<path d="M2296 572 c6 -51 4 -60 -12 -66 -11 -4 -20 -3 -22 3 -2 6 -8 11 -14
11 -6 0 -6 -6 2 -15 7 -8 10 -22 6 -30 -3 -9 0 -15 9 -15 8 0 15 -4 15 -10 0
-6 -3 -9 -7 -9 -27 4 -35 -1 -23 -16 15 -18 34 -20 24 -3 -5 8 -2 9 10 5 10
-4 22 -7 27 -7 6 0 7 -5 4 -10 -4 -6 -10 -8 -15 -5 -13 8 -22 -27 -10 -39 8
-8 9 -6 4 7 -5 13 -2 16 9 11 20 -7 30 -35 18 -47 -7 -7 -22 3 -45 28 -29 32
-37 35 -42 22 -3 -10 -16 -17 -28 -17 -44 0 -47 -15 -11 -50 28 -28 34 -40 30
-61 -4 -17 -1 -30 10 -39 13 -11 14 -10 9 4 -4 11 -2 15 7 13 8 -2 11 -2 7 0
-11 6 -10 33 1 33 5 0 11 -7 15 -15 3 -8 12 -12 21 -9 8 4 22 1 30 -6 12 -10
12 -8 2 13 -9 19 -17 24 -37 21 -17 -3 -21 -2 -12 4 11 7 8 14 -14 31 -14 11
-23 21 -19 21 4 0 3 6 -3 13 -5 7 -6 21 -1 32 5 14 8 16 9 5 2 -8 2 -18 1 -22
0 -5 4 -8 11 -8 6 0 9 -3 5 -6 -3 -4 1 -13 9 -22 12 -12 18 -12 24 -3 5 9 14
3 30 -21 44 -63 62 -79 77 -67 10 9 13 8 13 0 0 -7 5 -9 10 -6 14 9 -7 35 -26
35 -20 0 -17 18 5 30 17 9 22 5 37 -25 16 -34 39 -51 28 -20 -9 21 9 19 29 -5
19 -22 41 -27 35 -7 -3 6 -9 12 -14 12 -17 0 -34 16 -28 26 3 6 3 22 -1 37 -5
20 -8 23 -15 12 -6 -9 -5 -19 0 -24 13 -13 13 -29 0 -21 -5 3 -10 1 -10 -5 0
-6 -5 -8 -11 -4 -8 5 -8 9 1 14 7 5 3 12 -14 24 -14 9 -25 20 -25 24 3 18 -3
46 -8 35 -2 -7 -14 -13 -26 -13 -18 0 -19 2 -7 10 12 7 10 9 -7 8 -28 -3 -20
-20 19 -43 18 -10 27 -20 20 -23 -7 -2 -20 2 -29 9 -27 23 -63 87 -57 103 4 9
-1 18 -10 22 -21 8 -20 38 1 70 13 21 14 30 5 45 -7 10 -12 30 -12 43 0 14 -4
28 -10 31 -6 4 -8 -15 -4 -53z m-96 -224 c0 -9 4 -8 10 2 8 12 10 11 10 -7 0
-25 -10 -29 -28 -11 -15 15 -16 28 -2 28 6 0 10 -6 10 -12z m190 -60 c0 -4 -5
-8 -12 -8 -6 0 -3 -9 7 -20 10 -11 13 -20 8 -20 -9 0 -26 28 -24 38 1 1 -8 11
-19 22 -31 31 -24 43 10 18 17 -12 30 -25 30 -30z"/>
<path d="M900 584 c-14 -35 -12 -45 10 -74 11 -14 20 -31 20 -38 0 -7 5 -10
10 -7 6 3 10 15 10 26 0 11 -4 18 -9 14 -9 -5 -10 6 -12 83 -1 30 -17 28 -29
-4z"/>
<path d="M401 582 c-6 -11 -8 -22 -4 -25 3 -4 1 -12 -5 -19 -7 -9 -6 -19 4
-33 14 -19 13 -20 -13 -25 l-27 -5 28 -26 c19 -18 24 -29 17 -34 -7 -4 -18 -1
-26 5 -22 18 -18 4 6 -30 20 -27 21 -30 5 -45 -18 -19 -20 -31 -6 -40 6 -3 10
-11 10 -18 0 -8 -3 -8 -11 0 -6 6 -18 9 -27 6 -12 -5 -14 -1 -10 15 4 12 2 19
-3 16 -5 -3 -12 2 -15 11 -5 12 -9 13 -20 4 -8 -6 -14 -16 -14 -21 0 -6 7 -5
15 2 16 13 18 11 28 -37 7 -34 -10 -38 -21 -6 -6 16 -11 22 -11 15 -1 -7 4
-23 10 -34 10 -18 9 -20 -5 -15 -9 4 -16 2 -16 -3 0 -6 7 -10 16 -10 12 0 15
-6 11 -21 -4 -16 -3 -18 9 -8 7 6 11 15 8 20 -2 5 2 23 11 40 13 24 20 28 28
20 9 -9 8 -14 -2 -20 -9 -6 -12 -20 -9 -39 2 -17 1 -29 -4 -26 -4 3 -8 1 -8
-4 0 -6 7 -12 15 -16 15 -5 19 10 18 66 0 10 4 18 9 18 4 0 7 3 7 7 -1 5 -1
17 0 28 1 16 3 17 10 5 5 -8 12 -26 16 -39 6 -18 4 -22 -6 -15 -8 4 -3 -4 11
-18 13 -15 27 -25 30 -23 3 2 7 32 8 66 3 67 7 79 25 79 9 0 8 -3 -1 -8 -9 -6
-4 -20 23 -55 36 -48 46 -87 20 -87 -15 0 -32 26 -46 69 l-7 26 -1 -27 c-1
-15 4 -30 10 -34 8 -4 4 -13 -12 -25 -19 -14 -22 -20 -11 -30 10 -11 12 -10
12 3 0 9 7 18 15 22 9 3 15 0 15 -10 0 -8 4 -13 9 -9 5 3 12 1 16 -5 6 -9 -7
-14 -27 -11 -5 0 -8 -5 -8 -13 0 -8 13 -16 30 -18 22 -3 29 -1 26 8 -3 8 0 11
9 8 10 -4 12 -15 9 -34 -5 -22 -3 -28 11 -27 10 1 25 -12 36 -33 12 -22 19
-28 19 -17 0 16 5 17 33 12 17 -4 33 -11 35 -16 7 -17 20 -9 15 8 -2 10 -19
25 -38 34 -25 12 -32 12 -28 2 3 -7 -2 -13 -10 -13 -17 0 -48 43 -50 70 -1 11
-3 17 -5 15 -2 -2 -12 4 -22 13 -15 12 -17 19 -8 30 10 12 14 11 25 -4 7 -10
13 -13 13 -8 0 6 -5 15 -12 22 -6 6 -8 15 -4 19 4 4 11 1 16 -7 13 -20 13 2 0
36 -6 15 -9 29 -6 31 8 8 46 -17 46 -31 0 -21 84 -143 96 -139 11 4 41 -25 44
-42 4 -20 56 -70 75 -72 19 -1 18 0 -2 17 -13 10 -23 23 -23 29 0 6 -7 11 -15
11 -8 0 -15 6 -15 13 -1 6 -19 30 -41 52 -47 46 -100 119 -103 143 -2 8 -18
24 -36 33 -32 17 -50 36 -50 51 0 4 6 5 13 2 8 -3 13 4 14 17 2 21 1 21 -18 3
-11 -10 -18 -26 -16 -35 4 -15 1 -16 -22 -8 -22 8 -23 7 -9 -3 9 -7 23 -17 32
-23 19 -12 26 -56 10 -62 -12 -4 -69 74 -69 96 0 8 -10 17 -23 22 -21 8 -22 6
-22 -46 0 -66 -14 -78 -35 -29 -15 35 -16 67 -4 89 3 6 5 43 5 82 -1 40 2 73
6 73 11 0 3 63 -9 67 -6 2 -16 -4 -22 -15z"/>
<path d="M1591 568 c-12 -35 -9 -43 14 -34 13 4 14 10 5 26 -7 13 -7 20 0 20
5 0 10 5 10 10 0 22 -19 8 -29 -22z"/>
<path d="M1110 554 c0 -24 25 -62 35 -52 4 4 -2 22 -14 40 -17 27 -21 29 -21
12z"/>
<path d="M2500 554 c0 -14 2 -14 16 -3 14 11 16 10 12 -11 -1 -14 -7 -28 -12
-31 -4 -4 -3 -9 3 -13 12 -8 26 37 17 59 -7 20 -36 19 -36 -1z"/>
<path d="M2570 535 c0 -18 4 -23 15 -19 17 7 17 7 9 28 -9 24 -24 19 -24 -9z"/>
<path d="M1576 509 c2 -4 -2 -10 -8 -13 -7 -3 -1 -3 15 1 22 4 26 2 21 -11 -5
-12 0 -15 20 -14 l26 2 -22 21 c-20 19 -62 30 -52 14z"/>
<path d="M2884 503 c-16 -36 -12 -51 10 -45 18 5 18 7 4 10 -10 2 -18 8 -18
13 0 6 5 7 10 4 6 -3 10 3 10 14 0 26 -5 27 -16 4z"/>
<path d="M1935 479 c11 -16 22 -119 14 -119 -4 0 -11 5 -14 10 -3 6 -12 10
-18 9 -9 0 -9 -2 1 -6 6 -2 12 -10 12 -17 0 -7 10 -12 23 -11 12 1 22 8 21 16
-1 34 -28 129 -36 129 -5 0 -6 -5 -3 -11z"/>
<path d="M2016 455 c3 -22 7 -44 8 -50 4 -23 77 -133 107 -159 27 -25 30 -31
17 -40 -13 -10 -11 -18 9 -61 21 -45 23 -47 17 -15 -11 63 -11 75 -1 88 7 9 5
18 -6 30 -11 12 -13 22 -7 32 7 11 13 6 25 -23 15 -36 16 -54 4 -50 -4 1 -5
-6 -2 -17 3 -11 10 -17 15 -14 6 4 21 -6 34 -22 14 -17 23 -23 24 -15 0 8 -8
23 -17 33 -18 20 -43 81 -46 113 -1 11 -7 20 -14 20 -6 0 -26 11 -45 25 -34
25 -58 34 -58 21 0 -4 14 -15 30 -25 17 -9 28 -22 25 -27 -4 -5 -1 -9 4 -9 6
0 11 -4 11 -10 0 -5 -7 -10 -15 -10 -8 0 -15 4 -15 8 0 5 -14 24 -30 42 -17
19 -28 41 -25 49 2 9 0 23 -6 31 -8 11 -9 9 -3 -10 13 -47 -8 -12 -27 47 -16
47 -18 51 -13 18z"/>
<path d="M300 475 c0 -6 8 -21 17 -35 15 -21 15 -23 1 -17 -29 11 -26 -4 7
-38 19 -18 32 -36 29 -39 -2 -3 2 -2 8 4 9 7 6 15 -10 31 -13 12 -21 28 -18
37 3 9 -3 28 -14 42 -11 14 -20 20 -20 15z"/>
<path d="M1717 460 c7 -25 19 -34 28 -20 7 11 -11 40 -25 40 -5 0 -6 -9 -3
-20z"/>
<path d="M2410 465 c0 -8 4 -15 9 -15 5 0 18 -3 28 -7 17 -6 17 -5 -1 15 -22
26 -36 28 -36 7z"/>
<path d="M2537 465 c-4 -8 -2 -17 4 -20 5 -4 7 -10 4 -14 -2 -5 6 -17 20 -27
18 -14 21 -22 14 -35 -6 -12 -5 -20 3 -25 7 -5 8 -3 3 6 -6 10 -1 11 21 6 16
-4 37 -7 47 -7 11 0 17 -8 17 -25 0 -14 11 -36 25 -50 22 -22 24 -28 13 -42
-11 -14 -10 -15 5 -9 10 4 20 7 21 7 2 0 1 11 -1 25 -3 13 -16 31 -29 40 -13
8 -24 24 -24 35 0 19 -36 47 -54 42 -14 -5 -37 21 -32 35 3 8 2 12 -3 8 -16
-9 -37 5 -38 27 -1 13 3 26 10 30 8 5 7 8 -4 8 -9 0 -19 -7 -22 -15z"/>
<path d="M2809 462 c11 -21 11 -23 -6 -20 -10 2 -17 9 -16 14 1 6 -4 11 -12
11 -12 0 -12 -5 1 -28 17 -33 18 -43 4 -34 -5 3 -10 2 -10 -4 0 -5 5 -13 10
-16 6 -3 10 -2 10 3 0 5 7 9 15 9 8 0 15 -4 15 -9 0 -5 -7 -11 -15 -14 -21 -8
-19 -28 6 -50 22 -19 22 -19 10 4 -7 13 -10 26 -7 29 9 10 23 -7 29 -34 3 -16
13 -37 22 -48 16 -19 16 -19 8 5 -4 14 -7 42 -7 63 0 20 -3 37 -8 37 -4 0 -8
-4 -8 -10 0 -5 -4 -10 -10 -10 -5 0 -10 9 -10 20 0 10 -8 24 -17 29 -15 8 -15
10 -3 11 21 0 23 35 3 52 -15 12 -15 11 -4 -10z"/>
<path d="M1545 444 c32 -35 31 -42 -2 -36 -36 6 -25 -6 14 -17 27 -8 30 -7 26
10 -3 10 0 19 6 19 6 0 11 7 11 16 0 10 -6 13 -19 9 -10 -3 -24 1 -31 10 -7 8
-16 15 -21 15 -4 0 3 -12 16 -26z"/>
<path d="M2333 448 c9 -15 17 -34 17 -43 0 -8 3 -15 8 -16 4 0 17 -2 29 -3 18
-2 20 0 12 11 -6 7 -15 10 -20 8 -4 -3 -13 4 -20 16 -8 16 -8 23 1 29 9 5 9 9
1 14 -6 4 -11 2 -11 -5 0 -8 -5 -7 -17 2 -17 13 -17 13 0 -13z"/>
<path d="M2590 459 c1 -21 44 -49 60 -39 12 7 11 10 -5 16 -11 4 -28 14 -37
22 -15 13 -18 13 -18 1z"/>
<path d="M2961 443 c-1 -22 -31 -34 -31 -13 0 6 -11 10 -25 10 -15 0 -25 -6
-25 -15 0 -9 -6 -12 -15 -9 -11 5 -13 2 -9 -11 4 -11 10 -13 17 -6 5 5 15 8
21 7 6 -2 8 -1 4 1 -5 3 -8 9 -8 15 0 6 8 4 18 -5 10 -10 35 -17 55 -17 32 0
37 3 36 23 0 21 -1 21 -9 2 -8 -21 -8 -21 -23 25 -4 9 -6 6 -6 -7z"/>
<path d="M1647 444 c-6 -6 35 -44 47 -44 11 0 6 19 -10 34 -17 17 -27 20 -37
10z"/>
<path d="M1761 435 c-1 -11 -4 -37 -7 -57 -4 -24 -3 -38 4 -38 5 0 8 9 5 19
-3 10 0 27 5 37 5 11 6 28 1 39 -8 20 -8 20 -8 0z"/>
<path d="M2398 420 c12 -12 22 -25 22 -30 0 -6 7 -10 15 -10 8 0 15 -8 15 -17
0 -15 2 -15 9 -4 8 12 12 12 26 -3 13 -12 21 -14 28 -7 8 8 7 15 -2 24 -10 10
-11 8 -5 -8 5 -15 -1 -12 -27 13 -19 17 -40 32 -46 32 -6 0 -13 7 -17 15 -3 8
-13 15 -23 15 -14 0 -14 -3 5 -20z"/>
<path d="M19 401 c6 -10 8 -21 5 -24 -3 -3 -1 -14 5 -24 9 -15 10 -12 7 17 -2
19 -4 38 -5 43 0 4 -6 7 -11 7 -7 0 -7 -6 -1 -19z"/>
<path d="M1821 412 c-6 -2 -11 -11 -11 -20 0 -15 -2 -15 -10 -2 -8 13 -10 12
-10 -2 0 -10 6 -18 13 -18 14 0 42 -38 42 -59 0 -8 9 -19 20 -25 28 -15 35
-28 25 -42 -6 -6 -6 -14 -2 -19 4 -4 0 -6 -8 -3 -8 3 -17 13 -18 23 -3 10 0
15 7 11 6 -4 11 -2 11 4 0 7 -7 9 -16 6 -10 -4 -13 -2 -8 6 4 6 3 8 -3 5 -16
-10 -2 -66 20 -82 21 -15 46 -21 34 -8 -4 3 -2 12 4 19 15 19 -9 95 -30 92 -9
-2 -15 3 -14 9 2 7 -6 27 -17 45 -24 39 -27 66 -7 49 8 -6 17 -8 20 -4 4 3 7
-5 7 -19 0 -26 31 -63 43 -51 4 3 0 17 -8 29 -9 14 -11 25 -5 29 6 3 10 12 10
18 0 7 -4 6 -10 -3 -8 -13 -10 -12 -10 3 0 13 -7 17 -29 15 -15 -1 -33 -4 -40
-6z"/>
<path d="M763 383 c15 -16 27 -39 27 -51 0 -24 25 -92 34 -92 3 0 3 14 -1 32
-5 27 -4 30 11 25 15 -6 14 -3 -3 22 -26 36 -28 60 -4 40 14 -12 16 -12 11 1
-2 8 -12 15 -20 15 -8 0 -22 5 -29 11 -8 6 -23 14 -34 18 -16 6 -15 2 8 -21z"/>
<path d="M703 388 c4 -10 2 -18 -2 -18 -5 0 -14 -14 -20 -31 -7 -21 -15 -28
-23 -23 -10 6 -9 3 1 -9 7 -9 11 -23 8 -31 -7 -19 28 -50 48 -43 17 7 20 33 5
42 -6 4 -9 1 -8 -7 2 -7 -4 -13 -12 -13 -11 0 -14 10 -12 40 3 39 22 76 22 43
0 -9 5 -20 12 -24 8 -5 9 0 4 17 -4 13 -9 32 -11 43 -2 10 -7 21 -11 25 -4 3
-4 -2 -1 -11z"/>
<path d="M930 379 c0 -39 86 -116 107 -95 11 11 -10 21 -50 25 -5 1 -6 5 -2
10 3 6 -8 24 -25 41 -16 17 -30 26 -30 19z"/>
<path d="M1400 375 c6 -8 13 -40 13 -70 2 -42 -1 -52 -8 -40 -20 32 -77 89
-91 91 -14 2 -14 0 -1 -19 9 -12 20 -21 25 -20 6 1 13 -4 16 -13 4 -9 2 -12
-5 -8 -7 4 -10 1 -7 -7 3 -8 10 -14 16 -14 16 0 15 -20 0 -20 -7 -1 -30 23
-52 53 -21 29 -40 51 -42 49 -6 -6 71 -119 96 -142 l21 -19 -7 29 -7 30 24
-20 c14 -12 20 -14 14 -5 -6 9 -2 8 7 -2 10 -12 15 -28 12 -46 -3 -14 -2 -23
2 -20 3 4 15 -3 25 -15 l18 -22 1 23 c0 12 -4 22 -10 22 -5 0 -10 10 -10 23 0
13 -4 27 -10 33 -5 5 -12 36 -15 67 -4 46 -3 57 7 51 7 -4 2 5 -11 19 -26 28
-42 38 -21 12z"/>
<path d="M1613 368 c8 -13 23 -22 32 -20 9 2 14 -1 11 -6 -3 -6 9 -20 27 -32
17 -12 24 -19 15 -16 -22 7 -23 -7 -3 -24 8 -7 15 -20 15 -29 0 -9 5 -22 11
-28 7 -7 6 -12 -5 -16 -9 -4 -17 -2 -17 3 -3 20 -4 25 -12 38 -12 18 -23 15
-23 -7 0 -11 3 -18 7 -15 4 2 13 -9 20 -25 7 -16 16 -28 20 -25 4 2 9 -3 13
-11 3 -8 10 -15 16 -15 6 0 4 10 -5 24 -12 18 -13 25 -4 28 8 3 10 11 4 24 -7
17 -16 62 -18 91 0 7 -4 10 -9 7 -4 -3 -12 5 -17 18 -5 14 -18 24 -32 25 -12
1 -27 9 -31 18 -5 8 -14 15 -20 15 -6 0 -4 -9 5 -22z"/>
<path d="M2899 372 c14 -26 14 -35 0 -26 -13 7 -8 -21 11 -70 9 -25 10 -25 39
-8 36 20 34 26 -3 12 -25 -9 -27 -8 -21 9 3 11 1 22 -5 26 -7 5 -5 12 7 21 10
7 13 14 7 14 -7 0 -15 8 -18 17 -6 15 -5 15 11 1 10 -8 26 -18 37 -22 10 -3
16 -12 13 -21 -4 -9 -1 -12 8 -9 22 9 13 59 -10 61 -11 2 -35 6 -54 9 -31 6
-32 5 -22 -14z"/>
<path d="M1554 358 c-4 -6 -1 -14 6 -18 6 -4 11 -10 11 -14 -3 -19 0 -26 12
-26 9 0 14 13 15 33 1 26 -3 33 -18 34 -11 1 -23 -3 -26 -9z"/>
<path d="M1995 350 c10 -11 15 -23 11 -27 -4 -4 -11 -1 -15 6 -5 7 -14 10 -21
6 -8 -5 -5 -11 9 -22 12 -8 21 -21 21 -29 0 -8 5 -12 10 -9 6 4 8 16 4 28 -6
19 -5 20 9 8 9 -7 15 -17 12 -21 -3 -5 5 -17 17 -27 13 -10 24 -27 25 -38 1
-11 5 -31 9 -45 6 -22 5 -23 -8 -12 -21 17 -39 -5 -27 -33 4 -11 8 -23 8 -27
1 -12 -63 -2 -67 11 -2 6 -10 11 -18 11 -8 0 -14 5 -14 11 0 5 -5 7 -10 4 -8
-5 -7 -11 0 -20 7 -8 8 -20 4 -27 -5 -10 -4 -11 7 -1 20 19 29 16 29 -12 0
-14 5 -25 10 -25 5 0 9 -3 8 -7 -4 -10 5 -13 33 -13 17 0 19 3 10 14 -8 10 -6
19 9 39 13 16 16 28 10 32 -5 3 -10 13 -10 21 0 12 4 12 20 4 11 -6 20 -20 20
-31 0 -15 5 -19 16 -15 9 3 18 6 20 6 2 0 -3 11 -11 24 -9 14 -15 31 -13 40 2
8 -6 22 -17 30 -13 10 -15 15 -7 16 10 0 8 9 -7 36 -12 19 -21 42 -21 50 0 8
-4 13 -9 9 -6 -3 -20 8 -32 25 -13 16 -27 30 -32 30 -6 0 -2 -9 8 -20z"/>
<path d="M850 350 c0 -6 7 -27 15 -46 8 -20 12 -46 9 -59 -3 -13 -1 -26 5 -29
7 -5 11 10 11 44 0 35 -4 49 -11 44 -8 -4 -9 0 -4 15 4 13 2 21 -5 21 -6 0 -8
5 -5 10 3 6 1 10 -4 10 -6 0 -11 -5 -11 -10z"/>
<path d="M912 311 c0 -28 3 -53 7 -56 4 -2 6 -17 5 -33 -2 -29 -1 -29 34 -21
20 4 38 7 41 7 19 -2 28 4 28 17 0 8 -3 15 -7 15 -4 0 -19 12 -34 26 -34 35
-34 18 1 -18 42 -44 22 -41 -25 3 -44 43 -52 55 -27 46 12 -5 12 -2 3 21 -20
47 -26 45 -26 -7z"/>
<path d="M1516 344 c-4 -9 -3 -22 2 -28 11 -15 13 -56 2 -56 -4 0 -20 14 -33
30 -31 36 -40 38 -25 5 6 -13 28 -33 50 -44 21 -10 38 -23 38 -27 -1 -5 3 -10
9 -12 17 -6 13 19 -6 40 -9 10 -13 21 -9 25 8 8 45 -35 46 -53 0 -6 7 -17 15
-24 32 -27 15 18 -25 63 -22 25 -36 47 -31 49 5 1 1 13 -9 25 -15 20 -19 20
-24 7z"/>
<path d="M2530 359 c0 -16 33 -83 51 -103 l20 -21 -3 27 c-2 15 -8 31 -13 35
-4 5 -5 1 0 -7 16 -29 -8 0 -31 37 -13 21 -24 35 -24 32z"/>
<path d="M2605 340 c3 -6 -1 -10 -9 -10 -8 0 -18 -4 -21 -10 -4 -7 3 -7 19 0
22 8 26 7 26 -8 1 -9 8 -28 16 -42 8 -14 13 -17 10 -7 -3 9 -1 17 4 17 12 0
-22 58 -38 65 -7 3 -10 0 -7 -5z"/>
<path d="M2716 342 c6 -4 14 -17 18 -29 4 -13 12 -23 18 -23 6 0 7 7 3 18 -4
9 -8 22 -8 27 0 6 -10 12 -21 13 -11 0 -16 -2 -10 -6z"/>
<path d="M124 298 c15 -18 31 -39 37 -46 6 -7 14 -10 18 -6 3 4 0 9 -6 11 -7
3 -13 10 -13 17 0 15 -37 56 -51 56 -6 0 1 -15 15 -32z"/>
<path d="M1780 320 c0 -5 -7 -10 -15 -10 -21 0 -19 -19 3 -27 18 -7 32 -22 32
-37 0 -5 -10 -1 -21 10 -21 19 -21 19 -18 -1 3 -11 11 -20 18 -20 8 0 15 -11
16 -23 1 -13 8 -28 16 -33 10 -6 10 -9 2 -9 -7 0 -13 -6 -13 -14 0 -9 7 -12
20 -9 14 4 20 0 20 -11 0 -10 4 -15 9 -11 5 3 12 -4 16 -15 5 -16 25 -29 25
-16 0 20 -46 99 -60 103 -19 5 -20 18 -6 43 5 8 6 12 1 8 -10 -10 -44 53 -38
70 3 6 2 12 -1 12 -3 0 -6 -4 -6 -10z"/>
<path d="M1930 310 c0 -11 -4 -20 -10 -20 -5 0 -3 -18 5 -41 8 -23 12 -46 8
-52 -3 -6 -1 -7 5 -3 7 4 12 1 12 -7 0 -8 6 -20 14 -26 12 -10 12 -3 -1 41 -9
29 -16 70 -17 91 -1 37 -16 54 -16 17z"/>
<path d="M743 290 c4 -18 19 -43 33 -56 29 -28 44 -32 22 -6 -8 9 -21 32 -28
50 -18 46 -35 54 -27 12z"/>
<path d="M256 275 c-4 -14 -4 -30 -1 -35 4 -6 1 -10 -4 -10 -17 0 -13 -17 5
-24 8 -3 13 -2 10 2 -2 4 -1 26 4 50 8 45 -4 59 -14 17z"/>
<path d="M1040 269 c0 -5 -6 -7 -12 -4 -7 4 -4 -1 6 -9 26 -21 36 -20 36 4 0
11 -7 20 -15 20 -8 0 -15 -5 -15 -11z"/>
<path d="M2026 255 c8 -37 12 -41 25 -28 7 7 3 17 -11 34 l-20 24 6 -30z"/>
<path d="M1110 242 c0 -6 13 -18 30 -27 37 -19 46 -19 30 0 -7 9 -15 13 -18
10 -3 -3 -14 2 -24 12 -10 9 -18 11 -18 5z"/>
<path d="M1471 230 c-1 -14 8 -43 19 -65 24 -47 24 -46 5 -39 -22 9 -18 -13 6
-30 12 -8 19 -18 16 -23 -3 -4 1 -13 8 -20 10 -9 11 -1 8 40 -2 28 -8 54 -14
58 -6 4 -9 13 -7 20 3 8 -4 20 -16 27 -20 13 -20 13 -1 8 18 -5 18 -5 4 6 -9
7 -18 20 -22 28 -3 9 -6 5 -6 -10z"/>
<path d="M2820 241 c0 -20 4 -26 16 -23 7 1 15 -2 19 -8 3 -5 2 -10 -4 -10 -6
0 -8 -7 -5 -15 4 -8 11 -15 16 -15 6 0 8 6 5 14 -3 8 2 20 10 28 14 11 16 11
10 -4 -4 -11 -2 -17 6 -15 13 2 14 -15 2 -53 l-7 -25 19 22 c15 17 23 19 31
11 20 -20 13 -3 -8 22 -11 13 -20 29 -20 35 0 16 -25 26 -44 19 -7 -3 -21 2
-30 11 -9 9 -16 12 -16 6z"/>
<path d="M2575 234 c9 -13 -15 -43 -30 -38 -19 8 -19 -3 1 -23 14 -14 16 -14
21 6 3 11 9 21 13 21 10 0 7 27 -3 35 -4 3 -5 2 -2 -1z"/>
<path d="M1037 216 c-5 -12 -2 -25 7 -35 19 -21 4 -53 -16 -33 -6 6 -8 12 -4
12 5 0 3 7 -4 15 -14 17 -75 21 -65 5 3 -5 -3 -10 -15 -10 -12 0 -18 -5 -15
-10 4 -6 10 -8 15 -5 4 3 14 -3 21 -12 12 -15 12 -16 -3 -11 -27 11 -30 -4 -6
-30 13 -14 17 -22 11 -18 -8 4 -13 1 -13 -8 0 -10 10 -14 30 -14 l31 1 -26 27
c-16 16 -22 30 -17 34 6 3 20 -8 32 -24 12 -17 25 -29 28 -26 2 3 0 12 -6 19
-13 15 2 37 24 37 15 0 25 38 12 46 -5 3 -3 13 7 24 12 14 13 20 4 26 -8 4
-10 3 -5 -4 4 -7 3 -12 -3 -12 -5 0 -11 5 -13 12 -3 7 -7 5 -11 -6z m-51 -51
c-3 -8 -2 -14 2 -14 22 4 30 -3 24 -23 -5 -21 -6 -21 -29 6 -22 26 -23 46 -1
46 5 0 8 -7 4 -15z"/>
<path d="M1520 213 c6 -13 17 -23 24 -23 8 0 19 -20 26 -50 7 -28 16 -53 21
-56 11 -7 11 -1 -1 30 -6 17 -6 26 0 26 6 0 10 -5 10 -11 0 -5 4 -8 9 -4 6 3
5 18 -3 37 -10 22 -21 32 -41 34 -15 2 -34 11 -42 21 -13 17 -13 16 -3 -4z"/>
<path d="M402 203 c-11 -12 -11 -17 0 -30 9 -12 9 -15 1 -9 -8 4 -13 1 -13 -8
0 -10 6 -13 17 -9 12 5 15 2 10 -10 -4 -11 -2 -14 9 -10 17 6 17 13 -1 37 -22
28 -18 44 4 21 10 -11 21 -35 25 -52 4 -27 2 -33 -12 -33 -16 -1 -16 -1 0 -14
10 -7 15 -16 11 -20 -4 -4 0 -4 10 0 9 3 14 11 10 18 -4 6 5 3 20 -7 l28 -18
-23 42 c-13 23 -31 56 -40 73 -9 17 -17 27 -18 21 0 -5 -6 -3 -13 6 -11 14
-14 14 -25 2z"/>
<path d="M2339 202 c7 -12 14 -22 17 -22 3 0 2 5 -1 10 -11 18 8 11 32 -12 13
-12 23 -16 23 -10 0 7 -4 12 -10 12 -5 0 -10 6 -10 13 0 8 -6 14 -12 14 -7 0
-21 4 -32 8 -16 7 -17 6 -7 -13z"/>
<path d="M2438 213 c-21 -5 -23 -26 -4 -42 10 -9 17 -7 27 6 12 15 12 16 -3
10 -12 -4 -15 -2 -11 9 4 11 9 12 19 4 7 -7 10 -18 7 -26 -3 -8 1 -14 10 -14
10 0 13 -7 10 -19 -3 -10 0 -22 6 -25 6 -4 11 -16 11 -26 0 -13 5 -17 15 -14
12 5 12 10 3 27 -6 12 -11 37 -9 55 1 20 -2 31 -8 27 -6 -3 -19 3 -31 15 -11
11 -21 19 -22 19 -2 -1 -11 -3 -20 -6z"/>
<path d="M220 200 c0 -6 7 -10 15 -10 8 0 15 -6 15 -14 0 -7 8 -20 17 -27 15
-12 16 -12 10 4 -4 10 -7 22 -7 26 0 4 -11 13 -25 19 -15 7 -25 8 -25 2z"/>
<path d="M636 195 c-6 -17 -9 -17 -17 -5 -8 12 -9 11 -7 -5 2 -12 11 -20 22
-20 11 0 22 -8 25 -18 4 -10 11 -18 16 -18 6 1 10 -4 10 -11 0 -6 7 -13 15
-15 9 -3 11 -1 5 4 -5 4 -11 15 -13 23 -2 8 -12 24 -21 35 -10 11 -20 27 -23
34 -3 12 -6 10 -12 -4z"/>
<path d="M748 193 c-20 -23 -13 -42 12 -36 16 4 20 0 20 -18 0 -19 2 -21 10
-9 9 14 25 7 25 -10 0 -8 44 -50 52 -50 6 0 -41 65 -50 68 -4 2 -18 19 -31 38
-21 32 -24 33 -38 17z"/>
<path d="M1086 193 c-3 -8 -3 -20 1 -26 3 -5 7 -23 8 -39 4 -46 36 -75 49 -42
3 9 -4 25 -21 40 -14 13 -22 24 -18 24 4 0 2 7 -5 15 -11 13 -10 14 4 9 10 -4
16 -1 16 9 0 21 -27 29 -34 10z"/>
<path d="M1340 190 c0 -11 5 -20 10 -20 6 0 10 -5 10 -11 0 -5 -6 -7 -12 -3
-9 5 -9 3 1 -9 17 -21 31 -14 24 13 -4 15 -1 18 16 15 12 -2 21 1 21 9 0 21
-12 27 -28 13 -12 -9 -16 -9 -19 1 -7 19 -23 14 -23 -8z"/>
<path d="M820 191 c0 -6 5 -11 11 -11 6 0 9 -7 5 -15 -3 -9 7 -28 26 -48 17
-17 25 -25 19 -15 -17 23 -31 78 -21 78 5 0 14 -8 19 -17 10 -17 10 -17 11 0
0 9 -6 18 -12 19 -7 0 -17 2 -23 2 -5 1 -16 5 -22 9 -8 5 -13 4 -13 -2z"/>
<path d="M366 149 c4 -7 0 -9 -14 -5 -20 7 -20 6 -5 -33 9 -22 19 -38 24 -36
4 3 9 -1 12 -7 2 -7 8 -9 13 -5 5 5 1 15 -10 22 -10 8 -15 18 -11 24 3 6 1 11
-6 11 -10 0 -10 3 -1 12 15 15 15 28 1 28 -5 0 -7 -5 -3 -11z"/>
<path d="M1160 145 c-6 -8 -9 -19 -5 -25 5 -8 11 -6 19 6 9 11 18 14 27 9 12
-8 12 -6 0 8 -17 21 -25 21 -41 2z"/>
<path d="M1395 143 c5 -10 8 -26 9 -35 0 -9 3 -15 7 -12 4 2 9 -5 12 -16 6
-22 26 -27 28 -7 1 6 2 19 3 27 1 15 -42 60 -58 60 -4 0 -5 -8 -1 -17z"/>
<path d="M1640 145 c7 -8 19 -15 27 -15 9 0 13 -6 10 -14 -4 -10 -1 -13 8 -9
11 4 12 10 5 24 -6 10 -17 16 -25 13 -8 -4 -15 -1 -15 5 0 6 -5 11 -11 11 -8
0 -8 -5 1 -15z"/>
<path d="M2265 122 c-7 -35 -1 -52 21 -52 11 0 13 7 8 28 -12 50 -21 58 -29
24z"/>
<path d="M2423 144 c20 -6 23 -40 5 -47 -7 -2 -10 -7 -7 -11 3 -3 14 1 25 9
15 11 17 17 8 32 -6 10 -20 19 -30 20 -16 2 -16 1 -1 -3z"/>
<path d="M2823 128 c-17 -21 -23 -62 -12 -78 9 -13 10 -13 6 1 -3 9 -1 21 5
27 10 10 21 62 14 62 -2 0 -8 -6 -13 -12z"/>
<path d="M1062 108 c-15 -15 -16 -55 -1 -63 6 -4 8 -13 5 -21 -3 -7 -1 -16 4
-19 9 -5 14 14 12 36 -1 4 -2 23 -4 43 -1 20 -3 36 -3 36 -1 0 -6 -5 -13 -12z"/>
<path d="M1190 112 c0 -18 28 -45 39 -38 9 6 8 13 -5 27 -18 20 -34 25 -34 11z"/>
<path d="M1719 118 c0 -2 -3 -16 -5 -33 l-5 -30 25 24 c26 24 26 41 0 41 -8 0
-14 -1 -15 -2z"/>
<path d="M1926 104 c-3 -8 -12 -12 -18 -9 -7 4 -5 0 4 -8 10 -8 15 -17 11 -20
-3 -4 -1 -7 6 -7 7 0 11 6 8 13 -2 6 0 20 5 30 5 10 5 17 -1 17 -5 0 -12 -7
-15 -16z"/>
<path d="M2121 93 c-1 -7 -7 -10 -15 -7 -9 3 -16 -4 -20 -22 -4 -14 -6 -27 -4
-28 2 0 14 -7 28 -15 l25 -14 -23 26 c-15 16 -20 27 -13 32 6 3 11 1 11 -4 0
-6 7 -11 15 -11 8 0 15 -4 15 -10 0 -5 8 -10 18 -10 15 1 15 2 2 13 -9 7 -21
23 -27 37 -6 14 -12 20 -12 13z"/>
<path d="M141 71 c-9 -6 -10 -11 -2 -15 6 -4 11 -2 11 3 0 6 5 11 11 11 7 0 9
-10 5 -25 -5 -18 -2 -25 8 -25 8 0 22 -3 31 -6 12 -5 11 1 -7 29 -24 38 -34
43 -57 28z"/>
<path d="M750 45 c0 -21 3 -26 9 -16 7 11 11 10 20 -5 6 -11 11 -14 11 -8 0 7
-9 22 -20 35 l-19 24 -1 -30z"/>
<path d="M1132 33 c2 -16 10 -27 21 -29 14 -2 16 1 7 11 -8 9 -6 14 5 19 9 3
23 -3 32 -14 10 -11 21 -20 25 -20 7 0 -3 19 -28 58 -1 2 -12 -1 -23 -8 -14
-7 -21 -7 -21 0 0 5 -5 10 -11 10 -6 0 -9 -12 -7 -27z"/>
<path d="M1582 34 c-25 -17 -29 -34 -7 -34 8 0 15 5 15 11 0 7 8 18 18 25 24
19 1 17 -26 -2z"/>
<path d="M1686 41 c-10 -16 12 -33 32 -26 8 3 20 5 28 5 8 0 11 6 7 15 -5 14
-7 14 -23 0 -21 -19 -28 -19 -32 3 -3 13 -5 14 -12 3z"/>
<path d="M26 31 c-11 -18 23 -33 56 -26 32 8 33 8 9 17 -17 6 -27 5 -33 -4 -7
-12 -12 -4 -9 15 1 10 -17 9 -23 -2z"/>
</g>
</svg>
