<?xml version="1.0" standalone="no"?>
<!DOCTYPE svg PUBLIC "-//W3C//DTD SVG 20010904//EN"
 "http://www.w3.org/TR/2001/REC-SVG-20010904/DTD/svg10.dtd">
<svg version="1.0" xmlns="http://www.w3.org/2000/svg"
 width="300.000000pt" height="324.000000pt" viewBox="0 0 300.000000 324.000000"
 preserveAspectRatio="xMidYMid meet">
<metadata>
Created by potrace 1.10, written by Peter Selinger 2001-2011
</metadata>
<g transform="translate(0.000000,324.000000) scale(0.100000,-0.100000)"
fill="#000000" stroke="none">
<path d="M2027 3139 c-25 -36 -60 -138 -51 -148 2 -2 11 -1 20 3 11 4 14 13
10 29 -5 22 16 67 33 67 4 0 12 -12 18 -27 10 -26 11 -27 10 -4 -1 13 3 26 10
28 19 7 27 -136 13 -220 -7 -39 -13 -96 -14 -125 -1 -55 -12 -65 -36 -31 -40
56 -39 56 -40 30 0 -17 17 -41 51 -74 59 -57 70 -52 69 30 -1 26 1 120 4 208
7 170 1 210 -37 253 -11 12 -23 22 -26 22 -3 -1 -19 -19 -34 -41z"/>
<path d="M1221 3023 c-91 -83 -107 -244 -38 -384 20 -41 34 -62 31 -46 -8 37
11 35 25 -3 5 -16 15 -30 20 -30 13 0 15 27 2 32 -14 5 -25 58 -12 58 6 0 11
5 11 10 0 15 -26 12 -40 -5 -7 -8 -16 -15 -21 -15 -14 0 -11 84 3 98 9 9 8 12
-5 12 -19 0 -21 8 -7 30 6 10 4 20 -5 30 -13 14 -12 21 5 55 23 45 24 49 10
40 -19 -12 -9 10 25 57 26 36 43 49 70 54 37 7 99 -12 89 -27 -3 -5 1 -9 9 -9
16 0 60 -44 51 -52 -3 -4 4 -9 15 -13 18 -5 23 -16 20 -41 0 -3 8 -12 18 -20
10 -7 14 -14 9 -14 -5 0 0 -8 11 -17 11 -10 18 -23 16 -29 -2 -7 3 -19 12 -27
8 -9 15 -20 14 -24 -1 -4 1 -16 6 -26 4 -9 5 -26 2 -37 -6 -24 1 -25 24 -4 16
15 17 14 13 -3 -4 -13 0 -19 15 -20 27 -2 26 13 -2 51 -13 17 -32 54 -42 81
-20 52 -67 138 -88 160 -7 7 -24 26 -39 43 -37 42 -98 72 -146 72 -31 0 -48
-8 -81 -37z"/>
<path d="M2024 2976 c-3 -9 -10 -16 -16 -16 -5 0 -6 5 -2 12 4 6 3 8 -3 5 -6
-4 -11 -28 -11 -55 -1 -43 1 -48 21 -49 12 0 16 1 10 4 -9 3 -10 10 -3 24 7
12 7 19 1 19 -5 0 -3 14 6 31 8 16 12 33 9 36 -3 3 -8 -2 -12 -11z"/>
<path d="M1913 2868 c-30 -42 -85 -159 -78 -167 12 -12 34 13 45 52 7 25 20
54 30 65 10 10 21 33 25 51 6 28 9 30 23 19 15 -12 16 -11 3 5 -7 9 -14 17
-16 17 -1 0 -15 -19 -32 -42z"/>
<path d="M1285 2741 c4 -8 8 -26 7 -42 0 -20 3 -26 13 -23 11 5 11 11 3 32 -7
15 -16 32 -21 37 -7 6 -7 5 -2 -4z"/>
<path d="M1964 2735 c4 -10 -1 -15 -15 -15 -11 0 -17 -4 -14 -10 8 -13 55 -13
55 -1 0 18 -12 41 -22 41 -6 0 -8 -7 -4 -15z"/>
<path d="M1404 2676 c-20 -22 -22 -52 -4 -53 20 -2 30 23 21 49 -5 12 -9 13
-17 4z"/>
<path d="M1900 2643 c0 -15 59 -42 66 -31 4 7 2 8 -4 4 -7 -4 -12 -1 -12 7 0
8 -7 18 -16 21 -21 8 -34 8 -34 -1z"/>
<path d="M1405 2601 c3 -5 1 -12 -5 -16 -16 -10 -12 -45 5 -45 8 0 15 -7 15
-15 0 -8 -5 -15 -12 -15 -8 0 -9 -3 -1 -11 6 -6 22 -7 42 -2 l33 8 -22 28
c-12 15 -28 27 -36 27 -8 0 -14 7 -14 16 0 11 6 14 20 9 24 -7 27 10 4 19 -23
9 -36 7 -29 -3z"/>
<path d="M1612 2593 c-10 -10 -23 -19 -28 -20 -5 -1 -20 -6 -34 -12 -18 -7
-20 -10 -7 -10 9 -1 17 -8 17 -16 0 -18 -28 -34 -51 -28 -14 4 -16 0 -12 -16
7 -26 23 -38 23 -17 0 10 6 13 15 10 28 -11 63 5 69 31 4 16 13 25 25 25 24 0
32 21 14 38 -7 8 -11 18 -8 23 10 15 -4 10 -23 -8z"/>
<path d="M2041 2593 c7 -10 24 -30 38 -46 14 -15 30 -42 36 -60 7 -22 16 -31
28 -29 15 3 16 0 9 -15 -11 -19 -14 -111 -5 -126 3 -5 12 -2 21 6 10 8 26 17
37 20 16 3 13 6 -12 12 -32 7 -32 8 -26 52 5 35 2 48 -15 66 -11 12 -23 38
-27 57 -5 19 -10 29 -12 22 -3 -8 -17 0 -38 23 -35 36 -57 48 -34 18z"/>
<path d="M2129 2576 c26 -27 31 -39 26 -62 -5 -27 -5 -28 5 -5 l11 24 20 -22
c14 -14 19 -31 16 -47 -2 -13 0 -24 4 -24 5 0 9 -9 9 -19 0 -11 5 -23 10 -26
6 -3 10 -16 10 -28 0 -12 9 -39 20 -60 22 -41 25 -57 9 -57 -5 0 -7 5 -4 10 4
6 -11 10 -37 9 l-43 -1 35 -8 c57 -14 98 -71 91 -128 -1 -6 9 -27 23 -45 19
-24 22 -36 15 -50 -7 -11 -7 -17 1 -17 5 0 10 -5 10 -11 0 -5 -6 -7 -12 -4 -7
4 -6 0 4 -7 11 -10 13 -19 7 -30 -6 -11 -5 -19 1 -23 5 -3 10 -11 10 -16 0 -6
-21 1 -47 16 -45 25 -48 25 -60 8 -29 -43 -58 -73 -70 -73 -7 0 -13 -9 -13
-21 0 -19 1 -19 16 -4 14 13 19 14 26 3 6 -9 7 -6 3 9 -4 16 -1 23 17 29 13 4
28 14 34 22 18 25 53 6 52 -29 -1 -37 14 -53 41 -44 27 8 35 41 28 120 -3 44
-13 78 -31 109 -14 24 -26 51 -26 58 0 7 -6 24 -13 38 -7 14 -14 52 -15 85 -1
33 -7 75 -13 93 -8 24 -8 36 1 47 10 12 6 22 -23 53 -19 20 -61 65 -93 100
-32 34 -65 62 -73 62 -10 0 -4 -12 18 -34z"/>
<path d="M1730 2571 c0 -10 -10 -30 -21 -45 -32 -41 -16 -42 19 -1 18 20 29
41 26 50 -8 21 -24 19 -24 -4z"/>
<path d="M2001 2544 c21 -22 21 -24 4 -18 -18 6 -18 5 -5 -7 25 -23 56 -63 43
-55 -9 5 -11 2 -7 -8 3 -9 10 -13 15 -10 12 7 11 -17 -1 -36 -5 -9 -5 -19 1
-26 7 -8 6 -14 -1 -19 -17 -10 -11 -25 8 -19 10 4 13 2 7 -3 -6 -4 -16 -20
-24 -35 -8 -16 -18 -28 -23 -28 -4 0 -8 -7 -8 -16 0 -13 -7 -15 -34 -11 -29 5
-34 3 -29 -11 4 -14 3 -15 -5 -2 -6 8 -9 17 -6 21 7 12 -38 39 -66 39 -39 0
-100 -46 -100 -75 0 -25 23 -55 43 -55 6 0 2 6 -9 14 -10 8 -15 18 -11 22 4 5
12 2 17 -6 7 -11 11 -11 24 -1 9 8 16 20 16 28 0 11 -7 13 -32 7 -30 -6 -31
-5 -18 11 9 11 24 15 42 13 19 -3 28 0 28 9 0 19 14 16 38 -10 26 -28 27 -40
6 -62 -9 -9 -14 -18 -11 -22 3 -3 23 11 43 31 39 38 57 46 48 21 -4 -8 -10
-15 -15 -15 -5 0 -9 -7 -9 -15 0 -8 -9 -20 -20 -27 -11 -7 -20 -18 -20 -24 0
-6 -9 -21 -20 -34 -11 -13 -20 -29 -20 -37 0 -7 -4 -13 -9 -13 -5 0 -7 10 -4
23 4 21 3 21 -11 -3 -8 -14 -18 -24 -23 -24 -25 4 -32 -9 -14 -25 19 -17 19
-17 0 -41 -11 -15 -19 -20 -19 -11 0 8 -3 12 -6 8 -4 -3 -15 4 -25 16 -12 15
-17 17 -16 6 4 -23 47 -87 47 -68 0 8 25 42 56 75 64 69 98 119 89 134 -3 5
-2 10 4 10 5 0 20 18 32 40 13 22 26 40 31 40 4 0 8 6 8 13 0 6 7 21 16 32 12
16 17 17 23 7 14 -23 18 17 10 101 -7 75 -27 124 -66 162 -26 26 -37 16 -12
-11z"/>
<path d="M1090 2553 c30 -3 62 -10 70 -17 27 -23 46 -25 46 -5 0 13 -4 15 -13
7 -9 -7 -17 -5 -28 6 -12 11 -33 15 -73 14 l-57 -2 55 -3z"/>
<path d="M999 2535 c-26 -14 -86 -85 -72 -85 4 0 29 23 55 50 26 28 47 50 45
50 -1 -1 -14 -7 -28 -15z"/>
<path d="M1234 2480 c4 -36 15 -76 24 -90 l17 -25 3 23 c2 13 -1 37 -7 54 -12
35 -5 54 14 38 9 -8 18 -6 31 7 17 17 16 18 -17 21 -19 2 -43 11 -53 20 -18
17 -19 15 -12 -48z"/>
<path d="M1380 2478 c0 -33 11 -45 45 -53 23 -5 26 -4 15 4 -10 7 -11 11 -2
11 6 0 12 7 12 15 0 8 -7 15 -15 15 -8 0 -15 -7 -15 -15 0 -8 -4 -15 -10 -15
-5 0 -10 11 -10 24 0 14 -4 28 -10 31 -6 3 -10 -4 -10 -17z"/>
<path d="M1348 2445 c4 -25 13 -31 25 -19 8 8 -10 44 -22 44 -5 0 -6 -11 -3
-25z"/>
<path d="M2010 2462 c0 -7 -11 -12 -25 -12 -14 0 -25 -4 -25 -10 0 -15 49 -8
55 9 3 7 3 16 0 19 -3 3 -5 0 -5 -6z"/>
<path d="M1762 2405 c-18 -28 -19 -35 -7 -35 8 0 15 6 15 14 0 7 7 19 15 26 8
7 15 16 15 21 0 19 -16 7 -38 -26z"/>
<path d="M862 2371 c-23 -25 -40 -38 -36 -28 5 13 2 16 -10 11 -10 -4 -15 -13
-12 -20 3 -8 0 -11 -8 -8 -7 3 -19 -2 -26 -11 -13 -15 -11 -16 17 -12 17 3 43
13 58 23 l28 18 -6 -27 c-7 -25 -6 -26 23 -21 26 6 30 4 30 -15 0 -22 14 -28
25 -11 10 17 25 11 18 -7 -5 -12 -2 -15 8 -11 50 19 56 19 55 -4 -1 -21 4 -23
52 -26 47 -3 51 -5 42 -21 -12 -23 -4 -31 32 -31 39 0 35 -11 -18 -50 -30 -21
-42 -36 -36 -42 13 -13 117 68 117 91 0 10 -10 17 -27 19 -19 2 -28 10 -30 25
-2 12 -12 23 -23 26 -11 2 -24 9 -28 17 -4 8 -16 14 -25 14 -10 0 -23 5 -29
11 -8 8 -17 8 -31 0 -28 -15 -32 -14 -25 5 5 14 2 16 -20 10 -23 -5 -27 -3
-27 14 0 23 -4 24 -31 10 -16 -9 -19 -7 -19 10 0 14 -7 20 -22 20 l-22 0 22
16 c23 16 49 55 35 53 -4 -1 -27 -22 -51 -48z"/>
<path d="M1520 2384 c0 -9 5 -12 13 -8 6 4 4 -2 -7 -14 -11 -12 -16 -28 -12
-38 5 -14 4 -15 -8 -5 -8 7 -20 10 -26 6 -6 -4 -20 1 -31 11 -14 13 -16 20 -8
31 9 11 1 13 -44 13 -30 0 -62 3 -71 6 -11 4 -16 1 -16 -10 0 -9 -5 -16 -11
-16 -5 0 -7 -5 -3 -11 4 -8 11 -5 18 9 7 14 16 18 24 13 8 -5 13 -11 13 -15
-2 -17 0 -19 11 -8 17 17 48 15 48 -2 0 -20 -32 -28 -64 -17 l-26 10 23 -37
c13 -20 32 -54 42 -75 10 -22 24 -41 32 -44 7 -3 13 -17 13 -30 0 -14 4 -42
10 -62 5 -20 16 -65 24 -100 9 -36 22 -72 31 -80 13 -13 14 -13 11 5 -2 10
-16 54 -30 98 -14 43 -26 90 -27 105 0 36 -31 109 -57 136 -28 29 -28 37 4 52
23 11 30 10 51 -7 14 -11 29 -17 34 -14 5 3 9 -2 9 -11 0 -9 5 -13 10 -10 6 4
10 -13 11 -42 1 -85 20 -140 32 -94 3 12 0 21 -5 21 -7 0 -6 5 1 14 8 9 8 16
2 20 -5 4 -10 21 -11 39 0 17 -1 41 -2 52 0 11 7 37 15 58 21 50 21 50 -2 59
-16 5 -21 3 -21 -8z"/>
<path d="M1890 2378 c-25 -5 -49 -14 -54 -19 -11 -10 60 -1 89 11 11 5 29 11
40 13 15 4 14 5 -5 5 -14 0 -45 -5 -70 -10z"/>
<path d="M1911 2334 c-12 -14 -12 -17 0 -25 8 -5 21 -9 29 -9 13 1 13 2 -1 13
-9 7 -14 18 -12 25 6 16 1 15 -16 -4z"/>
<path d="M709 2270 c-19 -16 -29 -29 -24 -29 14 0 70 47 64 53 -3 3 -21 -8
-40 -24z"/>
<path d="M2062 2258 c-7 -7 -12 -19 -12 -28 0 -9 -13 -36 -28 -61 -16 -24 -41
-65 -55 -91 -15 -26 -33 -53 -40 -60 -19 -19 -48 -79 -42 -88 2 -4 -8 -20 -24
-36 -32 -32 -32 -71 0 -53 10 5 19 14 19 19 0 23 125 259 159 300 50 60 52 65
43 89 -6 17 -10 19 -20 9z"/>
<path d="M615 2199 c-27 -21 -52 -44 -54 -51 -2 -7 -11 -18 -19 -24 -8 -6 -16
-30 -17 -55 -2 -34 3 -51 22 -77 l25 -33 -21 -23 c-12 -12 -21 -27 -21 -33 0
-6 -7 -13 -15 -17 -8 -3 -15 -12 -15 -21 0 -8 -4 -15 -10 -15 -5 0 -10 -6 -10
-14 0 -7 -7 -19 -15 -26 -8 -7 -12 -16 -9 -21 3 -5 0 -9 -5 -9 -6 0 -11 -5
-11 -11 0 -6 -9 -23 -20 -39 -35 -49 -120 -217 -113 -224 3 -3 1 -6 -6 -6 -8
0 -11 -7 -7 -15 3 -8 1 -15 -4 -15 -4 0 -14 -17 -20 -37 -6 -21 -18 -51 -25
-68 -7 -16 -15 -44 -18 -61 -3 -17 -10 -41 -16 -53 -7 -11 -9 -21 -7 -21 3 0
1 -12 -5 -27 -17 -44 -20 -60 -35 -168 -4 -27 -11 -56 -16 -62 -7 -9 -4 -24
11 -48 12 -20 21 -53 21 -75 0 -26 5 -40 16 -44 12 -5 15 -14 11 -35 -5 -22 5
-46 44 -111 48 -82 49 -85 36 -120 -57 -148 39 -296 232 -356 62 -19 365 -54
471 -54 118 0 300 19 330 35 14 7 43 18 65 25 22 7 53 22 69 33 31 22 63 25
133 12 54 -10 85 -1 125 34 18 15 44 31 58 34 14 4 51 27 82 53 45 35 58 52
58 72 0 35 -35 92 -57 92 -32 0 -51 28 -46 68 12 93 22 151 37 202 19 63 24
182 10 202 -6 7 -21 40 -34 73 -13 33 -37 83 -54 110 -29 46 -31 57 -32 150
-2 142 -19 258 -40 276 -8 7 -14 30 -14 55 0 47 3 49 72 44 19 -1 36 7 53 25
20 23 30 26 57 21 82 -15 144 -12 213 10 39 12 97 30 129 39 36 10 71 29 89
47 34 34 29 48 -8 24 -14 -9 -25 -13 -25 -9 0 4 -6 0 -13 -9 -14 -19 -46 -26
-65 -14 -7 4 -19 3 -27 -4 -8 -7 -15 -9 -15 -4 0 4 -6 0 -13 -11 -8 -10 -19
-15 -26 -11 -6 4 -18 0 -27 -9 -9 -9 -21 -14 -28 -12 -6 2 -17 -2 -23 -9 -11
-10 -93 -13 -145 -5 -5 0 -8 10 -8 21 0 16 -7 20 -36 20 -34 0 -36 -2 -30 -25
7 -29 -5 -32 -48 -10 -15 8 -32 13 -36 10 -5 -3 -6 5 -2 17 3 14 1 19 -6 14
-8 -5 -10 -2 -6 9 6 16 -21 55 -38 55 -11 0 -47 41 -48 53 0 10 -26 37 -35 37
-4 0 2 -16 14 -35 11 -19 16 -35 10 -35 -5 0 2 -11 16 -25 14 -14 25 -30 25
-35 0 -6 7 -10 15 -10 8 0 12 -6 10 -12 -3 -7 7 -26 22 -42 25 -27 25 -30 8
-42 -15 -11 -22 -11 -46 1 -37 20 -78 58 -109 103 -16 24 -34 38 -50 40 -14 1
-51 15 -82 32 -36 18 -55 24 -52 15 6 -13 84 -55 105 -55 11 0 179 -165 179
-176 0 -3 -7 -4 -15 0 -8 3 -15 2 -15 -3 0 -5 7 -14 15 -21 23 -19 19 -26 -31
-51 -26 -12 -49 -29 -51 -38 -5 -17 -74 -71 -92 -71 -6 0 -23 24 -37 53 -39
76 -119 185 -129 176 -2 -3 9 -19 25 -36 54 -58 126 -201 151 -299 23 -93 24
-111 6 -95 -8 6 -17 8 -21 4 -3 -4 -13 2 -21 13 -15 18 -15 18 -9 -8 5 -24 3
-28 -15 -28 -12 0 -21 -4 -21 -9 0 -13 -46 -19 -65 -9 -29 17 -75 27 -75 17 0
-5 11 -9 24 -9 13 0 35 -10 50 -21 20 -16 30 -19 39 -10 6 6 20 11 32 11 12 0
27 6 33 12 9 9 46 13 110 13 79 0 103 -4 131 -20 45 -26 70 -62 75 -105 2 -19
8 -36 15 -38 6 -2 11 -10 11 -17 0 -14 21 -68 42 -108 5 -10 12 -41 15 -69 5
-43 3 -53 -13 -66 -11 -8 -15 -16 -8 -18 6 -3 9 -16 6 -29 -2 -14 -8 -22 -13
-19 -5 3 -9 -14 -10 -38 0 -24 -2 -56 -5 -73 -9 -65 -11 -185 -2 -185 4 0 8 5
8 10 0 6 3 10 8 10 12 -1 54 -39 56 -52 1 -7 5 -18 9 -25 11 -18 -76 -105 -96
-97 -18 6 -31 34 -17 34 5 0 7 7 4 15 -11 27 -20 16 -18 -22 1 -38 -21 -77
-37 -67 -5 3 -9 -2 -9 -10 0 -22 -76 -41 -107 -27 -14 6 -22 18 -20 28 6 36
60 103 108 134 27 17 49 35 49 40 0 4 7 6 16 2 14 -5 13 -2 -2 16 l-19 22 -3
-26 c-2 -14 -8 -25 -13 -25 -6 0 -7 6 -3 13 5 8 2 8 -9 -2 -9 -7 -17 -10 -17
-7 0 4 -20 -7 -45 -24 -28 -19 -52 -46 -64 -73 -30 -66 -62 -99 -99 -101 -17
-1 -37 -7 -44 -14 -6 -6 -17 -12 -23 -12 -5 0 -23 -7 -39 -15 -45 -24 -57 -7
-49 69 3 33 9 63 14 66 9 7 -32 106 -54 127 -15 16 -16 14 -6 -22 6 -22 20
-50 30 -64 23 -29 25 -48 3 -30 -14 11 -15 7 -13 -37 1 -28 -1 -55 -5 -62 -4
-6 -2 -30 4 -53 13 -49 7 -59 -20 -34 -11 10 -28 19 -38 20 -16 2 -28 6 -110
41 -38 16 -45 17 -38 5 10 -15 85 -51 107 -51 39 0 13 -25 -32 -31 -35 -5
-294 -4 -294 1 0 0 -31 3 -70 5 -38 2 -86 6 -105 9 -19 3 -56 8 -81 10 -26 3
-53 8 -60 10 -8 2 -27 7 -42 10 -18 4 -25 11 -21 19 4 7 4 9 -1 5 -4 -4 -20 1
-35 12 -16 11 -33 20 -39 20 -6 0 -11 7 -11 15 0 8 -5 14 -11 13 -11 -3 -48
50 -74 109 -18 40 -19 64 -1 128 7 28 10 57 6 65 -29 62 -55 110 -60 110 -3 0
-11 14 -19 31 -17 40 -8 46 69 48 67 1 214 37 350 86 52 18 147 52 210 75 128
46 364 160 395 191 11 12 -27 -3 -86 -34 -157 -81 -280 -131 -496 -203 -229
-76 -295 -93 -386 -95 -76 -2 -87 5 -83 55 2 27 7 32 37 37 19 4 60 18 92 31
35 15 75 24 98 23 23 -1 39 3 39 9 0 6 5 4 10 -4 7 -11 10 -11 10 -2 0 7 5 10
10 7 6 -3 10 0 10 7 0 9 3 9 10 -2 7 -11 10 -11 10 -2 0 7 5 10 10 7 6 -3 10
-2 10 4 0 7 8 7 25 1 15 -6 25 -6 25 0 0 5 11 7 25 4 14 -2 25 0 25 6 0 6 5 8
10 5 6 -3 10 -2 10 3 0 5 11 8 25 7 14 -2 25 1 25 7 0 6 6 5 15 -2 8 -7 15 -8
15 -3 0 5 18 9 40 8 22 -1 40 2 40 5 0 3 9 6 20 7 11 1 102 34 204 72 102 39
199 73 217 75 28 3 77 42 66 52 -12 13 -267 -62 -267 -78 0 -11 4 -10 50 8 23
9 43 14 46 11 8 -8 -94 -39 -106 -32 -5 3 -10 2 -10 -2 0 -5 -21 -14 -47 -20
-27 -7 -73 -20 -103 -29 -103 -30 -135 -35 -183 -32 -26 2 -47 0 -47 -4 0 -8
-59 -28 -85 -27 -11 0 -49 -7 -85 -16 -92 -21 -295 -32 -315 -15 -14 11 -16
33 -4 55 3 6 6 26 8 45 1 19 9 49 18 67 8 17 15 37 17 45 1 7 6 19 10 27 7 11
6 12 -5 6 -12 -7 -12 -6 -1 7 7 9 19 38 26 64 16 57 33 107 52 149 7 17 22 52
34 79 11 27 38 77 59 110 20 34 51 88 66 121 16 33 33 61 37 63 4 2 22 29 39
60 40 71 38 69 49 52 7 -12 26 -11 129 9 125 24 363 34 409 18 16 -6 22 -5 22
6 0 9 6 17 13 20 6 2 -14 8 -46 12 -84 11 -359 -13 -467 -40 -43 -11 -57 -12
-66 -2 -13 13 -44 107 -44 131 0 16 82 103 115 122 11 7 18 14 15 17 -3 2 -27
-13 -55 -34z m1049 -593 c-3 -8 -15 -16 -26 -19 -11 -3 -17 -10 -13 -16 4 -7
-3 -11 -16 -11 -12 0 -19 -3 -15 -7 13 -13 30 -9 44 9 15 20 36 14 28 -7 -3
-8 -1 -15 5 -17 15 -5 33 -215 18 -224 -5 -3 -6 -11 -2 -17 5 -9 3 -9 -8 -1
-8 6 -37 11 -66 10 -28 0 -49 3 -46 8 3 5 0 6 -8 4 -27 -10 -48 13 -63 69 -9
32 -21 67 -27 77 -9 16 -8 22 7 33 22 16 55 43 107 90 38 34 92 46 81 19z
m-1392 -641 c73 0 76 -12 6 -27 -61 -13 -91 -11 -105 9 -19 25 -16 35 10 26
12 -4 52 -8 89 -8z"/>
<path d="M1870 2225 c0 -25 -49 -68 -71 -62 -23 6 -26 -8 -3 -17 23 -9 56 -7
50 2 -3 5 4 16 15 25 16 15 28 67 14 67 -3 0 -5 -7 -5 -15z"/>
<path d="M2146 2177 c-33 -43 -34 -82 -4 -90 12 -4 24 -4 27 -2 2 3 -1 5 -7 5
-16 0 -15 52 2 75 8 11 20 16 29 12 10 -4 21 1 27 11 9 16 11 16 25 -2 8 -10
12 -23 9 -28 -3 -5 -3 -21 0 -34 5 -18 12 -24 22 -20 12 5 14 -1 10 -30 -4
-24 -3 -33 5 -28 6 3 15 0 20 -7 6 -10 9 -6 9 13 0 15 -4 29 -9 33 -5 3 -17
29 -27 58 -20 61 -27 67 -76 67 -30 0 -42 -6 -62 -33z"/>
<path d="M2220 2151 c0 -6 -7 -11 -16 -11 -11 0 -14 -5 -10 -16 4 -9 2 -22 -4
-29 -7 -9 -7 -21 0 -39 8 -21 7 -26 -5 -26 -8 0 -15 -4 -15 -8 0 -4 16 -6 36
-4 24 3 39 0 45 -9 6 -9 9 -10 9 -2 0 6 -4 15 -10 18 -5 3 -6 20 -3 38 6 30 6
31 -11 15 -9 -10 -14 -24 -10 -30 4 -7 -1 -5 -12 4 -14 14 -15 21 -6 30 7 7
12 21 12 33 0 16 2 17 10 5 8 -12 10 -11 10 7 0 12 -4 25 -10 28 -5 3 -10 1
-10 -4z"/>
<path d="M1236 2133 c-8 -21 -8 -23 7 -23 6 0 28 -14 47 -30 l35 -29 -25 -9
c-14 -5 -44 -13 -67 -16 -36 -7 -43 -5 -53 13 -13 26 -30 27 -30 3 0 -20 39
-62 58 -62 6 0 36 -11 67 -24 30 -14 55 -20 55 -15 0 5 6 9 13 7 27 -5 57 14
57 35 0 39 -57 106 -122 144 -31 18 -37 19 -42 6z m134 -138 c0 -21 -23 -28
-65 -21 -60 12 -39 31 38 35 18 1 27 -4 27 -14z"/>
<path d="M2046 2123 c-10 -13 -20 -40 -21 -58 -3 -33 -3 -33 25 -24 15 6 36
20 47 32 17 20 16 19 -15 -2 -18 -13 -35 -22 -37 -20 -8 9 8 58 20 61 7 2 10
10 6 20 -5 14 -9 12 -25 -9z"/>
<path d="M1676 2011 c-8 -12 3 -41 15 -41 12 0 12 37 0 45 -5 3 -12 1 -15 -4z"/>
<path d="M1693 1962 c-7 -5 -9 -13 -3 -21 4 -8 6 -21 3 -30 -3 -9 4 -5 16 9
21 25 23 41 5 47 -5 1 -14 -1 -21 -5z"/>
<path d="M1949 1903 c-13 -16 -20 -25 -15 -21 5 4 15 0 21 -9 11 -15 12 -14
11 8 -1 13 5 29 14 36 8 7 10 13 4 13 -6 0 -21 -12 -35 -27z"/>
<path d="M1759 1899 c-12 -7 -12 -9 1 -9 11 0 12 -2 3 -8 -12 -7 -12 -56 0
-68 3 -3 9 10 12 30 4 20 11 36 16 36 14 0 11 17 -4 23 -8 3 -20 1 -28 -4z"/>
<path d="M2070 1894 c-14 -7 -33 -14 -42 -14 -10 0 -18 -5 -18 -11 0 -11 21
-7 73 13 15 6 27 14 27 19 0 12 -10 10 -40 -7z"/>
<path d="M2107 1858 c-18 -13 -43 -21 -68 -21 -21 0 -39 -4 -39 -8 0 -26 113
3 140 35 18 22 0 19 -33 -6z"/>
<path d="M1143 1292 c-24 -2 -43 -8 -43 -13 0 -6 4 -8 8 -5 5 3 36 6 70 7 34
1 62 5 62 9 0 7 -20 8 -97 2z"/>
<path d="M1146 576 c5 -12 53 -36 71 -36 12 0 -11 21 -39 34 -38 19 -39 19
-32 2z"/>
<path d="M987 426 c-10 -24 -9 -26 8 -26 8 0 15 -4 15 -9 0 -5 7 -11 14 -14
10 -4 13 -1 9 9 -3 7 -9 14 -14 14 -5 0 -13 10 -18 22 -7 19 -8 19 -14 4z"/>
<path d="M1081 398 c-11 -18 -10 -23 9 -42 16 -15 24 -17 27 -8 3 6 9 10 14 6
17 -10 9 11 -14 38 -23 26 -23 26 -36 6z"/>
<path d="M921 375 c0 -16 3 -37 9 -45 15 -25 18 -7 5 35 -12 38 -13 39 -14 10z"/>
<path d="M1030 338 c0 -18 12 -33 32 -41 12 -4 15 -2 11 9 -3 8 1 14 8 14 18
0 -1 16 -28 25 -16 4 -23 2 -23 -7z"/>
<path d="M1154 313 c2 -37 10 -49 46 -67 36 -17 50 -3 24 25 -12 14 -20 16
-25 8 -4 -7 -13 2 -24 25 -10 20 -18 36 -20 36 -1 0 -2 -12 -1 -27z"/>
</g>
</svg>
