<?xml version="1.0" standalone="no"?>
<!DOCTYPE svg PUBLIC "-//W3C//DTD SVG 20010904//EN"
 "http://www.w3.org/TR/2001/REC-SVG-20010904/DTD/svg10.dtd">
<svg version="1.0" xmlns="http://www.w3.org/2000/svg"
 width="1434.000000pt" height="1046.000000pt" viewBox="0 0 1434.000000 1046.000000"
 preserveAspectRatio="xMidYMid meet">

<g transform="translate(0.000000,1046.000000) scale(0.100000,-0.100000)"
fill="#000000" stroke="none">
<path d="M6450 9633 c-551 -36 -905 -88 -1300 -188 -850 -217 -1490 -558
-1892 -1009 -315 -354 -523 -863 -604 -1477 -22 -170 -30 -553 -15 -731 63
-747 319 -1417 743 -1940 43 -53 82 -99 88 -103 5 -3 1 -20 -10 -38 -75 -128
-86 -295 -28 -416 79 -165 333 -293 636 -321 109 -10 152 -6 333 25 158 28
197 8 274 -136 120 -222 259 -287 500 -230 193 46 239 41 480 -54 237 -94 357
-113 505 -79 76 17 147 68 170 123 l12 30 121 -6 c155 -7 490 11 593 32 90 18
183 59 232 100 19 15 47 52 64 82 75 132 126 155 430 193 220 27 362 55 461
89 80 28 89 29 322 34 186 4 254 8 300 22 191 54 316 178 332 327 8 79 -14
155 -97 345 l-23 51 46 52 c56 62 111 169 127 247 7 32 10 91 8 133 -4 65 -11
87 -48 160 -57 110 -146 203 -210 220 -59 16 -107 7 -218 -41 -153 -65 -283
-89 -490 -89 -67 0 -115 -5 -137 -14 -38 -16 -72 -63 -81 -112 -5 -29 -15 -36
-102 -77 -127 -60 -226 -87 -342 -94 -210 -13 -308 55 -444 304 -138 255 -285
386 -517 462 l-66 22 8 47 c40 209 -168 361 -421 308 -42 -9 -116 -36 -168
-61 -96 -48 -127 -75 -307 -266 -79 -83 -126 -110 -327 -185 -388 -145 -502
-233 -630 -491 -108 -216 -181 -286 -324 -312 -33 -6 -134 -11 -224 -10 -125
1 -181 -3 -229 -16 -127 -33 -253 -103 -356 -197 l-54 -49 -56 68 c-208 251
-419 648 -544 1021 -241 720 -249 1490 -24 2187 139 430 358 760 668 1007 214
171 600 381 955 521 792 311 1796 436 2945 367 911 -56 1649 -228 2260 -528
495 -243 794 -514 1038 -942 210 -367 317 -762 358 -1319 13 -188 7 -819 -11
-996 -97 -970 -547 -1671 -1330 -2069 -460 -234 -972 -353 -1613 -373 -184 -5
-211 -8 -233 -25 -31 -25 -34 -86 -4 -113 18 -17 37 -18 237 -12 1334 38 2279
523 2748 1409 260 492 380 1126 362 1913 -13 574 -99 1022 -272 1431 -296 696
-863 1169 -1757 1465 -518 172 -1152 276 -1928 319 -164 9 -803 11 -920 3z
m228 -4285 c90 -37 178 -101 231 -168 22 -28 73 -108 112 -178 97 -172 138
-231 200 -286 105 -94 212 -131 374 -130 130 1 223 22 393 91 l112 45 40 -35
c51 -47 76 -59 226 -111 74 -26 141 -57 163 -74 20 -16 63 -70 97 -119 l60
-90 -40 -45 c-23 -24 -46 -55 -53 -69 -6 -13 -39 -81 -73 -151 -48 -102 -72
-139 -120 -187 -33 -33 -72 -64 -87 -67 -15 -4 -39 -15 -52 -26 -57 -44 -190
-72 -530 -113 -280 -34 -406 -90 -477 -213 -56 -98 -109 -134 -229 -157 -92
-18 -481 -37 -558 -27 l-57 7 75 119 c100 159 119 210 119 311 0 113 -29 166
-166 310 -123 130 -152 178 -151 250 0 60 20 102 97 205 105 141 127 254 83
426 -49 193 -47 218 36 406 59 134 45 129 175 76z m2319 -421 c45 -40 66 -101
61 -177 -4 -83 -28 -123 -76 -128 -66 -7 -101 40 -81 109 11 36 10 44 -15 93
-25 49 -26 57 -14 83 26 54 79 63 125 20z m-103 -388 c55 -25 52 -106 -5 -138
-59 -33 -121 31 -97 100 15 44 56 59 102 38z m95 -349 c43 -93 58 -180 41
-240 -32 -117 -189 -190 -412 -190 l-77 0 44 63 c24 34 57 98 74 140 44 109
75 168 104 195 26 25 164 101 183 102 6 0 26 -32 43 -70z"/>
<path d="M6713 5060 c-43 -39 -40 -58 40 -232 41 -90 89 -194 106 -231 l30
-68 -22 -9 c-109 -43 -218 -82 -300 -109 -53 -18 -104 -39 -112 -48 -38 -37
-23 -110 27 -127 21 -7 58 2 192 47 320 110 542 217 561 270 12 35 -8 74 -48
97 -26 14 -31 13 -88 -18 -33 -18 -64 -30 -68 -27 -5 2 -45 87 -90 187 -119
267 -128 282 -171 286 -25 2 -42 -3 -57 -18z"/>
<path d="M8280 4377 c-57 -29 -45 -123 18 -141 48 -13 86 16 90 71 3 34 -1 44
-24 62 -31 24 -49 26 -84 8z"/>
<path d="M7926 4349 c-23 -18 -27 -28 -24 -62 6 -79 98 -104 134 -35 41 79
-41 152 -110 97z"/>
<path d="M8095 4075 c-51 -50 -20 -129 50 -129 45 0 75 31 75 76 0 36 -40 78
-75 78 -14 0 -37 -11 -50 -25z"/>
<path d="M7747 4048 c-24 -19 -38 -64 -28 -91 31 -82 145 -59 145 29 0 60 -70
97 -117 62z"/>
<path d="M7165 8956 c-22 -7 -57 -21 -78 -32 -34 -18 -47 -19 -120 -11 -45 5
-176 9 -292 10 -186 1 -221 -1 -310 -22 -209 -48 -372 -109 -616 -231 l-136
-68 -62 43 c-127 88 -286 156 -436 186 -159 31 -374 2 -509 -69 -82 -43 -195
-145 -234 -211 l-26 -45 -12 30 -12 29 -22 -49 -22 -48 -110 4 -110 5 6 -66 7
-66 -21 24 c-27 31 -26 26 14 -62 46 -101 157 -298 316 -561 180 -298 248
-432 324 -633 111 -295 204 -447 317 -518 196 -125 529 -27 784 230 92 94 135
160 182 287 143 379 112 834 -77 1149 -28 45 -49 83 -48 84 2 2 44 23 93 48
124 62 304 132 402 156 91 24 203 41 203 32 0 -3 -9 -31 -21 -61 -36 -95 -89
-289 -104 -384 -49 -301 23 -560 213 -767 104 -114 251 -190 392 -204 244 -25
520 165 673 463 43 84 88 208 102 285 l7 37 163 0 c89 0 182 3 206 6 l44 6 1
-128 c1 -182 36 -306 122 -438 104 -159 269 -220 448 -165 126 38 227 103 352
223 l62 60 0 -237 0 -237 -22 -5 c-13 -2 -117 -21 -233 -40 -645 -109 -1111
-223 -1392 -340 -279 -117 -462 -286 -523 -481 -81 -261 28 -602 270 -845 243
-245 592 -298 1011 -153 428 147 852 501 1032 859 66 132 130 373 162 610 16
115 24 135 54 135 30 0 251 54 341 82 175 56 300 130 336 199 17 35 15 35 -37
8 -23 -11 -43 -18 -46 -15 -3 3 15 33 40 68 69 97 91 181 66 245 l-11 28 -15
-49 c-14 -46 -15 -47 -33 -31 -15 14 -23 15 -34 6 -11 -9 -18 -3 -37 36 -13
27 -28 48 -34 48 -5 0 -10 -19 -11 -42 0 -32 -7 -50 -27 -71 -37 -39 -126 -90
-205 -119 -64 -23 -265 -73 -295 -73 -13 0 -16 59 -20 393 -4 336 -9 440 -36
727 -43 457 -33 423 -89 316 l-45 -89 -12 47 c-15 59 -63 110 -123 131 -63 21
-224 19 -337 -4 -184 -38 -330 -111 -454 -227 -76 -71 -76 -71 -156 -84 -110
-17 -452 -25 -487 -11 -17 6 -28 18 -28 29 0 44 -64 234 -111 329 -65 132
-151 228 -247 275 -56 28 -79 33 -147 35 -46 2 -97 -3 -120 -11z m156 -363
c33 -38 103 -177 97 -194 -5 -14 -178 75 -220 113 -36 32 -37 34 -20 53 28 33
74 65 92 65 10 0 33 -17 51 -37z m-2220 -108 c33 -9 83 -26 112 -39 l52 -24
-69 -32 c-123 -57 -354 -93 -489 -76 -70 9 -74 27 -20 87 64 70 136 97 267 98
49 1 114 -6 147 -14z m1849 -205 c36 -36 102 -85 145 -110 86 -48 261 -122
337 -142 56 -14 59 -27 32 -119 -43 -147 -166 -314 -275 -373 -119 -65 -241
-20 -342 126 -106 155 -114 343 -25 627 31 100 33 103 47 80 8 -13 44 -53 81
-89z m2309 -77 c-156 -292 -239 -414 -354 -521 -80 -75 -186 -136 -225 -130
-55 8 -117 193 -107 320 8 101 25 147 56 155 237 56 535 171 641 247 19 14 36
25 38 26 2 0 -20 -44 -49 -97z m-3661 -88 c81 -123 116 -227 132 -394 17 -180
-14 -392 -79 -536 -47 -104 -195 -231 -330 -285 -77 -30 -113 -27 -147 13 -37
43 -101 180 -169 362 -60 161 -144 329 -275 550 -46 77 -84 142 -85 145 -2 3
47 4 108 2 131 -5 307 17 435 54 48 13 146 53 217 88 72 36 135 65 140 65 6 1
30 -28 53 -64z m3587 -1462 c-67 -391 -133 -538 -334 -746 -273 -283 -649
-469 -945 -468 -127 0 -211 24 -293 85 -149 110 -268 350 -247 501 8 65 33
111 86 161 178 172 547 288 1428 450 157 29 291 53 298 53 9 1 11 -9 7 -36z"/>
<path d="M3542 3274 c-66 -34 -104 -106 -157 -296 -19 -68 -44 -154 -57 -193
-22 -67 -24 -70 -68 -83 -29 -9 -128 -16 -284 -21 l-238 -7 -24 -27 c-28 -33
-31 -73 -7 -106 l16 -24 236 6 c130 4 249 10 265 13 24 6 28 4 23 -8 -3 -9
-18 -69 -33 -134 -31 -136 -38 -300 -16 -372 30 -99 123 -159 235 -150 84 7
151 42 240 128 l73 69 -9 -70 c-19 -135 34 -254 123 -279 129 -36 266 43 404
235 14 18 14 17 7 -15 -4 -19 -23 -88 -42 -154 l-34 -118 -90 -62 c-276 -188
-419 -437 -384 -668 18 -122 60 -196 126 -224 118 -51 260 48 318 220 8 27 29
113 45 190 34 162 106 415 123 433 7 7 77 41 157 76 80 36 161 72 180 81 l36
18 37 -36 c43 -40 116 -66 188 -66 65 0 197 26 225 45 30 19 40 57 24 94 -19
48 -49 54 -142 30 -83 -22 -146 -21 -173 1 -12 10 -1 25 65 87 90 84 136 164
146 250 8 63 -26 187 -56 203 -35 19 -86 10 -158 -25 -143 -72 -221 -213 -210
-380 l4 -63 -36 -18 c-48 -23 -232 -104 -237 -104 -2 0 -2 4 1 9 4 5 33 114
65 243 82 325 122 398 257 459 72 33 94 70 71 118 -19 41 -51 50 -137 40 -185
-23 -315 -137 -400 -351 -82 -206 -141 -297 -232 -357 -67 -46 -79 -48 -103
-24 -14 14 -16 28 -11 77 8 79 57 274 102 404 40 116 39 144 -6 167 -66 34
-74 28 -248 -204 -133 -177 -200 -250 -259 -280 -153 -77 -182 72 -86 431 l26
97 65 38 c85 50 147 120 193 218 89 191 90 374 4 431 -37 24 -104 28 -143 8z
m33 -262 c-8 -35 -24 -80 -35 -100 -23 -42 -21 -31 15 86 15 46 28 82 30 80 2
-2 -2 -32 -10 -66z m1341 -907 c-7 -27 -82 -125 -96 -125 -34 0 19 133 67 168
l28 21 3 -21 c2 -11 1 -30 -2 -43z m-822 -780 c-14 -55 -36 -151 -49 -213 -38
-179 -84 -259 -135 -232 -29 16 -40 43 -40 102 0 130 60 266 167 377 40 41 74
73 77 70 3 -2 -6 -49 -20 -104z"/>
<path d="M10452 3214 c-42 -29 -45 -59 -17 -139 30 -87 34 -230 10 -334 -24
-102 -27 -103 -70 -25 -50 91 -63 104 -98 104 -19 0 -36 8 -49 25 -59 75 -234
41 -316 -62 -70 -89 -107 -202 -158 -471 -14 -79 -30 -140 -34 -135 -4 4 -24
63 -44 131 -55 185 -96 256 -170 291 -85 42 -172 17 -250 -70 -24 -27 -51 -49
-60 -49 -30 0 -65 -23 -76 -50 -9 -21 -7 -64 6 -186 10 -87 18 -223 18 -301 1
-129 -1 -144 -20 -170 -28 -37 -43 -35 -71 6 -30 44 -60 146 -89 301 -25 138
-39 160 -99 160 -37 0 -52 -15 -84 -86 -25 -56 -44 -69 -106 -78 -46 -6 -75
-35 -75 -75 0 -14 11 -76 25 -136 31 -139 33 -227 4 -275 -39 -65 -79 -78
-118 -36 -27 29 -61 133 -61 186 0 75 -44 119 -103 105 -47 -12 -52 -28 -57
-189 -5 -122 -10 -158 -25 -190 -27 -53 -45 -63 -85 -46 -62 26 -112 138 -132
298 -10 80 -15 96 -36 113 -27 21 -63 25 -92 9 -24 -13 -36 -57 -49 -178 -5
-51 -13 -97 -16 -102 -12 -19 -33 -10 -62 26 -69 87 -82 97 -115 90 -43 -8
-56 -22 -64 -65 -12 -67 -66 -101 -159 -101 -55 0 -127 38 -139 72 -17 48 14
94 82 126 51 24 69 26 170 27 101 0 115 2 128 19 25 35 16 99 -17 116 -68 37
-201 30 -314 -15 -39 -16 -63 -21 -69 -15 -20 20 -69 9 -128 -27 -77 -48 -153
-56 -216 -24 -23 12 -48 21 -57 21 -9 0 -23 7 -31 15 -37 37 -106 27 -123 -17
-5 -13 -18 -73 -30 -135 -11 -61 -30 -137 -42 -170 -25 -65 -76 -123 -108
-123 -29 0 -71 22 -101 55 l-24 26 17 47 c93 241 134 401 143 557 17 260 -78
437 -261 490 -45 14 -57 13 -102 0 -135 -40 -207 -232 -173 -460 6 -44 14 -97
17 -117 5 -36 4 -38 -21 -38 -112 0 -237 -150 -281 -337 -24 -100 -17 -249 14
-318 26 -59 91 -129 145 -157 50 -25 132 -34 182 -18 63 20 140 77 192 145
l49 64 24 -26 c62 -67 193 -84 287 -37 29 14 61 37 71 50 l19 25 6 -28 c3 -16
8 -48 12 -73 3 -25 13 -53 22 -62 22 -26 78 -23 107 6 26 26 30 51 44 289 5
76 10 139 12 141 2 2 46 6 97 8 l92 5 0 -31 c1 -43 30 -105 70 -144 96 -97
265 -116 408 -46 53 26 53 26 75 6 35 -31 62 -42 107 -42 47 0 105 22 136 51
l22 20 22 -33 c90 -130 210 -179 316 -128 40 20 84 71 98 117 l7 21 55 -29
c64 -33 89 -35 162 -14 156 47 201 209 144 517 -9 45 -8 47 20 59 16 6 30 10
31 8 2 -2 11 -38 21 -80 33 -145 109 -265 182 -289 71 -24 168 11 217 78 14
18 33 61 43 96 16 55 22 64 48 72 59 17 60 38 10 259 -52 230 -52 243 22 323
37 42 43 45 66 35 32 -15 82 -110 108 -208 62 -233 102 -305 167 -305 62 0
121 86 158 232 9 35 21 80 26 101 l10 38 44 -40 c79 -73 215 -99 284 -54 23
15 24 14 16 -3 -4 -11 -21 -59 -37 -109 -93 -290 -97 -558 -10 -718 81 -150
270 -221 414 -155 76 35 150 115 198 212 57 116 74 191 67 301 -9 161 -71 299
-278 621 l-78 121 34 106 c79 241 82 399 13 575 -28 72 -67 90 -116 56z m-258
-531 c12 -76 7 -241 -10 -282 -29 -72 -116 -78 -145 -10 -16 40 -6 129 22 187
22 45 103 142 119 142 4 0 10 -17 14 -37z m-3858 -302 c73 -44 112 -190 94
-349 -16 -145 -75 -381 -91 -365 -11 12 -98 295 -115 378 -18 81 -20 234 -5
284 22 70 60 87 117 52z m4284 -342 c21 -41 53 -118 71 -169 28 -86 31 -103
27 -190 -3 -81 -9 -104 -36 -161 -56 -117 -137 -171 -228 -154 -54 10 -128 88
-149 156 -49 166 -21 358 97 663 l51 129 63 -99 c36 -54 82 -133 104 -175z
m-4494 -257 c6 -4 17 -24 23 -45 7 -21 35 -92 61 -157 l48 -119 -35 -58 c-60
-101 -115 -144 -183 -145 -67 -1 -104 47 -121 154 -21 130 33 315 104 359 32
19 83 25 103 11z"/>
<path d="M3985 3125 c-30 -29 -32 -64 -5 -107 12 -19 20 -51 20 -75 0 -37 -7
-50 -51 -99 -45 -50 -50 -60 -45 -88 21 -103 120 -84 203 38 41 60 57 117 50
178 -7 60 -44 145 -71 163 -31 22 -74 18 -101 -10z"/>
<path d="M8695 2745 c-30 -29 -32 -64 -5 -107 12 -19 20 -51 20 -75 0 -37 -7
-50 -51 -99 -45 -50 -50 -60 -45 -88 21 -103 120 -84 203 38 41 60 57 117 50
178 -7 60 -44 145 -71 163 -31 22 -74 18 -101 -10z"/>
</g>
</svg>
