

<?xml version="1.0" encoding="UTF-8"?>
<svg version="1.1" xmlns="http://www.w3.org/2000/svg" width="1792" height="1780">
<motion.path d="M0 0 C0.92216309 0.30115723 1.84432617 0.60231445 2.79443359 0.91259766 C42.8787441 14.0054629 81.33452888 33.97035066 113 62 C114.33998047 63.17369141 114.33998047 63.17369141 115.70703125 64.37109375 C134.08029077 80.65584143 148.94104427 99.6628437 161 121 C161.36303223 121.63035156 161.72606445 122.26070312 162.10009766 122.91015625 C181.01425931 155.94945054 190.72099651 193.7226078 196.25 231.125 C196.47671387 232.63876221 196.47671387 232.63876221 196.70800781 234.18310547 C199.71310514 255.97514872 200.37907828 277.86757706 200.31805801 299.8393364 C200.31240135 301.91113106 200.30959088 303.98291748 200.30697632 306.05471802 C200.26770396 327.4883261 199.72323759 348.72155138 197 370 C196.91514343 370.67411926 196.83028687 371.34823853 196.74285889 372.04278564 C188.46202724 437.4030995 163.50979854 505.97391032 111 549 C110.15695312 549.73089844 109.31390625 550.46179687 108.4453125 551.21484375 C74.74232721 580.12268885 33.78120032 598.22125793 -9 609 C-10.04430176 609.26409668 -11.08860352 609.52819336 -12.16455078 609.80029297 C-46.29648319 618.26652011 -81.34546746 621.8489157 -116.4375 622.92089844 C-118.03405256 622.97018226 -119.630465 623.02461026 -121.2265625 623.08691406 C-123.04632255 623.15738516 -124.86693458 623.2048959 -126.6875 623.25 C-127.61949219 623.27578125 -128.55148437 623.3015625 -129.51171875 623.328125 C-132.66665638 622.91208927 -134.48791634 621.93776785 -137 620 C-137.8828125 618.1328125 -137.8828125 618.1328125 -138.125 616.125 C-138.28355469 615.13886719 -138.28355469 615.13886719 -138.4453125 614.1328125 C-137.70612328 610.5924852 -135.77444086 609.22801121 -133 607 C-130.13331341 606.24002062 -127.33400114 606.21078571 -124.37890625 606.1796875 C-123.11332382 606.13621941 -123.11332382 606.13621941 -121.82217407 606.09187317 C-120.01134384 606.03140871 -118.20014423 605.98128466 -116.38876343 605.94052124 C-111.60885326 605.82970862 -106.83220711 605.63407131 -102.0546875 605.44921875 C-101.10198471 605.41429825 -100.14928192 605.37937775 -99.16770935 605.34339905 C-37.1947889 602.9902928 30.23452922 587.29926169 81 550 C81.54479004 549.60248535 82.08958008 549.2049707 82.65087891 548.79541016 C109.51498717 529.03888188 131.63260769 505.13185544 148 476 C148.4007373 475.29423828 148.80147461 474.58847656 149.21435547 473.86132812 C186.64047097 407.39745726 190.61787291 321.35257198 182 247 C181.87109375 245.84790039 181.7421875 244.69580078 181.609375 243.50878906 C175.65430609 191.88440697 160.04483457 141.89452248 127 101 C126.53352051 100.41927734 126.06704102 99.83855469 125.58642578 99.24023438 C73.37913672 34.69835654 -16.67668065 7.68637802 -142.42486572 -11.99938965 C-143.60674469 -12.12344177 -143.60674469 -12.12344177 -144.8125 -12.25 C-145.53435486 -12.3272229 -146.25620972 -12.4044458 -146.99993896 -12.48400879 C-176.58376282 -15.59738113 -206.1862772 -16.35523378 -235.91040039 -16.31567383 C-239.66605645 -16.31105333 -243.4213877 -16.3179509 -247.17700195 -16.33618164 C-267.53129162 -16.43387198 -287.76958656 -16.14130584 -308.07421875 -14.62109375 C-308.89784975 -14.55952906 -309.72148075 -14.49796436 -310.57007027 -14.43453407 C-396.29203821 -7.86882802 -486.64373559 14.13830623 -586 87 C-587.00625812 87.94297763 -588.01277221 88.88568219 -589.01953125 89.828125 C-631.66563225 130.38259162 -650.83288181 199.87728789 -653.10714722 256.6759491 C-653.16277806 259.39888873 -653.19022789 262.12027567 -653.203125 264.84375 C-653.21018463 265.84278351 -653.21724426 266.84181702 -653.22451782 267.87112427 C-653.41824755 299.05305571 -653.41824755 299.05305571 -650 330 C-649.80132324 331.2060791 -649.60264648 332.4121582 -649.39794922 333.65478516 C-643.25779267 370.05878447 -632.17350169 404.82066274 -616 438 C-615.56993652 438.89138672 -615.13987305 439.78277344 -614.69677734 440.70117188 C-599.17329756 473.25926603 -599.17329756 473.25926603 -575 499 C-574.14341797 498.1646875 -574.14341797 498.1646875 -573.26953125 497.3125 C-555.42506946 480.51771243 -535.12426513 473.28042527 -510.8125 473.9375 C-496.39613886 474.27987947 -481.79562938 474.05917416 -470.48046875 463.7265625 C-464.29725289 456.51552975 -460.36378075 447.80612433 -456.4375 439.25 C-453.31089025 432.48075097 -450.25567011 426.39981296 -445 421 C-444.28585937 420.25878906 -443.57171875 419.51757812 -442.8359375 418.75390625 C-436.31672778 412.45766624 -428.99726754 408.10066713 -421 404 C-419.88238281 403.42636719 -418.76476562 402.85273437 -417.61328125 402.26171875 C-409.85384052 398.481924 -401.90911434 395.42075709 -393.8125 392.4375 C-376.01267991 385.84263717 -364.23219453 378.71384738 -352.15625 363.59765625 C-341.78061336 351.09802153 -326.90480867 343.62058506 -311 341 C-298.66112614 339.93185868 -288.62939992 341.00670697 -278.98046875 349.1015625 C-273.84194274 354.02725015 -271.21374105 358.56801644 -270.8671875 365.75390625 C-270.87105469 367.14416016 -270.87105469 367.14416016 -270.875 368.5625 C-270.87242187 369.49191406 -270.86984375 370.42132812 -270.8671875 371.37890625 C-270.98747753 373.75286528 -271.38885256 375.71775575 -272 378 C-271.44892578 378.10159424 -270.89785156 378.20318848 -270.33007812 378.30786133 C-264.66225854 379.44612034 -259.69867973 381.17973255 -254.5 383.6875 C-253.39035889 384.21706299 -253.39035889 384.21706299 -252.25830078 384.75732422 C-246.57807497 387.54807103 -241.74012109 390.7944032 -237 395 C-236.41476562 395.44472656 -235.82953125 395.88945313 -235.2265625 396.34765625 C-224.93668312 404.33278889 -218.90069997 416.30216693 -212.86865234 427.55053711 C-206.2512145 439.69700479 -198.41427847 450.28016128 -185 455 C-169.32090714 459.01093073 -153.23543253 453.67852031 -138.80078125 447.72900391 C-137.18491261 447.07485752 -135.54653614 446.47697323 -133.90625 445.88671875 C-129.97665352 444.2975437 -127.62850583 443.28383814 -125.71875 439.3828125 C-124.71420621 436.48409513 -124.71420621 436.48409513 -124.109375 433.62109375 C-122.53606404 429.90386961 -120.50734036 428.93491964 -117 427 C-114.34013604 426.5767253 -112.04943073 426.35318703 -109.390625 426.3125 C-107.9073045 426.25570496 -106.42398757 426.19881678 -104.94067383 426.1418457 C-104.17381256 426.11933746 -103.40695129 426.09682922 -102.61685181 426.07363892 C-84.11122517 425.49788074 -68.11801571 423.5084251 -51.2578125 415.48828125 C-44.77057384 412.52468661 -37.81836569 411.79972611 -30.8203125 413.54296875 C-19.30943446 418.46629611 -12.83562276 431.12574589 -8 442 C-3.84669045 453.59604026 -6.26261511 466.78943258 -11.25 477.74609375 C-14.62824308 484.36487979 -18.83029532 489.68596346 -24 495 C-23.78085938 495.54785156 -23.56171875 496.09570312 -23.3359375 496.66015625 C-22.65122112 498.37194721 -21.96776296 500.08424168 -21.28515625 501.796875 C-20.34324258 504.14450179 -19.39255515 506.48749061 -18.43359375 508.828125 C-18.16562988 509.48675537 -17.89766602 510.14538574 -17.62158203 510.82397461 C-17.09088629 512.12829471 -16.5568186 513.431249 -16.01904297 514.73266602 C-12.27624837 523.96773737 -11.10167463 534.76125952 -14.5 544.3125 C-19.45424526 554.84242895 -28.37870151 561.66372706 -38.85546875 566.25 C-51.29420955 570.62689198 -64.82641993 571.11216401 -77.89453125 570.9765625 C-78.92036316 570.96743835 -78.92036316 570.96743835 -79.96691895 570.95812988 C-83.36827889 570.92280507 -86.76331551 570.85703891 -90.16357422 570.75097656 C-96.98991536 570.62347934 -102.05720475 571.00053309 -108.25073242 573.86010742 C-121.20865592 579.23268044 -136.09367388 580.29636566 -149.875 582.0625 C-172.39295015 583.63615735 -172.39295015 583.63615735 -191.578125 593.68359375 C-193.75419372 596.52966258 -195.68273905 599.48986328 -197.57421875 602.53125 C-204.79287406 613.70418037 -215.30485081 617.90544642 -228.01953125 620.65234375 C-244.67257476 623.52211351 -261.78858969 623.1377386 -278.625 623.0625 C-280.61458219 623.0574676 -282.60416563 623.05290782 -284.59375 623.04882812 C-289.39586518 623.03797724 -294.19791809 623.0208118 -299 623 C-299.28746094 623.76183594 -299.57492187 624.52367187 -299.87109375 625.30859375 C-302.62999015 631.88603188 -306.42609476 634.61349126 -312.81640625 637.23828125 C-332.81011514 644.21283086 -353.90098847 636.11811027 -372.37597656 628.61767578 C-389.12719803 621.91667508 -401.7465622 621.51076422 -419.06298828 625.62719727 C-429.33805779 627.98383487 -438.27636486 627.38331547 -448 623 C-457.19922359 616.71791546 -463.03580705 607.83838349 -468.125 598.125 C-470.64922631 593.34651811 -473.11205396 590.44397302 -478 588 C-485.44421171 587.37159252 -492.51657342 588.1440368 -499.8125 589.5 C-525.41036291 594.118476 -554.06986474 589.42298462 -576 575 C-585.46390293 567.91446011 -591.92593662 559.80620693 -594 548 C-594.95671692 537.49944841 -594.29458935 526.37998861 -588.23828125 517.3828125 C-586.71524442 515.11862675 -586.71524442 515.11862675 -587.578125 512.97265625 C-589.21448892 510.70242609 -590.93198181 508.56649499 -592.75 506.4375 C-604.06321758 492.75978357 -614.14680526 478.38025596 -623 463 C-623.47646973 462.18257324 -623.95293945 461.36514648 -624.44384766 460.52294922 C-645.74468127 423.75356955 -658.63341383 383.44639457 -665.75 341.6875 C-665.94891846 340.52081787 -666.14783691 339.35413574 -666.3527832 338.15209961 C-669.30581603 319.9106926 -670.35012513 301.94555558 -670.31567383 283.47583008 C-670.31252555 279.96598854 -670.33603582 276.4570032 -670.36132812 272.94726562 C-670.42217659 251.51858809 -668.49652828 230.33033079 -664.25 209.3125 C-663.99395996 208.0241626 -663.73791992 206.7358252 -663.47412109 205.40844727 C-661.032378 193.38026169 -657.82558011 181.65696039 -654 170 C-653.70931641 169.10087891 -653.41863281 168.20175781 -653.11914062 167.27539062 C-645.61654931 144.40325244 -635.3403386 122.38774422 -621 103 C-620.55479004 102.38946777 -620.10958008 101.77893555 -619.65087891 101.14990234 C-597.55348413 71.0840283 -567.86804949 48.17239754 -535.38769531 30.31494141 C-533.32007331 29.17626941 -531.26397507 28.0201192 -529.2109375 26.85546875 C-510.09790133 16.26348144 -489.5592069 8.28952868 -469 1 C-467.96746094 0.63165039 -466.93492187 0.26330078 -465.87109375 -0.11621094 C-385.14241364 -28.66840976 -298.61776751 -36.32172049 0 0 Z M-278 393 C-279.46237616 396.37326229 -280.91917164 399.74890724 -282.375 403.125 C-282.7875 404.07632812 -283.2 405.02765625 -283.625 406.0078125 C-288.99542176 418.48105015 -290.82978143 428.35572972 -287 441.75 C-283.97647104 452.5356804 -282.7597739 465.38924933 -287.25390625 475.94140625 C-291.22344615 482.89476137 -295.93927085 489.39190792 -300.64306641 495.86279297 C-304.16913748 501.41645007 -304.87204978 506.5565211 -304 513 C-301.82088588 520.19107661 -296.18400405 525.04432636 -290.95263672 530.12109375 C-281.4216317 539.37312931 -272.99889712 549.04080672 -272.625 562.875 C-272.64937636 578.53212078 -281.61956649 590.37200749 -289.88598633 603.05151367 C-291.16544602 604.91529886 -291.16544602 604.91529886 -291 607 C-250.525034 609.99819767 -250.525034 609.99819767 -213.6640625 597.87890625 C-210.79720835 594.64191835 -208.71370996 590.85262815 -206.47338867 587.16894531 C-203.15707775 581.88132233 -199.68243777 578.71558676 -194 576 C-193.24203125 575.62746094 -192.4840625 575.25492188 -191.703125 574.87109375 C-178.20929213 568.89588345 -162.8291307 567.9610992 -148.3269043 566.34863281 C-138.94790029 565.29491599 -129.79043441 563.92641695 -120.63671875 561.5859375 C-119.46771782 561.29404037 -119.46771782 561.29404037 -118.27510071 560.99624634 C-113.52180054 559.70815206 -110.04156869 557.90567401 -106 555 C-104.88625 554.566875 -103.7725 554.13375 -102.625 553.6875 C-89.44463561 547.55181313 -83.57585267 534.55638012 -77.8515625 522.01171875 C-70.39407211 505.69703605 -70.39407211 505.69703605 -65 503 C-66.60484341 498.38940014 -69.02111932 494.54969096 -71.6875 490.5 C-72.30141602 489.52353516 -72.30141602 489.52353516 -72.92773438 488.52734375 C-79.48049391 478.56231773 -88.62942555 476.10513326 -99.57617188 472.48242188 C-108.69508589 469.36177595 -116.67372189 465.34944103 -124 459 C-125.02996094 459.44730469 -126.05992187 459.89460938 -127.12109375 460.35546875 C-134.70298543 463.59368993 -142.26746333 466.56414886 -150.1875 468.875 C-150.88093506 469.07762451 -151.57437012 469.28024902 -152.28881836 469.48901367 C-168.39059924 474.03376045 -186.60183462 473.9384493 -201.6875 466.3125 C-216.3486198 457.65865851 -223.78225983 444.26730031 -231.625 429.6875 C-235.47982782 422.53503976 -239.34752215 415.91458872 -245 410 C-245.66 409.30003906 -246.32 408.60007812 -247 407.87890625 C-254.72160304 400.37021506 -267.01533541 393 -278 393 Z M-39 505 C-41.36673715 506.14529365 -43.71594282 507.31455735 -46.0625 508.5 C-47.04766602 508.97179687 -47.04766602 508.97179687 -48.05273438 509.453125 C-57.4674908 514.27644849 -61.76135733 521.63453198 -65.4375 531.25 C-68.48903796 538.82742194 -71.76015281 545.38243312 -76.56640625 552.015625 C-78.09760118 553.72709131 -78.09760118 553.72709131 -78 555 C-63.4773255 555.42783656 -47.75552912 554.84964701 -36 545.3125 C-31.90780322 541.32315916 -29.55412084 537.75013919 -29 532 C-29.31930795 523.47329502 -31.81546554 512.63744877 -37.66015625 506.16015625 C-38.10230469 505.77730469 -38.54445313 505.39445313 -39 505 Z " fill="#000000" transform="translate(1112,501)"/>
<motion.path d="M0 0 C13.69803201 10.65127263 20.68115835 28.39464271 25.8125 44.375 C26.0197168 45.01679199 26.22693359 45.65858398 26.44042969 46.31982422 C27.83873689 50.88613434 28.51236073 55.27042346 29 60 C45.01939948 60.30589335 60.91874355 60.35213926 76.875 58.75 C78.06770508 58.64067139 79.26041016 58.53134277 80.48925781 58.41870117 C81.58334961 58.29599854 82.67744141 58.1732959 83.8046875 58.046875 C84.76358887 57.94213867 85.72249023 57.83740234 86.71044922 57.72949219 C89.14800136 57.22582716 89.14800136 57.22582716 90.19287109 55.078125 C90.5923999 54.04945313 90.5923999 54.04945313 91 53 C106.57472764 36.04085212 131.18707048 26.2006805 154 25 C164.20959153 24.59161634 173.73196645 24.27020525 182 31 C185.54625166 34.74326564 186.27352576 36.82057728 188 42 C190.64 37.05 193.28 32.1 196 27 C196.66 27.33 197.32 27.66 198 28 C198.45483398 30.33892822 198.45483398 30.33892822 198.74609375 33.49316406 C198.91644638 35.26797653 198.91644638 35.26797653 199.09024048 37.0786438 C199.20483612 38.3778476 199.31943176 39.67705139 199.4375 41.015625 C199.5632395 42.37057668 199.68966605 43.72546475 199.81674194 45.08029175 C200.15461687 48.71563719 200.47935415 52.3520371 200.80010223 55.98892975 C200.99979476 58.24767845 201.2022927 60.50615948 201.40557861 62.7645874 C204.05280672 92.22961953 206.14372356 121.52864993 206.1875 151.125 C206.18876892 151.95114807 206.19003784 152.77729614 206.19134521 153.628479 C206.18979031 162.46009161 206.04805585 171.21755731 205 180 C209.34465446 179.04528705 213.67665523 178.04687654 218 177 C218.71172363 176.82839355 219.42344727 176.65678711 220.15673828 176.47998047 C241.42528769 171.32144251 241.42528769 171.32144251 258 158 C258.87208661 154.95500487 259.11456367 152.15766107 259 149 C260.859375 149.24609375 260.859375 149.24609375 263 150 C264.265625 151.84765625 264.265625 151.84765625 265.25 154.0625 C265.58515625 154.79597656 265.9203125 155.52945313 266.265625 156.28515625 C266.50796875 156.85105469 266.7503125 157.41695312 267 158 C267.33 157.34 267.66 156.68 268 156 C269.32 156.66 270.64 157.32 272 158 C272.99 155.36 273.98 152.72 275 150 C278.42911733 153.42911733 278.43153925 154.01138238 278.4375 158.625 C278.13858988 168.98721746 273.0309673 175.88529962 267 184 C268.11375 183.34 269.2275 182.68 270.375 182 C273.75 180 273.75 180 276 180 C275.57416458 184.82613481 273.47702713 187.80426046 270 191 C253.26148713 204.20177791 224.14926053 213 203 213 C202.97873047 214.28003906 202.97873047 214.28003906 202.95703125 215.5859375 C201.7052295 248.40344278 192.74709463 283.06613171 172 309 C171.56429687 309.54849609 171.12859375 310.09699219 170.6796875 310.66210938 C160.65619945 323.162161 149.59789951 334.10246078 136.75585938 343.68847656 C135.61156887 344.54319411 134.47197166 345.40424261 133.33789062 346.27246094 C103.69088059 368.95933062 63.65714721 385.51959451 25.75390625 380.5 C2.32770021 376.81666932 -16.6456958 364.39144786 -30.56640625 345.46484375 C-43.95537195 326.63092808 -52.14275338 303.20986164 -48.69091797 279.9140625 C-45.1134201 261.1264875 -33.5698142 246.64732419 -18 236 C2.94173052 222.45966124 27.03895866 215.16526729 51 209 C52.22605957 208.68353516 53.45211914 208.36707031 54.71533203 208.04101562 C87.59623217 199.68412233 121.09026129 193.68927557 154.5 187.875 C155.64895752 187.67495361 156.79791504 187.47490723 157.98168945 187.26879883 C162.08498533 186.57445434 165.82585858 186 170 186 C170 171.15 170 156.3 170 141 C165.545 145.455 165.545 145.455 161 150 C158.60118416 151.99142201 156.26615173 153.8709293 153.75 155.6875 C153.11449219 156.14954834 152.47898437 156.61159668 151.82421875 157.08764648 C138.64034926 166.4071089 125.0381644 170.43700104 109 169 C97.98053072 166.99523697 89.66985399 159.2604435 83.37109375 150.28515625 C74.88218064 136.13696774 71.79957502 121.86947695 71.9375 105.5625 C71.94201172 104.54478516 71.94652344 103.52707031 71.95117188 102.47851562 C71.96287563 99.98561491 71.97927152 97.49283926 72 95 C71.25540527 95.03552979 70.51081055 95.07105957 69.74365234 95.10766602 C42.42595656 96.37280439 42.42595656 96.37280439 31 95 C30.98582031 95.54785156 30.97164062 96.09570312 30.95703125 96.66015625 C29.53329616 120.32494219 14.24266488 143.65242677 -3 159 C-17.07945701 170.53414801 -32.01253906 175.17309528 -50 174 C-67.30307212 171.49505404 -81.66652607 161.33155925 -92.3125 147.8125 C-108.55788088 126.04017218 -111.8734232 101.38720907 -108.41015625 74.73828125 C-106.02378611 60.14915114 -100.72786858 45.9656758 -96 32 C-118.30439175 35.95798183 -138.28334759 42.94389237 -158.4609375 53.2734375 C-162 55 -162 55 -164 55 C-163.5978125 55.69609375 -163.5978125 55.69609375 -163.1875 56.40625 C-161.76088499 58.92159751 -160.37593074 61.45651265 -159 64 C-158.53400391 64.86069092 -158.53400391 64.86069092 -158.05859375 65.73876953 C-140.35984957 98.76774948 -138.71199498 136.61639188 -148.81347656 172.47192383 C-156.21110997 196.6434487 -173.01994496 215.1772031 -194.98828125 227.22265625 C-209.95226641 235.14841328 -225.14594729 239.36956922 -242 235 C-254.66806602 230.86812183 -263.33779654 219.10955168 -269.23046875 207.78515625 C-274.15477288 197.97042625 -278.25573519 187.89970373 -282.11889648 177.63232422 C-290.39433986 155.66245163 -301.48514125 135.87969802 -313.75390625 115.93359375 C-322.38709255 101.89757314 -330.63152401 87.63148586 -338.5625 73.1875 C-339.03921143 72.3227002 -339.51592285 71.45790039 -340.00708008 70.56689453 C-346.86597173 57.94770573 -346.86597173 57.94770573 -349 52 C-348.67 51.34 -348.34 50.68 -348 50 C-347.01 50.66 -346.02 51.32 -345 52 C-345.33 48.7 -345.66 45.4 -346 42 C-338.27648701 41.88472369 -330.69321161 42.32473378 -323 43 C-322.78537109 41.83404297 -322.78537109 41.83404297 -322.56640625 40.64453125 C-322.02615996 38.12213994 -321.24553285 36.24195912 -320 34 C-317 35 -317 35 -316 37 C-315.6596875 36.443125 -315.319375 35.88625 -314.96875 35.3125 C-305.73324097 20.77148578 -291.8645776 10.85896855 -274.953125 7.02734375 C-249.07459961 1.73602 -223.39013205 7.14996476 -201 21 C-198.32211012 22.8867747 -195.70400137 24.79872171 -193.1484375 26.84765625 C-190.27860072 28.38693234 -189.1092966 27.84730018 -186 27 C-184.18353913 26.18339756 -182.39547541 25.30203242 -180.6328125 24.375 C-179.59423096 23.8375415 -178.55564941 23.30008301 -177.4855957 22.74633789 C-176.37659912 22.17004639 -175.26760254 21.59375488 -174.125 21 C-145.97648733 6.70112838 -116.93390305 -3.45807462 -85.0625 -3.25 C-83.98740677 -3.24983383 -83.98740677 -3.24983383 -82.89059448 -3.24966431 C-73.68797089 -3.24800288 -64.70797789 -2.79847528 -55.5625 -1.6875 C-47.51320904 -0.73199018 -42.84841307 -1.38416959 -36 -6 C-23.25989684 -10.81346003 -10.90845554 -7.22908049 0 0 Z M-25 27 C-27.09634192 28.09108647 -27.09634192 28.09108647 -29.125 29.75 C-30.18074219 30.54664063 -30.18074219 30.54664063 -31.2578125 31.359375 C-33.25756727 32.98294589 -33.25756727 32.98294589 -34 36 C-27.41157204 42.58842796 -19.32125387 46.06413682 -11 50 C-9.8051038 46.41531139 -10.53659577 45.27842458 -12.15625 42.00390625 C-12.4759375 41.38386719 -12.795625 40.76382813 -13.125 40.125 C-13.42148437 39.51269531 -13.71796875 38.90039062 -14.0234375 38.26953125 C-16.56956941 33.2312109 -19.42916161 28.85694613 -25 27 Z M-284 52 C-285.319018 54.66533035 -285.319018 54.66533035 -286 57 C-269.29103183 62.14122098 -246.28443575 58.48723279 -230.65625 50.85546875 C-229.06870443 49.96404931 -227.52573875 48.9935043 -226 48 C-234.1990905 40.7754784 -248.05817905 39.2392077 -258.55078125 39.640625 C-269.05798867 40.73537368 -276.90924658 43.92441971 -284 52 Z M-66 52 C-72.86216503 73.67467012 -79.65381281 95.42630132 -70.32421875 117.484375 C-65.68875906 126.29038103 -57.60159468 135.61120188 -48 139 C-39.23945541 140.37121568 -33.02443006 137.4466651 -25.91015625 132.56640625 C-14.07301372 123.16701188 -6.1903696 107.55119791 -3 93 C-3 91.68 -3 90.36 -3 89 C-3.57741943 88.79955078 -4.15483887 88.59910156 -4.74975586 88.39257812 C-48.83274097 72.98951073 -48.83274097 72.98951073 -63 55 C-63.99293204 53.99298165 -64.9920419 52.99197806 -66 52 Z M177 62 C176.22140625 62.4846875 175.4428125 62.969375 174.640625 63.46875 C158.37543321 73.21287412 140.87197568 78.86723304 122.765625 84.23828125 C115.78413569 86.34573829 115.78413569 86.34573829 109 89 C107.68000988 91.69737112 107.31974236 93.11200448 107 96 C106.78730469 97.2684375 106.78730469 97.2684375 106.5703125 98.5625 C105.08387145 109.72597562 106.8996126 121.61715949 112.62109375 131.3984375 C114.30692197 133.35648161 115.53593808 134.20426624 118 135 C125.92992175 133.58096137 132.19904806 128.24068169 138 123 C138.96035156 122.13375 139.92070313 121.2675 140.91015625 120.375 C154.49060409 107.68492881 163.06051735 91.83862508 171.63574219 75.53955078 C173.40740673 72.24161689 175.29276792 69.01293967 177.20166016 65.79272461 C177.4651123 65.20112549 177.72856445 64.60952637 178 64 C177.505 63.01 177.505 63.01 177 62 Z M-197 72 C-199.12188324 72.82291242 -199.12188324 72.82291242 -201.48046875 74.1328125 C-202.38982178 74.6071875 -203.2991748 75.0815625 -204.23608398 75.5703125 C-205.21005127 76.08335937 -206.18401855 76.59640625 -207.1875 77.125 C-228.12081089 87.84805423 -248.59616163 91.86336477 -272 92.5625 C-273.36068789 92.60578135 -274.72136515 92.64939839 -276.08203125 92.69335938 C-279.38793157 92.79886683 -282.69389999 92.90098256 -286 93 C-282.68573986 99.13493796 -279.31850682 105.23000038 -275.81689453 111.26000977 C-273.17621786 115.82016239 -270.58898175 120.41036907 -268 125 C-267.50693359 125.8657666 -267.01386719 126.7315332 -266.50585938 127.62353516 C-258.58442816 141.65040683 -252.55732699 156.1459529 -246.98291016 171.22485352 C-240.99915635 188.18791067 -240.99915635 188.18791067 -230 202 C-216.56625852 202.22389569 -203.50053048 192.07208572 -194.21484375 183.28515625 C-180.57606837 169.21340388 -177.59480461 147.49794703 -177.6875 128.6875 C-177.69241455 127.50269043 -177.6973291 126.31788086 -177.70239258 125.09716797 C-177.96374477 105.54266293 -183.40578307 88.76266821 -195 73 C-195.99 72.505 -195.99 72.505 -197 72 Z M157.5090332 222.68334961 C156.64236526 222.83483963 155.77569733 222.98632965 154.88276672 223.14241028 C153.94821152 223.31068832 153.01365631 223.47896637 152.05078125 223.65234375 C150.56731453 223.91521431 150.56731453 223.91521431 149.05387878 224.18339539 C145.80562364 224.76199147 142.5589246 225.34872375 139.3125 225.9375 C138.2002002 226.13841248 137.08790039 226.33932495 135.94189453 226.54632568 C54.98127423 236.67432713 54.98127423 236.67432713 -10.87890625 277.04296875 C-15.29216458 284.74694932 -15.09389609 293.6484245 -13.34765625 302.19140625 C-8.3036894 318.44899897 1.34009792 333.0603092 16.28125 341.6640625 C32.58313888 349.67447341 52.27302677 346.82197794 68.98339844 341.35058594 C73.42354286 339.79506364 77.72869227 337.96491207 82 336 C82.66273926 335.69545898 83.32547852 335.39091797 84.00830078 335.07714844 C107.06758222 324.3216212 128.48764103 308.25462709 144 288 C144.68964844 287.13761719 145.37929687 286.27523437 146.08984375 285.38671875 C158.76212396 268.96869736 168.13389944 242.97713955 167 222 C163.73981874 221.93725981 160.71836252 222.11569775 157.5090332 222.68334961 Z " fill="#000000" transform="translate(930,542)"/>
<motion.path d="M0 0 C3.4375 0.625 3.4375 0.625 5.625 2.375 C15.25545059 19.64339417 14.04546836 40.14699042 9.01953125 58.61816406 C7.88925382 62.51534546 6.59698612 66.34606199 5.171875 70.14453125 C4.3386005 72.95904884 4.00449057 74.70765365 4.4375 77.625 C5.8372308 80.05042079 7.25026752 82.23697976 8.875 84.5 C9.80343931 85.84452256 10.72915747 87.19092766 11.65234375 88.5390625 C12.12140137 89.22129883 12.59045898 89.90353516 13.07373047 90.60644531 C16.79560724 96.11530266 20.14734896 101.85081229 23.4375 107.625 C24.07268555 108.7394751 24.07268555 108.7394751 24.72070312 109.87646484 C35.38502021 128.80602032 42.95766479 147.59360046 37.09619141 169.54150391 C32.97271634 182.58440093 25.33620672 194.51236526 13.4375 201.625 C4.90454338 205.65571926 -3.20447449 205.61276003 -12.078125 202.6640625 C-21.7038688 198.6382011 -28.10860203 192.33377043 -32.3125 182.875 C-41.50323174 158.87862003 -35.79407467 133.0602828 -28.06567383 109.51586914 C-27.43392109 107.46792749 -27.43392109 107.46792749 -27.5625 104.625 C-29.0475 105.12 -29.0475 105.12 -30.5625 105.625 C-38.58815599 106.53836757 -46.97069806 105.24005007 -53.45166016 100.13769531 C-55.18083078 98.65927398 -56.88338833 97.15989162 -58.5625 95.625 C-58.74312988 96.27460693 -58.92375977 96.92421387 -59.10986328 97.59350586 C-59.95267304 100.58806271 -60.81987937 103.57504157 -61.6875 106.5625 C-61.97109375 107.58408203 -62.2546875 108.60566406 -62.546875 109.65820312 C-64.92033202 117.73311667 -68.2623142 124.07095376 -74 130.25 C-76.5625 131.625 -76.5625 131.625 -80 131.875 C-85.16356608 130.06322243 -87.05761854 127.40514878 -89.5625 122.625 C-92.04368823 116.45809321 -93.95556888 110.15414589 -95.55078125 103.70703125 C-98.39746774 91.92107605 -98.39746774 91.92107605 -104.5625 81.625 C-107.03363288 80.59696284 -107.03363288 80.59696284 -109.5625 80.625 C-112.33259471 82.47277425 -112.33259471 82.47277425 -114.5625 85.625 C-115.0059375 86.17671875 -115.449375 86.7284375 -115.90625 87.296875 C-119.3524626 92.81965161 -118.40603808 97.53383455 -117.0625 103.5625 C-116.4692429 106.07495747 -115.84934424 108.57823667 -115.20898438 111.07910156 C-114.16726232 115.18147225 -113.2419515 119.30855748 -112.3125 123.4375 C-112.05049805 124.53856079 -112.05049805 124.53856079 -111.78320312 125.66186523 C-110.84663847 129.72078222 -110.22309306 133.45955113 -110.5625 137.625 C-112.25 140 -112.25 140 -114.5625 141.625 C-117.3125 141.875 -117.3125 141.875 -119.5625 141.625 C-119.58828125 142.181875 -119.6140625 142.73875 -119.640625 143.3125 C-120.21135957 150.99147427 -122.18090559 156.76408281 -128 162 C-133.87782856 166.56337745 -139.1913363 167.52617675 -146.5625 166.625 C-152.71493408 164.7189518 -156.38829015 160.00620895 -159.5625 154.625 C-163.39964708 146.92896563 -165.73503449 139.00459794 -167.5625 130.625 C-168.5525 130.625 -169.5425 130.625 -170.5625 130.625 C-171.2225 130.625 -171.8825 130.625 -172.5625 130.625 C-172.3459375 131.8109375 -172.129375 132.996875 -171.90625 134.21875 C-166.07130235 167.55240349 -166.07130235 167.55240349 -175.00390625 180.83203125 C-179.26340934 185.73206112 -184.68463425 188.19751874 -191.04296875 188.8984375 C-198.20157682 189.16701443 -202.68414967 187.68904467 -208.5625 183.625 C-208.871875 184.8934375 -208.871875 184.8934375 -209.1875 186.1875 C-211.09822704 190.96431759 -214.00022253 194.93929114 -218.34375 197.796875 C-224.26161339 200.005655 -231.63356058 199.72237597 -237.4921875 197.52734375 C-242.26373438 194.80799712 -245.96140136 191.58463555 -249.30859375 187.23828125 C-250.61375793 185.55905132 -252.03351759 184.10049031 -253.5625 182.625 C-254.02398438 182.97433594 -254.48546875 183.32367187 -254.9609375 183.68359375 C-260.26722524 187.38541108 -265.02503319 189.18446626 -271.5625 188.625 C-275.66596085 187.25023647 -278.98181037 185.01212642 -282.5625 182.625 C-284.0475 183.553125 -284.0475 183.553125 -285.5625 184.5 C-294.78308084 189.67968884 -305.88157228 190.16786919 -316 187.375 C-323.08044198 184.90428034 -328.42257785 180.87762578 -332.5625 174.625 C-334.55995655 170.19618248 -335.5625 166.49919116 -335.5625 161.625 C-336.5525 161.955 -337.5425 162.285 -338.5625 162.625 C-343.62261143 164.07515389 -348.51387309 164.30787564 -353.5625 162.625 C-353.60008423 163.70430786 -353.60008423 163.70430786 -353.63842773 164.80541992 C-354.92698453 201.30868529 -354.92698453 201.30868529 -357.5625 206.625 C-360.80930654 208.83873173 -362.81134675 209.625 -366.75 209.625 C-369.5625 208.625 -369.5625 208.625 -371.3125 206.75 C-373.14232472 202.1754382 -373.83936658 197.48275509 -374.5625 192.625 C-375.16384766 193.22248047 -375.16384766 193.22248047 -375.77734375 193.83203125 C-381.28721791 198.96708404 -386.9753794 201.63799027 -394.5625 202 C-402.43599918 201.63997916 -408.48454729 198.40977128 -414.5625 193.625 C-414.91441406 194.12128906 -415.26632812 194.61757812 -415.62890625 195.12890625 C-421.5627896 203.2938058 -427.59736756 210.54733325 -437.5625 213.625 C-446.50678548 214.88808509 -454.21334014 214.08583406 -461.5625 208.625 C-470.93796869 200.35635748 -474.03738966 190.8954879 -474.8125 178.6875 C-474.57914557 163.4935337 -470.17281017 147.78793049 -459.5625 136.625 C-454.12410455 131.35655441 -449.03242761 129.51281927 -441.5625 128.625 C-441.7790625 127.79742188 -441.995625 126.96984375 -442.21875 126.1171875 C-445.90746981 110.30350903 -447.73244702 91.74946096 -439.171875 77.2734375 C-435.56749287 72.05656863 -431.6468673 68.65312243 -425.5625 66.625 C-417.91053795 65.95377526 -411.55532069 67.72986197 -405.2890625 72.2734375 C-399.74771365 76.99079395 -395.64819514 81.76511003 -392.875 88.5625 C-392.45863281 89.56152344 -392.04226563 90.56054688 -391.61328125 91.58984375 C-383.45750869 115.14759573 -392.24824497 144.18279483 -400.73925781 166.41015625 C-402.11593483 170.11395635 -403.34012619 173.86794917 -404.5625 177.625 C-399.37917974 182.81338036 -399.37917974 182.81338036 -392.5625 184.625 C-388.62911964 183.25106475 -387.41001732 181.2123508 -385.5625 177.5625 C-380.69739946 167.34087462 -378.71034564 155.97531095 -377.15234375 144.82421875 C-376.43529457 142.15071749 -375.47656043 140.61974682 -373.5625 138.625 C-365.81035626 137.55573879 -360.1445132 140.5354923 -353.5625 144.375 C-348.14028323 146.63425699 -343.88387917 146.56914302 -338.421875 144.34765625 C-334.30393336 142.31355223 -330.38475246 140.17316831 -326.5625 137.625 C-324.46875 137.7890625 -324.46875 137.7890625 -322.0625 138.25 C-316.66831634 138.94398854 -312.98483511 137.6298564 -308.015625 135.6171875 C-299.94715589 132.35382579 -289.63957955 132.42782268 -281.5625 135.625 C-278.93723724 137.37517517 -278.61851282 138.42680078 -277.75 141.5 C-277.54540205 144.90996581 -277.91341634 146.65664941 -279.5625 149.625 C-283.22337691 152.06558461 -284.30212182 151.65754727 -288.5625 151.125 C-298.30281577 150.22572724 -306.10923378 151.70673602 -314.5625 156.625 C-316.992966 159.055466 -317.32521993 160.2239856 -317.5625 163.625 C-316.54743871 166.4671716 -315.5144043 168.03290642 -312.9296875 169.640625 C-306.22430328 172.6268285 -299.98658671 171.62109795 -293.125 169.625 C-289.82884976 167.05239493 -289.27534588 164.75906483 -288.30078125 160.78125 C-287.45482495 158.31052048 -286.62596487 157.20847424 -284.5625 155.625 C-281.1875 155.125 -281.1875 155.125 -277.5625 155.625 C-274.662615 157.9317267 -272.89632155 160.04081228 -271.0625 163.25 C-269.27793589 166.07555983 -267.43976892 167.00887168 -264.5625 168.625 C-264.44974731 167.57372925 -264.44974731 167.57372925 -264.3347168 166.5012207 C-263.98555785 163.31181335 -263.61797534 160.12478891 -263.25 156.9375 C-263.13205078 155.83470703 -263.01410156 154.73191406 -262.89257812 153.59570312 C-262.76689453 152.52900391 -262.64121094 151.46230469 -262.51171875 150.36328125 C-262.40174561 149.38399658 -262.29177246 148.40471191 -262.1784668 147.39575195 C-261.42028292 143.98527678 -260.0599089 141.1224089 -257.5625 138.625 C-250.43097599 138.15735908 -250.43097599 138.15735908 -247.125 139.9375 C-244.4028864 142.87738269 -244.35808232 146.12277954 -243.96777344 149.96875 C-242.83594203 160.85057301 -241.07678008 172.85571942 -232.5625 180.625 C-230.59491518 181.53664445 -230.59491518 181.53664445 -228.5625 181.625 C-224.78328337 179.0155409 -223.30822656 176.58686428 -222.4375 172.19921875 C-221.15460478 165.18414345 -221.20627064 158.13083078 -221.171875 151.01953125 C-221.14867187 149.99472656 -221.12546875 148.96992187 -221.1015625 147.9140625 C-221.09334473 146.99318848 -221.08512695 146.07231445 -221.07666016 145.12353516 C-220.41062239 141.88695848 -219.08908418 140.68467048 -216.5625 138.625 C-214.5625 138.05859375 -214.5625 138.05859375 -212.5625 138.0625 C-211.5725 138.02962891 -211.5725 138.02962891 -210.5625 137.99609375 C-207.36716018 139.00087834 -206.31321294 140.8366878 -204.5625 143.625 C-203.875 146.859375 -203.875 146.859375 -203.5625 150.375 C-202.71390243 157.5317565 -201.37795673 164.79369749 -195.5625 169.625 C-193.03820505 169.85500198 -193.03820505 169.85500198 -190.5625 168.625 C-185.64353141 162.33965125 -185.04639658 157.3330883 -185.5625 149.625 C-186.24718526 145.31510809 -187.17237319 141.07026172 -188.125 136.8125 C-188.61452696 134.62049286 -189.09535009 132.4265193 -189.56640625 130.23046875 C-189.78111572 129.27293701 -189.9958252 128.31540527 -190.21704102 127.32885742 C-190.71332438 123.44451946 -190.27795367 120.71373384 -188.125 117.4375 C-185.2622019 115.41259403 -184.14537844 115.45582778 -180.75 115.1875 C-178.04480891 114.90152138 -178.04480891 114.90152138 -175.5625 113.625 C-173.30081499 110.40562606 -171.71677225 107.19148772 -170.1328125 103.59375 C-168.5625 100.625 -168.5625 100.625 -166.5546875 99.2109375 C-163.55748729 98.32940803 -161.54057656 98.75639434 -158.5625 99.625 C-154.74630114 102.65738395 -153.88086044 105.17017423 -153.03515625 109.90234375 C-152.79990234 111.13919922 -152.56464844 112.37605469 -152.32226562 113.65039062 C-151.97711914 115.58688477 -151.97711914 115.58688477 -151.625 117.5625 C-149.7325374 128.07078951 -147.36754115 138.0149177 -142.5625 147.625 C-141.2425 147.625 -139.9225 147.625 -138.5625 147.625 C-133.38739722 135.1185016 -135.6634343 121.6939992 -137.0625 108.5625 C-137.88212196 100.84943565 -138.66558461 93.13236121 -138.96875 85.37890625 C-139.01322266 84.36256104 -139.05769531 83.34621582 -139.10351562 82.29907227 C-138.5625 79.625 -138.5625 79.625 -136.21679688 77.31225586 C-133.5625 75.625 -133.5625 75.625 -130.6875 74.875 C-127.30653385 73.52261354 -126.4276156 72.50941513 -124.1875 69.75 C-119.95890102 64.68305133 -116.22342849 62.08804234 -109.59765625 61.25 C-104.90426943 61.06435306 -101.48180162 61.1993974 -97.1875 63.1875 C-96.32125 63.991875 -95.455 64.79625 -94.5625 65.625 C-94.07523438 66.06457031 -93.58796875 66.50414062 -93.0859375 66.95703125 C-83.86240265 76.29881654 -80.92975062 91.31814596 -77.5625 103.625 C-77.43721924 102.99746826 -77.31193848 102.36993652 -77.18286133 101.72338867 C-66.53339383 48.69821693 -66.53339383 48.69821693 -52.5625 38.625 C-45.98060797 34.78556298 -39.11716924 33.41909036 -31.5625 34.625 C-28.98373413 35.68830616 -27.65552754 36.70167739 -25.5625 38.625 C-25.5625 39.285 -25.5625 39.945 -25.5625 40.625 C-24.675625 40.521875 -23.78875 40.41875 -22.875 40.3125 C-19.41669552 40.63875514 -18.15593086 41.21228757 -15.86328125 43.78125 C-13.01699203 47.81562992 -10.80061527 52.23337175 -8.5625 56.625 C-8.07740207 55.25208132 -7.59974487 53.87653297 -7.125 52.5 C-6.85816406 51.73429687 -6.59132813 50.96859375 -6.31640625 50.1796875 C-2.91550685 38.65539627 -3.40434281 26.27459822 -7.65234375 15.14453125 C-8.87944896 11.74760909 -9.21624049 9.18425376 -8.5625 5.625 C-5.94681879 1.89963585 -4.5021067 0.78984328 0 0 Z M-37.5625 56.625 C-43.23877494 63.55660498 -47.14088345 71.37098076 -46.4375 80.5 C-45.65112587 85.193701 -45.65112587 85.193701 -42.5625 88.625 C-38.46516088 89.29335314 -38.46516088 89.29335314 -34.5625 88.625 C-30.74169565 84.31434893 -29.43910515 80.25647166 -29.4296875 74.61328125 C-29.42775391 73.85901855 -29.42582031 73.10475586 -29.42382812 72.32763672 C-29.42833984 71.5388916 -29.43285156 70.75014648 -29.4375 69.9375 C-29.44040039 68.7311792 -29.44040039 68.7311792 -29.44335938 67.50048828 C-29.48242847 62.14259637 -29.77636118 56.93143703 -30.5625 51.625 C-33.17739007 51.625 -35.78120167 54.86019518 -37.5625 56.625 Z M-424.3125 85.0625 C-430.13542785 91.69416783 -429.25118773 101.72774909 -428.79638672 110.07763672 C-427.32523162 126.10063497 -421.0784773 141.65188681 -415.5625 156.625 C-413.81435724 154.00278587 -413.12088651 152.534439 -412.34375 149.59765625 C-412.13451904 148.81205322 -411.92528809 148.0264502 -411.7097168 147.21704102 C-404.30703922 119.11743153 -404.30703922 119.11743153 -410.5625 91.625 C-412.70356841 88.10906492 -414.88981165 85.98937286 -418.5625 84 C-421.62911984 83.3274227 -421.62911984 83.3274227 -424.3125 85.0625 Z M-4.5625 93.625 C-21.12979834 132.2421688 -21.12979834 132.2421688 -18.7109375 173.03515625 C-16.71988615 177.36528825 -14.17308146 180.46574122 -10.5625 183.625 C-9.985 184.2025 -9.4075 184.78 -8.8125 185.375 C-5.22904307 187.3658094 -1.63190105 187.73843278 2.4375 187.625 C10.5138337 184.82934603 15.41204693 177.84305378 19.4375 170.625 C24.73093191 158.93204593 23.23893437 146.4807275 19.0546875 134.7109375 C13.57213583 120.36825215 5.65552205 105.87445211 -3.5625 93.625 C-3.8925 93.625 -4.2225 93.625 -4.5625 93.625 Z M-449.5625 148.625 C-457.56793529 158.28595024 -458.55976993 170.61355719 -457.78271484 182.67333984 C-457.19027232 187.92387814 -455.61208 192.79072942 -451.62890625 196.35546875 C-448.45613933 198.30471119 -446.22032466 198.0589792 -442.5625 197.625 C-434.92699387 194.43197016 -429.92910559 188.28248136 -425.5 181.4375 C-423.21402 174.57955999 -427.43526763 167.0591175 -429.953125 160.69165039 C-430.4443437 159.43469882 -430.92314732 158.17282733 -431.38964844 156.90649414 C-432.06790448 155.06649871 -432.78736209 153.24185626 -433.5078125 151.41796875 C-433.92562988 150.3302417 -434.34344727 149.24251465 -434.77392578 148.12182617 C-436.42022317 145.26862932 -436.42022317 145.26862932 -440.05810547 144.6730957 C-444.63576729 144.61027005 -446.15795421 145.59051354 -449.5625 148.625 Z " fill="#000000" transform="translate(1228.5625,1108.375)"/>
<motion.path d="M0 0 C4.74166361 2.57849591 7.45135929 5.83303988 9 11 C10.60785084 28.77983894 6.04895623 45.28517449 -5.25 59.375 C-8.81999499 63.21274461 -13.0510794 65.81355367 -17.546875 68.45703125 C-22.78464815 71.75149048 -23.93560319 75.09750202 -25.5 81 C-25.71285645 81.79092041 -25.92571289 82.58184082 -26.14501953 83.39672852 C-31.21155364 102.05874187 -31.21155364 102.05874187 -30 121 C-28.5564152 123.8677118 -28.5564152 123.8677118 -26 125 C-20.05496804 125.27651311 -15.4182179 121.59923117 -11 118 C-2.97700501 110.43856479 3.26902268 101.37599201 9.71875 92.4921875 C22.71881743 74.60593912 22.71881743 74.60593912 27 73.46875 C30.4842503 73.52319141 32.48763856 73.6797741 35.5 75.5625 C37.49082896 78.79759706 37.4728019 81.33538046 37 85 C35.94496071 89.02531762 34.59839949 92.9397658 33.25 96.875 C25.09653084 118.11543462 25.09653084 118.11543462 25 140 C32.73805006 139.83536064 37.33717437 135.70684998 42.625 130.35546875 C49.15542714 122.49411216 52.90080014 112.0318398 56.8203125 102.69140625 C63.10225273 87.74490185 70.67415207 75.41190981 86.23828125 68.96484375 C92.95398716 66.61862118 100.87891039 64.64026439 108 66 C111.50811779 68.43420418 112.77376734 69.79342584 113.5625 74 C112.86032421 77.74493754 111.59383145 79.22803272 109 82 C106.1953125 83.5546875 106.1953125 83.5546875 103.125 84.875 C92.87448766 89.81365704 88.86947782 97.48292362 85 108 C82.72758821 115.30215899 80.99117741 122.75910784 79.1875 130.1875 C78.45645968 133.14750368 77.72181454 136.10658403 76.98542786 139.06526184 C76.53187495 140.8928159 76.08209476 142.72131136 75.63652039 144.55082703 C75.4357338 145.36960831 75.2349472 146.18838959 75.02807617 147.03198242 C74.85298019 147.75222092 74.67788422 148.47245941 74.4974823 149.21452332 C74 151 74 151 73 153 C74.07483643 152.50016602 74.07483643 152.50016602 75.17138672 151.99023438 C78.40412008 150.48956607 81.63951022 148.99471548 84.875 147.5 C86.00292969 146.97535156 87.13085938 146.45070313 88.29296875 145.91015625 C89.36933594 145.41386719 90.44570313 144.91757813 91.5546875 144.40625 C93.04718018 143.71499023 93.04718018 143.71499023 94.56982422 143.00976562 C97 142 97 142 99 142 C98.95359375 140.83984375 98.9071875 139.6796875 98.859375 138.484375 C98.48108125 125.12945915 99.70636893 114.67915677 108.796875 104.19140625 C115.37391374 97.64935176 123.38440372 93 132.8125 93 C136.79287227 94.24874424 137.9001296 95.42244302 140 99 C143.27346092 106.85630621 143.32324419 116.35224068 140.375 124.3125 C136.75056463 132.17180197 131.18947864 138.08028072 125 144 C124.195625 144.804375 123.39125 145.60875 122.5625 146.4375 C122.046875 146.953125 121.53125 147.46875 121 148 C127.23656525 150.82130333 132.01232621 149.39192519 138.5 147.7265625 C143.09957574 146.77173986 147.27924584 145.98519626 151.4375 148.4375 C153.42628221 151.69910283 153.48056344 154.1217648 153.53125 157.87890625 C153 160 153 160 151.2890625 161.671875 C141.6029617 167.29179696 126.84726589 167.93836847 116.05859375 165.2734375 C111.33873724 163.30882718 107.86449866 160.29137386 104 157 C102.22109375 157.85271484 102.22109375 157.85271484 100.40625 158.72265625 C92.29244516 162.59804461 84.16639133 166.43654916 75.9375 170.0625 C75.26589844 170.36099854 74.59429688 170.65949707 73.90234375 170.96704102 C69.24310024 173 69.24310024 173 67 173 C66.67128906 174.34964844 66.67128906 174.34964844 66.3359375 175.7265625 C64.59918227 182.79061545 62.78447996 189.82242098 60.82617188 196.82861328 C58.12196989 206.50944889 55.7570109 216.19408357 53.82446289 226.06079102 C51.41460178 237.89014471 47.26583877 248.60987795 37.25 256 C31.33531742 259.63980466 25.79385987 259.62171927 19 259 C13.40494347 256.55852079 10.49973254 252.41608718 8 247 C3.13037928 233.38454046 3.86105973 219.17175928 9.2890625 205.83203125 C12.43146635 199.20273543 16.24884945 193.56505214 21 188 C21.57105469 187.28457031 22.14210938 186.56914063 22.73046875 185.83203125 C30.37861058 176.61838491 40.55711021 168.82391931 51 163 C51.66 163 52.32 163 53 163 C53.2475 161.80375 53.495 160.6075 53.75 159.375 C54.96384969 153.85110432 56.57837029 148.45640901 58.1953125 143.0390625 C59.12798043 140.04062162 59.12798043 140.04062162 59 137 C58.443125 137.64066406 57.88625 138.28132813 57.3125 138.94140625 C41.42133284 156.95318524 41.42133284 156.95318524 28.90625 158.34375 C23.28082036 158.51084197 18.68297147 158.42656449 14 155 C8.86271427 149.86271427 6.93030008 144.81252902 6.8046875 137.59765625 C6.81777706 136.08581249 6.8413242 134.57402533 6.875 133.0625 C6.88402344 132.28326172 6.89304687 131.50402344 6.90234375 130.70117188 C6.92566309 128.80064553 6.96152414 126.90027992 7 125 C6.46632813 125.58007812 5.93265625 126.16015625 5.3828125 126.7578125 C-1.60067056 134.07959577 -10.02836689 141.32859972 -20.48828125 142.3359375 C-29.7728819 142.4307751 -35.91228011 141.90604345 -42.8125 135.3125 C-47.06389756 128.87466941 -48.56136753 122.14656252 -48.5 114.5 C-48.49863037 113.71044922 -48.49726074 112.92089844 -48.49584961 112.10742188 C-48.20277716 100.12707998 -45.7908341 87.3725023 -42 76 C-42.61066315 76.06770096 -43.22132629 76.13540192 -43.85049438 76.20515442 C-49.76590482 76.8329647 -55.6408577 77.21817058 -61.5859375 77.38671875 C-62.45014313 77.41224319 -63.31434875 77.43776764 -64.20474243 77.46406555 C-66.01127522 77.51559757 -67.81786776 77.56507379 -69.62451172 77.61254883 C-72.38939913 77.68789238 -75.15354823 77.77842773 -77.91796875 77.86914062 C-79.68226627 77.91760044 -81.44658882 77.96515889 -83.2109375 78.01171875 C-84.03387299 78.04077805 -84.85680847 78.06983734 -85.7046814 78.09977722 C-92.95851974 78.25976389 -92.95851974 78.25976389 -96 76 C-97.59251643 72.81496713 -97.39129761 69.4667595 -97 66 C-95.25746655 62.76386646 -94.52814056 62.17604685 -91 61 C-88.49288736 60.86984834 -86.00858222 60.79042866 -83.5 60.75390625 C-81.96516262 60.72224449 -80.43033209 60.69024945 -78.89550781 60.65795898 C-78.09455688 60.64256073 -77.29360596 60.62716248 -76.46838379 60.61129761 C-62.89465058 60.34295777 -49.46420104 59.87407123 -36 58 C-35.83419434 57.38721191 -35.66838867 56.77442383 -35.49755859 56.14306641 C-33.43771869 48.55791082 -31.3528039 40.98011017 -29.203125 33.41992188 C-28.81703408 32.05425568 -28.43520933 30.68737633 -28.05761719 29.31933594 C-24.99670686 18.24402138 -21.85696514 8.70170882 -13 1 C-8.61668679 -0.4611044 -4.57152553 -0.73421471 0 0 Z M-9 24 C-8 26 -8 26 -8 26 Z M-10 27 C-9 30 -9 30 -9 30 Z M-11 31 C-10 34 -10 34 -10 34 Z M-12 34 C-11 36 -11 36 -11 36 Z M122.59765625 114.28515625 C119.10250907 118.33170069 116.6412506 121.88315989 115 127 C115.3810841 129.15707976 115.3810841 129.15707976 116 131 C117.30020011 129.61211198 118.5898193 128.21430742 119.875 126.8125 C120.59429688 126.03519531 121.31359375 125.25789063 122.0546875 124.45703125 C125.12499797 120.57906883 126 117.95165175 126 113 C123.92872058 112.77478946 123.92872058 112.77478946 122.59765625 114.28515625 Z M60 134 C61 136 61 136 61 136 Z M44 187 C31.5303013 198.74330849 22.45208097 210.76505216 20.76171875 228.5 C20.58982927 234.11500516 20.58982927 234.11500516 23 239.125 C24.80906643 241.24935354 24.80906643 241.24935354 27.1875 241 C31.56076994 239.44505958 32.98379168 236.03914434 35 232 C36.0988943 228.8184717 36.81672443 225.60555191 37.5 222.3125 C37.90809959 220.46728087 38.31697831 218.62223391 38.7265625 216.77734375 C39.0344873 215.35977783 39.0344873 215.35977783 39.34863281 213.91357422 C40.01056809 210.95272877 40.72614008 208.00996395 41.4609375 205.06640625 C41.69748047 204.1127417 41.93402344 203.15907715 42.17773438 202.17651367 C42.63525623 200.33825623 43.09734559 198.5011283 43.56445312 196.6652832 C43.76748047 195.83472412 43.97050781 195.00416504 44.1796875 194.1484375 C44.36257324 193.41802246 44.54545898 192.68760742 44.73388672 191.93505859 C45.17475111 189.78670724 45.17475111 189.78670724 44 187 Z " fill="#000000" transform="translate(545,1103)"/>
<motion.path d="M0 0 C1.71943383 2.29257845 2.84808901 4.19917013 4.0625 6.75 C4.60571899 7.82882446 4.60571899 7.82882446 5.15991211 8.92944336 C11.1708399 21.08889701 16.54739255 33.58305824 22 46 C25.21018491 46.26204871 25.21018491 46.26204871 28.25 44 C31.95526152 41.81444405 34.66396756 41.26369261 39 42 C42.22456813 44.72848072 42.91290117 46.37942087 43.5 50.5625 C42.89717003 54.70695603 42.14238291 55.34496565 39 58 C36.62075353 59.47875778 34.28698182 60.82820178 31.8125 62.125 C31.079104 62.50970459 30.34570801 62.89440918 29.59008789 63.29077148 C14.96278291 70.74927107 -0.6104836 76.32493553 -16.125 81.625 C-17.60818726 82.13945679 -17.60818726 82.13945679 -19.12133789 82.66430664 C-24.26440837 84.37125292 -28.57348424 85.54842447 -34 85 C-36.10358381 83.45737187 -36.84054159 82.31891683 -38 80 C-38.57674582 73.7711452 -38.57674582 73.7711452 -36.47241211 70.95751953 C-33.29019814 68.43801804 -29.9387594 67.2853628 -26.12890625 66.0546875 C-25.36956284 65.7987381 -24.61021942 65.5427887 -23.8278656 65.27908325 C-21.40965364 64.46651783 -18.98641678 63.67036651 -16.5625 62.875 C-14.14347238 62.06889838 -11.72556787 61.25950197 -9.30784607 60.44949341 C-7.8063131 59.94779239 -6.30380098 59.44900949 -4.80018616 58.95358276 C-1.14861737 57.74679787 2.44906233 56.47829294 6 55 C4.6202965 50.64533655 2.97271236 46.51764181 1.1015625 42.3515625 C0.82533051 41.73534027 0.54909851 41.11911804 0.26449585 40.48422241 C-0.31741338 39.18775759 -0.90071774 37.89191815 -1.48535156 36.59667969 C-2.36872078 34.6389163 -3.24720859 32.67901961 -4.125 30.71875 C-7.61246652 22.95053137 -7.61246652 22.95053137 -11.3828125 15.31640625 C-13.25321272 11.48073044 -13.63584496 9.21247284 -13 5 C-9.54701333 -0.47715127 -6.27141109 -2.0132428 0 0 Z " fill="#000000" transform="translate(860,924)"/>
<motion.path d="M0 0 C2.80047004 0.72522132 4.31922542 2.34644289 5.9296875 4.69140625 C10.13520274 12.09884786 11.1422286 19.05328278 9.9609375 27.5078125 C7.37559713 35.40588528 3.16439868 42.13827113 -4.0390625 46.5078125 C-7.7265625 47.7578125 -7.7265625 47.7578125 -11.0390625 47.5078125 C-14.65623299 45.04505812 -15.82215397 43.46582516 -16.7890625 39.1953125 C-15.86109191 34.63279041 -13.98199786 32.65180687 -10.765625 29.40234375 C-8.48656107 26.90156093 -7.07148003 24.91527372 -6.9921875 21.47265625 C-7.13914062 20.46912109 -7.13914062 20.46912109 -7.2890625 19.4453125 C-7.42054687 18.43791016 -7.42054687 18.43791016 -7.5546875 17.41015625 C-8.00585591 15.19769281 -8.00585591 15.19769281 -10.0390625 12.5078125 C-10.69659675 5.60370291 -10.69659675 5.60370291 -8.5390625 2.0078125 C-5.67421221 0.28890233 -3.3459154 -0.18657521 0 0 Z " fill="#000000" transform="translate(1056.0390625,1154.4921875)"/>
<motion.path d="M0 0 C2.80047004 0.72522132 4.31922542 2.34644289 5.9296875 4.69140625 C10.13520274 12.09884786 11.1422286 19.05328278 9.9609375 27.5078125 C7.37559713 35.40588528 3.16439868 42.13827113 -4.0390625 46.5078125 C-7.7265625 47.7578125 -7.7265625 47.7578125 -11.0390625 47.5078125 C-14.65623299 45.04505812 -15.82215397 43.46582516 -16.7890625 39.1953125 C-15.86109191 34.63279041 -13.98199786 32.65180687 -10.765625 29.40234375 C-8.48656107 26.90156093 -7.07148003 24.91527372 -6.9921875 21.47265625 C-7.13914062 20.46912109 -7.13914062 20.46912109 -7.2890625 19.4453125 C-7.42054688 18.43791016 -7.42054688 18.43791016 -7.5546875 17.41015625 C-8.00585591 15.19769281 -8.00585591 15.19769281 -10.0390625 12.5078125 C-10.69659675 5.60370291 -10.69659675 5.60370291 -8.5390625 2.0078125 C-5.67421221 0.28890233 -3.3459154 -0.18657521 0 0 Z " fill="#000000" transform="translate(585.0390625,1116.4921875)"/>
<motion.path d="M0 0 C4.03568484 3.15260282 6.45571815 7.15657057 8 12 C9.30535856 24.97769269 9.30535856 24.97769269 6.0625 29.8125 C3.062984 32.99380485 3.062984 32.99380485 -0.8125 33.375 C-3.95440924 33.29588718 -4.86961176 33.08904563 -7.5625 31.25 C-9.49575444 26.87916388 -8.8191783 23.58453374 -8.06640625 18.9375 C-7.98542108 15.35509701 -9.07114807 13.94887137 -11 11 C-11.6472395 7.53536505 -11.60493538 4.20987077 -10 1 C-6.65319927 -0.67340036 -3.56052976 -0.94902589 0 0 Z " fill="#F9F9F9" transform="translate(1077,937)"/>
<motion.path d="M0 0 C2.5 1.5625 2.5 1.5625 4 4 C4.5625 7.4375 4.5625 7.4375 4 11 C1.55401113 14.38121991 0.10703441 15.76936783 -4 16.625 C-8.0743356 15.77618008 -9.54405875 14.32274404 -12 11 C-12.55948113 7.08363212 -12.20709681 4.31064521 -10 1 C-6.79419594 -0.60290203 -3.47817686 -0.48117071 0 0 Z " fill="#000000" transform="translate(962,1026)"/>
<motion.path d="M0 0 C1.90625 0.4140625 1.90625 0.4140625 4.40625 1.9765625 C6.49936615 5.37787625 6.45772685 7.48478993 5.90625 11.4140625 C4.34375 14.3515625 4.34375 14.3515625 1.90625 16.4140625 C-1.73224082 16.9338469 -4.07864618 16.84147464 -7.46875 15.4140625 C-9.9625006 12.344831 -10.38999457 9.31841399 -10.09375 5.4140625 C-7.75115337 0.52516518 -5.12887638 -0.36361437 0 0 Z " fill="#000000" transform="translate(978.09375,994.5859375)"/>
<motion.path d="M0 0 C2.375 1.0625 2.375 1.0625 4 3 C5.10373378 6.97344161 5.41543583 9.08999772 3.6875 12.875 C2 15 2 15 0 16 C-3.79877599 16.35173852 -6.14360153 16.52701444 -9.4375 14.5 C-11.63828902 10.97873756 -11.80414661 8.04560357 -11 4 C-8.14969659 -0.56048545 -5.12186168 -0.64023271 0 0 Z " fill="#000000" transform="translate(1014,993)"/>
<motion.path d="M0 0 C2.4375 1.5 2.4375 1.5 4 4 C4.80414661 8.04560357 4.63828902 10.97873756 2.4375 14.5 C-0.94888329 16.58392818 -3.09385318 16.55802097 -7 16 C-9.4375 14.5 -9.4375 14.5 -11 12 C-11.80414661 7.95439643 -11.63828902 5.02126244 -9.4375 1.5 C-6.05111671 -0.58392818 -3.90614682 -0.55802097 0 0 Z " fill="#000000" transform="translate(997,1022)"/>
<motion.path d="M0 0 C2.375 1.5 2.375 1.5 4 4 C4.81753559 8.07099353 4.65416433 10.99359333 2.375 14.5 C-0.72140596 16.45562482 -2.39853135 16.60024477 -6 16 C-8.375 14.5 -8.375 14.5 -10 12 C-10.81753559 7.92900647 -10.65416433 5.00640667 -8.375 1.5 C-5.27859404 -0.45562482 -3.60146865 -0.60024477 0 0 Z " fill="#F4F4F4" transform="translate(1068,977)"/>
</svg>
