<?xml version="1.0" standalone="no"?>
<!DOCTYPE svg PUBLIC "-//W3C//DTD SVG 20010904//EN"
 "http://www.w3.org/TR/2001/REC-SVG-20010904/DTD/svg10.dtd">
<svg version="1.0" xmlns="http://www.w3.org/2000/svg"
 width="300.000000pt" height="494.000000pt" viewBox="0 0 300.000000 494.000000"
 preserveAspectRatio="xMidYMid meet">
<metadata>
Created by potrace 1.10, written by Peter Selinger 2001-2011
</metadata>
<g transform="translate(0.000000,494.000000) scale(0.100000,-0.100000)"
fill="#000000" stroke="none">
<path d="M1475 4783 c-63 -15 -244 -78 -265 -92 -14 -9 -64 -36 -112 -60 -90
-46 -129 -88 -115 -125 9 -22 41 -16 45 8 2 11 0 16 -6 12 -6 -3 -13 -2 -16 2
-9 15 35 47 129 94 50 25 100 50 110 56 39 22 245 82 281 82 35 0 108 -7 304
-31 47 -6 113 -21 148 -35 34 -13 74 -24 89 -24 17 0 70 -29 142 -77 154 -103
181 -135 196 -221 4 -24 16 -68 26 -97 12 -34 19 -81 19 -125 0 -75 9 -99 76
-210 18 -30 43 -84 55 -120 19 -57 21 -80 16 -190 -6 -152 -19 -193 -88 -268
-28 -31 -58 -67 -67 -80 l-16 -24 -20 43 c-16 33 -29 46 -53 54 -18 5 -33 15
-33 21 0 19 -21 28 -31 13 -6 -11 -9 -10 -15 4 -4 12 5 35 29 70 54 79 61 100
48 138 -17 49 -13 75 14 105 13 14 34 51 45 82 20 53 20 58 5 99 -9 24 -25 48
-35 53 -10 6 -84 10 -165 10 -125 0 -147 -2 -152 -16 -4 -10 1 -20 13 -27 22
-13 29 -11 29 6 0 9 31 11 125 10 69 -2 129 -3 133 -3 4 0 15 -17 23 -37 13
-31 14 -44 4 -77 -12 -41 -38 -86 -49 -86 -3 0 -7 26 -8 58 -2 75 -2 72 -13
72 -14 0 -23 -65 -12 -87 11 -19 -1 -53 -18 -53 -4 0 -21 20 -36 44 -24 39
-32 44 -55 39 -21 -4 -31 1 -48 25 -17 25 -18 31 -6 36 8 3 15 15 15 27 l0 22
-25 -23 c-14 -13 -25 -33 -25 -45 0 -29 38 -63 79 -71 22 -5 39 -18 54 -41 19
-30 26 -34 54 -29 30 4 31 3 21 -19 -7 -17 -7 -33 1 -56 17 -50 14 -66 -27
-122 -21 -29 -42 -64 -45 -78 -9 -35 -56 -67 -68 -48 -18 27 -22 63 -11 92 11
29 8 47 -7 47 -13 0 -34 -77 -27 -103 3 -13 22 -41 41 -63 59 -64 73 -167 34
-249 -19 -40 -25 -45 -55 -45 -19 0 -34 -5 -34 -11 0 -6 19 -9 48 -7 43 3 48
6 65 41 11 21 21 64 24 97 l6 60 53 0 c29 0 55 4 58 9 8 12 -46 21 -88 14 -32
-5 -36 -3 -36 17 0 12 -9 34 -20 49 l-19 28 23 13 c29 15 50 5 98 -47 19 -21
50 -49 68 -62 l34 -24 25 34 c14 18 49 59 77 90 33 35 58 75 69 108 20 61 29
244 14 311 -11 51 -57 167 -75 190 -39 49 -64 117 -64 174 0 32 -9 89 -19 125
-10 36 -27 97 -37 134 -20 78 -79 154 -142 184 -21 10 -65 39 -99 65 -37 28
-78 50 -100 53 -21 4 -69 17 -108 30 -38 12 -115 28 -170 34 -55 7 -130 16
-167 22 -69 9 -128 10 -163 2z"/>
<path d="M836 4375 c-9 -14 -21 -24 -27 -22 -6 1 -17 -23 -25 -53 -8 -30 -25
-70 -38 -88 -49 -69 -182 -211 -218 -231 -42 -24 -52 -40 -61 -88 -9 -44 26
-153 69 -220 19 -30 34 -56 34 -59 0 -19 56 -77 154 -159 61 -52 138 -118 170
-146 81 -69 108 -66 187 22 86 95 91 126 64 412 -14 153 -12 229 11 401 6 38
4 48 -7 44 -7 -2 -19 -35 -27 -74 -13 -68 -12 -219 4 -525 8 -144 0 -169 -72
-243 -71 -73 -86 -73 -166 3 -35 32 -90 81 -124 107 -34 27 -80 67 -104 88
-65 58 -171 254 -169 311 1 40 25 85 59 112 65 51 211 216 237 267 14 27 31
56 39 64 8 7 14 24 14 36 0 13 7 29 15 36 8 7 15 16 15 21 0 17 -18 9 -34 -16z"/>
<path d="M2170 4306 l-21 -44 31 -55 c16 -30 54 -74 83 -98 28 -24 54 -47 55
-51 5 -10 42 -10 42 0 0 4 -9 13 -20 20 -11 6 -17 18 -14 26 7 18 -16 32 -26
16 -6 -10 -14 -7 -31 10 l-24 22 39 -6 c29 -6 37 -4 34 6 -3 7 -23 14 -49 16
-40 3 -46 7 -66 43 -21 38 -21 43 -8 76 30 73 9 88 -25 19z"/>
<path d="M1720 4275 c-13 -8 -31 -22 -40 -33 -40 -49 -100 -83 -155 -89 -39
-4 -55 -10 -55 -21 0 -12 10 -13 48 -9 26 3 57 9 68 12 18 6 24 1 33 -28 10
-30 16 -34 48 -35 39 -2 68 13 117 57 21 19 27 21 23 9 -5 -14 -1 -18 19 -18
23 0 25 3 20 23 -4 12 -11 43 -17 69 -6 26 -16 51 -22 57 -21 17 -61 20 -87 6z
m35 -26 c-6 -18 -4 -20 13 -15 42 14 35 -40 -12 -87 -22 -22 -28 -24 -51 -14
-13 7 -25 18 -25 25 0 6 -7 12 -16 12 -10 0 -13 -6 -10 -18 4 -13 1 -19 -9
-19 -28 0 -15 36 22 64 20 15 48 38 61 51 31 27 35 28 27 1z m-49 -140 c3 -5
-11 -9 -30 -9 -20 0 -36 4 -36 9 0 20 53 20 66 0z"/>
<path d="M1860 4152 c0 -13 50 -82 60 -82 17 0 11 22 -16 57 -23 31 -44 43
-44 25z"/>
<path d="M795 3960 c-3 -5 3 -18 14 -29 55 -55 61 -105 27 -229 -17 -60 -15
-89 5 -77 5 4 9 16 9 28 1 12 9 47 20 77 29 83 26 118 -17 184 -38 56 -47 64
-58 46z"/>
<path d="M1437 3647 c-36 -34 -53 -89 -45 -150 7 -48 23 -30 28 31 6 66 29
109 65 118 14 3 25 12 25 20 0 25 -38 15 -73 -19z"/>
<path d="M2260 3616 c0 -19 -27 -34 -60 -34 -31 -1 -107 -16 -185 -37 -86 -24
-219 -30 -238 -10 -9 8 -17 11 -19 5 -2 -5 -31 5 -64 21 -39 19 -84 33 -122
36 -56 5 -61 4 -77 -21 -19 -29 -14 -90 11 -116 7 -8 52 -54 99 -102 47 -48
85 -95 85 -104 0 -12 6 -15 24 -10 29 7 82 -26 128 -81 57 -67 99 -103 126
-109 15 -4 41 -17 59 -30 17 -13 40 -24 50 -24 59 -1 50 -45 -10 -54 -138 -20
-287 56 -374 192 -19 29 -41 56 -49 59 -8 3 -14 10 -14 15 0 9 -42 61 -113
141 -15 17 -25 37 -23 44 3 7 -1 13 -9 13 -40 0 12 -81 167 -260 35 -39 37
-45 21 -51 -10 -4 -36 -8 -59 -8 -70 -2 -219 91 -264 164 -24 39 -40 45 -40
15 0 -23 92 -118 135 -140 17 -8 52 -28 79 -44 48 -29 64 -31 160 -23 26 2 31
-3 43 -39 13 -38 12 -48 -12 -129 -14 -48 -25 -98 -25 -111 0 -34 18 -39 26
-7 3 15 13 55 22 88 9 33 16 81 17 108 0 26 1 47 2 47 2 0 23 -15 47 -34 74
-56 178 -80 274 -62 42 8 62 27 62 60 0 10 -27 28 -71 48 -42 19 -65 34 -58
39 8 5 4 11 -11 19 -20 11 -22 10 -17 -4 11 -27 -12 -18 -58 25 -35 32 -44 47
-40 63 5 15 4 17 -3 7 -8 -11 -16 -7 -42 22 -17 20 -39 39 -49 42 -13 4 -16
13 -13 34 7 52 -16 165 -37 182 -20 16 -74 19 -88 5 -12 -11 20 -26 43 -20 35
9 42 -7 60 -138 4 -29 3 -48 -3 -48 -13 0 -43 34 -43 48 0 6 -6 9 -14 6 -8 -3
-22 9 -36 31 -12 19 -34 42 -49 50 -33 17 -89 78 -101 111 -6 15 -6 34 1 50 9
25 12 26 57 20 25 -3 75 -20 110 -36 62 -29 176 -55 204 -46 7 2 31 7 53 10
l40 5 0 -117 c0 -94 4 -123 18 -150 24 -45 32 -34 19 25 -6 26 -13 94 -16 151
-5 102 -5 102 18 102 13 0 40 7 60 15 23 10 50 13 75 9 69 -11 165 54 121 81
-5 3 -10 -1 -10 -9z"/>
<path d="M625 3462 c-29 -28 -47 -50 -139 -177 -113 -156 -167 -272 -211 -453
-16 -67 -21 -75 -67 -112 -28 -22 -56 -40 -63 -40 -15 0 -45 -43 -45 -65 0
-16 -16 -21 -22 -7 -1 4 -20 21 -41 36 -33 25 -37 26 -37 10 0 -11 18 -32 40
-47 44 -31 47 -39 25 -57 -8 -7 -15 -27 -15 -44 0 -17 -9 -58 -19 -92 -21 -65
-25 -143 -24 -474 0 -277 2 -323 20 -398 19 -81 18 -123 -3 -205 -21 -80 -26
-419 -6 -438 10 -11 12 -9 12 7 0 10 -5 35 -10 54 -13 44 14 326 36 388 18 48
16 97 -11 242 -11 65 -15 119 -11 170 4 41 6 98 6 126 -1 28 4 62 9 77 8 21 7
28 -5 35 -12 7 -15 35 -15 155 0 82 5 172 12 204 7 32 12 64 10 71 -1 6 2 12
8 12 11 0 66 139 57 147 -12 12 26 64 57 77 17 8 49 30 70 48 33 29 41 46 63
128 37 140 63 211 90 252 13 21 24 41 24 45 1 5 21 35 45 68 24 33 64 90 89
126 25 37 64 83 86 103 22 20 40 40 40 46 0 18 -25 10 -55 -18z"/>
<path d="M1 3384 c-1 -11 11 -54 25 -95 15 -41 28 -101 31 -134 4 -61 3 -65
-49 -137 -24 -34 3 -31 33 2 50 59 57 100 32 194 -24 91 -72 203 -72 170z"/>
<path d="M2178 3014 c-4 -5 4 -34 18 -64 13 -30 23 -64 24 -76 0 -11 9 -47 20
-78 33 -98 70 -299 76 -422 6 -100 3 -134 -15 -216 -27 -123 -27 -202 -2 -249
11 -20 25 -56 31 -80 6 -24 22 -62 34 -84 63 -111 86 -225 87 -435 0 -63 6
-151 13 -195 10 -60 11 -95 3 -141 -11 -63 -1 -144 18 -151 13 -4 12 191 -3
477 -14 276 -23 322 -90 455 -16 33 -33 73 -36 89 -4 15 -16 48 -28 72 -22 48
-21 111 4 229 15 73 15 323 -1 381 -6 22 -18 79 -26 125 -14 83 -20 105 -66
257 -22 74 -51 123 -61 106z"/>
<path d="M1610 2178 c0 -24 5 -61 11 -83 5 -22 14 -74 18 -115 11 -93 46 -215
71 -248 11 -14 20 -31 20 -38 0 -8 7 -14 16 -14 23 0 11 60 -16 80 -19 15 -43
93 -61 200 -5 30 -13 80 -19 110 -9 47 -14 81 -19 138 0 6 -5 12 -11 12 -5 0
-10 -19 -10 -42z"/>
<path d="M326 2149 c-22 -67 -46 -294 -41 -395 2 -38 12 -91 22 -118 19 -52
43 -72 43 -38 0 11 -4 22 -10 24 -34 11 -39 258 -9 413 15 75 18 110 10 118
-7 7 -12 6 -15 -4z"/>
<path d="M982 1967 c-24 -12 -41 -27 -40 -35 4 -17 108 -58 172 -67 55 -9 66
-20 29 -30 -15 -3 -39 -15 -54 -26 -15 -10 -35 -19 -46 -19 -10 0 -35 -11 -55
-25 -21 -14 -61 -30 -90 -35 -54 -11 -98 -33 -98 -50 0 -14 6 -13 42 6 26 13
49 15 132 9 98 -6 102 -6 136 20 36 27 49 21 31 -14 -6 -11 -11 -38 -11 -61 0
-25 -8 -53 -19 -68 -36 -52 -33 -178 5 -239 20 -31 54 -179 54 -233 0 -25 7
-83 15 -130 20 -106 47 -412 46 -504 -2 -107 -37 -160 -134 -200 -40 -16 -58
-18 -237 -19 -239 -1 -269 6 -295 69 -15 37 -20 109 -9 139 10 24 106 65 153
65 30 0 41 4 41 15 0 24 -104 23 -131 -1 -25 -23 -42 -18 -28 8 9 17 9 24 -5
33 -18 14 -21 41 -6 50 8 5 8 11 0 20 -6 8 -14 40 -17 72 -3 32 -9 63 -14 69
-5 6 -14 35 -20 65 -10 46 -20 62 -69 109 -31 30 -79 72 -107 92 -55 41 -84
90 -150 260 -21 54 -41 98 -44 98 -17 0 -17 -35 0 -68 11 -20 29 -62 41 -92
57 -146 79 -179 155 -235 81 -60 133 -117 142 -155 3 -14 13 -47 22 -75 10
-30 16 -84 16 -135 0 -77 -2 -85 -20 -88 -11 -2 -29 -12 -40 -22 -24 -21 -132
-56 -198 -64 -26 -3 -82 -3 -125 1 -64 5 -81 11 -103 32 -34 33 -49 36 -49 12
0 -11 13 -31 30 -44 53 -45 211 -49 369 -9 40 11 76 23 79 29 4 5 17 15 30 22
17 9 22 9 22 -1 1 -7 8 -1 16 15 18 32 38 37 28 5 -8 -25 -56 -68 -96 -85 -53
-23 -29 -27 30 -6 8 4 12 -9 12 -46 0 -52 18 -111 42 -135 36 -36 62 -40 278
-42 200 -3 218 -1 265 19 70 30 112 65 137 116 19 40 20 53 14 180 -7 149 -19
265 -41 411 -8 52 -17 129 -20 170 -7 78 -19 128 -59 245 -28 83 -27 145 3
200 11 22 21 57 21 78 0 21 7 54 15 74 27 64 16 68 -68 23 -52 -28 -115 -39
-130 -23 -9 8 57 53 77 53 19 0 67 21 84 37 7 7 27 13 43 13 21 0 29 5 29 18
0 23 -30 39 -105 57 -73 17 -135 38 -135 46 0 12 83 20 94 9 12 -12 26 -13 26
-2 0 7 -27 24 -60 39 -3 1 -24 -8 -48 -20z"/>
<path d="M1756 1531 c-3 -5 3 -11 13 -14 13 -3 22 -17 27 -43 4 -21 16 -58 26
-82 17 -37 19 -63 17 -180 -3 -139 8 -201 57 -335 20 -53 17 -104 -7 -155 -13
-26 -22 -65 -23 -96 l0 -52 -66 -23 c-178 -64 -268 -67 -410 -17 -99 36 -125
42 -116 28 11 -18 106 -60 176 -78 91 -23 203 -14 317 25 103 36 119 38 133
11 14 -26 82 -60 203 -100 87 -28 111 -32 220 -33 144 -2 146 -1 236 103 43
50 61 79 61 98 0 29 -52 121 -76 135 -7 4 -27 20 -45 35 -31 26 -113 52 -137
44 -29 -9 -8 -29 43 -39 68 -15 125 -54 160 -112 35 -59 28 -83 -48 -162 -71
-74 -123 -95 -192 -79 -22 5 -58 10 -79 10 -93 0 -303 80 -333 126 -26 40 -23
119 5 174 29 54 26 89 -19 235 -30 94 -32 109 -30 242 1 106 -2 152 -14 185
-9 23 -23 66 -32 93 -10 28 -22 53 -28 57 -14 10 -33 10 -39 -1z"/>
<path d="M1728 1200 c-12 -28 -23 -40 -37 -40 -23 0 -108 -82 -122 -118 -28
-71 34 -412 68 -378 2 2 -9 57 -23 122 -32 143 -38 186 -30 220 9 34 90 120
121 128 27 7 70 70 61 91 -9 24 -20 17 -38 -25z"/>
<path d="M17 862 c-20 -22 -22 -52 -4 -52 12 0 57 51 57 65 0 13 -38 3 -53
-13z"/>
</g>
</svg>
