<?xml version="1.0" standalone="no"?>
<!DOCTYPE svg PUBLIC "-//W3C//DTD SVG 20010904//EN"
 "http://www.w3.org/TR/2001/REC-SVG-20010904/DTD/svg10.dtd">
<svg version="1.0" xmlns="http://www.w3.org/2000/svg"
 width="300.000000pt" height="400.000000pt" viewBox="0 0 300.000000 400.000000"
 preserveAspectRatio="xMidYMid meet" fillWidth='15px'> 
<metadata>
Created by potrace 1.10, written by Peter Selinger 2001-2011
</metadata>
<g transform="translate(0.000000,400.000000) scale(0.100000,-0.100000)"
fill="white" stroke="white">

<path d="M1920 3194 c-41 -7 -99 -15 -129 -17 -38 -3 -58 -10 -68 -22 -18 -26
-7 -32 17 -10 11 10 39 19 62 21 24 1 86 9 138 17 129 19 168 5 229 -84 31
-47 43 -107 19 -93 -10 5 -10 4 -1 -6 10 -11 10 -17 0 -29 -6 -8 -7 -12 -1 -8
7 4 10 -10 10 -43 -1 -26 1 -47 4 -45 3 2 7 -21 8 -51 1 -31 -2 -54 -8 -54 -5
0 -9 -3 -8 -7 1 -5 -4 -22 -12 -40 -14 -32 -15 -32 -27 -10 -7 12 -12 16 -13
9 0 -7 -4 -11 -9 -8 -12 8 -2 45 22 79 14 21 17 31 8 40 -8 8 -14 8 -23 -1 -9
-9 -15 -7 -25 6 -8 9 -11 11 -7 3 4 -9 3 -12 -4 -8 -15 10 -42 -3 -42 -20 0
-11 4 -13 13 -6 22 17 81 4 63 -14 -4 -4 -11 -1 -16 7 -7 11 -10 1 -10 -32 0
-34 -4 -48 -13 -48 -8 0 -28 -7 -46 -16 -25 -12 -38 -13 -62 -5 -36 13 -54 6
-36 -13 6 -8 16 -12 20 -9 5 3 21 -6 35 -20 34 -31 65 -47 89 -46 13 1 11 3
-7 9 -14 5 -19 9 -10 10 8 2 0 5 -19 9 -21 4 -35 12 -37 23 -1 11 3 15 12 11
8 -3 21 0 28 6 11 9 17 7 29 -9 14 -21 15 -21 15 5 0 31 4 37 25 30 25 -10 28
-43 4 -60 -16 -11 -18 -17 -8 -28 9 -12 5 -15 -26 -21 -63 -10 -68 -8 -139 59
-38 36 -63 65 -56 65 6 0 12 -4 12 -10 0 -17 13 -11 55 26 22 20 30 31 18 25
-12 -6 -28 -18 -36 -26 -13 -13 -21 -12 -62 12 -43 23 -47 24 -43 7 2 -10 10
-18 16 -16 7 1 12 -4 12 -12 0 -8 21 -32 46 -54 33 -28 43 -42 34 -47 -9 -6
-11 -4 -6 4 5 8 3 11 -5 10 -8 -2 -28 5 -46 14 -36 19 -47 21 -38 8 3 -5 1
-12 -4 -15 -4 -3 -8 4 -7 16 0 12 -4 23 -10 25 -14 5 -11 -34 4 -49 7 -7 12
-8 12 -3 0 4 9 0 21 -11 11 -10 20 -14 19 -9 -5 23 2 25 30 10 17 -9 28 -20
25 -25 -3 -5 -1 -11 5 -15 6 -4 8 -10 5 -15 -7 -11 23 -27 50 -26 13 1 19 7
18 19 -1 16 3 17 25 11 34 -9 52 -9 76 1 17 7 19 5 13 -23 -10 -51 -42 -113
-79 -156 -10 -11 -18 -29 -18 -40 1 -18 3 -17 16 7 8 15 19 27 24 27 6 0 10 8
10 18 0 10 11 33 24 50 l23 32 7 -54 c3 -30 3 -69 0 -87 -4 -28 -3 -31 6 -16
9 14 8 201 -2 244 0 5 4 20 10 34 6 15 8 36 5 47 -5 20 24 82 38 82 4 0 12
-14 18 -32 6 -17 14 -28 17 -25 4 3 -2 21 -13 40 -18 29 -19 37 -7 59 11 21
10 29 -2 54 -13 27 -13 27 16 -6 l29 -35 1 28 c0 15 9 44 20 64 41 77 22 151
-58 226 -51 47 -72 57 -72 35 0 -6 -12 0 -27 13 -57 51 -86 56 -213 33z m333
-168 c-3 -22 -2 -36 5 -36 6 0 12 15 14 33 l4 32 12 -42 c10 -32 10 -53 1 -88
-6 -25 -15 -48 -20 -51 -5 -3 -9 -17 -10 -32 l0 -27 -10 25 c-6 14 -8 35 -6
48 2 12 2 22 0 22 -2 0 -8 -10 -13 -22 -6 -17 -9 1 -10 62 0 74 -4 92 -29 137
-16 29 -26 55 -22 58 3 4 25 -14 48 -38 38 -40 41 -49 36 -81z m-247 -431 c27
-27 25 -45 -4 -40 -9 2 -21 4 -26 4 -5 1 -3 7 3 15 9 11 9 16 0 22 -8 5 -10 3
-4 -7 5 -8 4 -10 0 -6 -13 11 -15 37 -4 37 6 0 21 -11 35 -25z"/>
<path d="M1614 3094 c-92 -49 -94 -50 -94 -98 0 -33 8 -55 33 -89 63 -90 118
-157 127 -157 6 0 10 -26 10 -57 0 -52 -5 -65 -47 -128 -50 -74 -178 -237
-250 -319 -24 -26 -43 -55 -43 -64 0 -12 5 -9 17 8 9 14 30 41 47 61 84 97
180 220 234 300 49 71 52 79 52 140 0 35 5 71 10 79 5 8 10 13 11 10 0 -3 2
-18 4 -34 2 -15 7 -31 11 -35 4 -3 4 7 0 22 -5 22 -4 27 6 21 7 -4 5 2 -5 14
-16 18 -17 23 -5 39 7 10 23 19 36 19 17 1 20 -2 13 -9 -15 -15 -14 -27 2 -22
18 8 19 72 0 79 -12 5 -14 1 -9 -17 4 -17 1 -24 -9 -24 -18 0 -19 11 -4 38 6
13 17 18 26 15 11 -4 13 -2 9 9 -3 8 0 15 6 15 7 0 7 4 0 13 -7 7 -11 24 -10
38 2 49 -2 70 -13 63 -6 -3 -9 -15 -6 -25 3 -11 1 -17 -4 -13 -14 8 -10 46 7
65 9 10 14 26 12 36 -3 14 -7 12 -21 -14 -12 -23 -16 -55 -16 -116 1 -85 -11
-124 -54 -181 -13 -18 -16 -16 -54 35 -22 30 -48 60 -57 68 -41 34 -69 138
-44 158 7 6 38 23 68 39 66 34 64 33 59 39 -3 2 -27 -7 -55 -21z"/>
<path d="M1910 3093 c0 -6 -9 -9 -21 -6 -15 4 -20 2 -17 -7 5 -17 38 -22 38
-7 0 7 5 5 10 -3 5 -8 10 -10 10 -5 0 6 -5 17 -10 25 -5 8 -10 10 -10 3z"/>
<path d="M2018 3065 c-3 -6 -1 -26 5 -45 5 -19 11 -30 14 -23 6 15 -12 80 -19
68z"/>
<path d="M2121 3051 c-7 -5 -11 -19 -9 -32 2 -18 10 -25 31 -27 23 -3 27 0 27
22 0 28 -29 49 -49 37z"/>
<path d="M1873 3031 c-43 -21 -41 -31 4 -21 37 9 53 6 53 -10 0 -4 -10 -6 -22
-2 -16 4 -19 2 -13 -8 6 -10 4 -12 -9 -7 -9 4 -15 3 -12 -2 8 -13 70 -11 78 2
4 7 7 21 7 32 -1 16 -2 16 -9 -5 -8 -24 -8 -24 -9 -3 -1 33 -30 43 -68 24z"/>
<path d="M2124 2954 c8 -17 25 -38 38 -46 22 -15 23 -14 23 13 1 27 0 27 -17
12 -10 -9 -18 -12 -18 -7 0 5 -10 20 -21 34 l-20 25 15 -31z"/>
<path d="M1991 2930 l1 -45 11 33 c7 24 7 36 -1 44 -9 9 -12 1 -11 -32z"/>
<path d="M2105 2873 c-50 -7 -47 -18 5 -18 37 0 46 3 38 13 -6 6 -11 11 -12
11 0 -1 -14 -4 -31 -6z"/>
<path d="M1812 2778 c-17 -17 -15 -32 8 -53 11 -10 20 -13 20 -8 0 6 -7 17
-16 24 -15 12 -14 15 6 31 14 12 17 18 8 18 -8 0 -19 -5 -26 -12z"/>
<path d="M1890 2783 c0 -21 38 -32 69 -20 17 6 31 15 31 19 0 12 -14 10 -36
-6 -16 -13 -22 -13 -41 0 -13 8 -23 11 -23 7z"/>
<path d="M1778 2598 c-3 -16 -1 -28 5 -28 5 0 18 -9 28 -21 9 -11 21 -19 26
-18 11 3 33 -41 33 -67 0 -12 7 -24 15 -28 8 -3 15 -1 15 4 0 6 -4 10 -10 10
-5 0 -10 14 -10 31 0 22 -10 40 -35 65 -19 18 -35 38 -35 44 0 6 -4 9 -9 5 -5
-3 -11 3 -13 12 -3 13 -6 10 -10 -9z"/>
<path d="M1820 2479 c0 -15 33 -99 37 -95 6 6 -16 78 -28 91 -5 5 -9 7 -9 4z"/>
<path d="M1650 2414 c0 -31 2 -35 15 -24 11 9 15 9 15 1 0 -7 5 -9 12 -5 6 4
8 3 5 -3 -8 -13 11 -83 23 -83 6 0 10 8 10 18 0 10 3 13 8 6 4 -6 21 -10 39
-9 27 1 34 -4 50 -32 9 -18 21 -33 26 -33 10 0 -18 53 -37 69 -8 7 -19 10 -25
7 -5 -3 -12 0 -14 6 -4 10 -8 10 -15 -1 -8 -11 -11 -9 -17 10 -7 22 -8 22 -21
4 -13 -17 -14 -16 -14 17 0 56 -8 70 -32 57 -19 -10 -20 -9 -15 10 3 11 1 21
-4 21 -5 0 -9 -16 -9 -36z"/>
<path d="M2165 2234 c4 -32 14 -86 23 -119 26 -102 13 -228 -38 -343 -14 -31
-20 -66 -20 -119 0 -96 28 -352 41 -372 7 -11 8 -3 5 29 -34 274 -35 405 -2
486 13 32 30 96 36 140 11 72 10 92 -9 182 -12 55 -21 114 -21 131 0 16 -5 33
-11 37 -9 5 -10 -9 -4 -52z"/>
<path d="M1966 2248 c13 -23 37 -48 46 -48 11 0 -33 59 -45 59 -5 1 -5 -5 -1
-11z"/>
<path d="M1572 2152 c-7 -29 -12 -63 -11 -75 1 -12 7 7 15 43 8 35 13 69 11
75 -2 5 -9 -14 -15 -43z"/>
<path d="M1948 2195 c-3 -6 -2 -21 3 -34 8 -19 12 -21 24 -11 13 10 15 9 15
-9 0 -12 5 -19 10 -16 6 3 10 -1 10 -9 0 -9 5 -16 10 -16 6 0 10 -7 10 -15 0
-24 17 -17 22 9 4 17 1 23 -8 19 -8 -3 -17 3 -21 13 -4 11 -15 27 -24 37 -13
15 -19 16 -25 5 -6 -9 -10 -6 -14 12 -3 14 -9 20 -12 15z"/>
<path d="M1306 2121 c-56 -58 -306 -428 -351 -520 -67 -134 -125 -303 -132
-383 -6 -75 -10 -78 -97 -78 -34 0 -62 7 -90 24 -24 14 -67 27 -102 31 -76 8
-128 37 -172 95 -33 44 -34 45 -29 125 3 44 8 88 12 98 4 9 3 17 -3 17 -11 0
-63 -103 -82 -164 -7 -22 -10 -62 -7 -91 11 -105 58 -158 187 -209 50 -19 107
-48 125 -65 46 -40 91 -51 213 -51 93 0 107 -2 139 -25 20 -13 39 -22 42 -19
3 4 -3 11 -13 18 -10 6 -30 23 -44 39 -28 30 -45 35 -35 10 6 -15 -3 -16 -100
-10 -113 7 -166 23 -207 62 -14 13 -63 38 -110 56 -110 41 -160 90 -179 172
-11 52 -10 63 10 127 27 88 45 103 35 31 -15 -117 89 -230 214 -231 25 0 56
-7 70 -15 14 -8 36 -20 50 -27 14 -6 27 -13 29 -15 2 -1 -2 -11 -10 -20 -11
-15 -10 -15 9 1 23 20 31 10 10 -14 -7 -8 -1 -4 15 10 15 13 37 25 49 27 21 3
21 3 3 -17 -10 -11 -21 -17 -25 -15 -4 2 -15 -4 -25 -15 -18 -20 -18 -20 5
-17 13 2 36 19 52 37 38 46 46 32 8 -15 -16 -21 -30 -40 -30 -42 0 -11 22 12
52 53 18 25 34 41 36 35 2 -6 -13 -35 -34 -64 -21 -28 -31 -46 -21 -38 20 16
23 2 5 -19 -7 -8 -3 -6 10 4 15 13 22 15 22 6 0 -7 11 -1 25 14 22 24 24 32
16 63 -5 19 -7 41 -4 49 3 8 0 14 -7 14 -21 0 -5 98 35 217 47 137 109 266
178 368 121 179 225 327 256 360 39 44 36 57 -3 16z m-468 -1040 c0 -16 -6
-35 -14 -42 -9 -7 -14 -8 -14 -1 0 6 5 14 10 17 6 3 10 11 10 17 0 5 -9 0 -20
-13 -27 -33 -25 -14 3 21 12 16 22 29 23 29 1 1 1 -12 2 -28z"/>
<path d="M2074 1999 c4 -25 2 -70 -4 -100 -11 -55 -48 -139 -62 -139 -5 0 -8
-6 -8 -14 0 -7 -7 -19 -16 -27 -8 -7 -25 -31 -37 -53 -21 -40 -22 -51 -22
-356 1 -333 7 -385 47 -418 44 -37 107 -123 101 -139 -6 -14 -8 -14 -20 3 -14
19 -15 17 -17 -31 -1 -13 -9 -21 -23 -23 -22 -3 -25 0 -27 31 -1 17 -45 51
-54 42 -4 -4 -1 -10 6 -12 20 -7 15 -61 -7 -73 -22 -11 -76 4 -67 19 3 5 0 14
-8 20 -8 7 -17 28 -21 49 -4 20 -18 55 -31 79 -23 38 -25 51 -24 160 2 143
-25 265 -96 430 -8 17 -14 47 -14 67 0 20 -9 62 -20 94 -11 32 -21 77 -23 100
-1 23 -5 42 -8 42 -18 0 -39 88 -40 168 -1 48 -4 76 -6 62 -3 -14 -12 -34 -21
-45 -12 -14 -13 -16 -2 -8 13 10 15 2 15 -56 0 -40 -5 -74 -13 -83 -7 -9 -11
-26 -8 -39 2 -13 -1 -30 -7 -37 -7 -9 -5 -11 9 -5 17 6 18 5 4 -12 -13 -16
-10 -16 17 3 39 27 47 28 40 2 -3 -11 -2 -20 2 -20 4 0 7 -8 8 -18 1 -10 11
-46 22 -80 12 -34 21 -65 21 -69 0 -5 -18 -19 -40 -33 -22 -14 -40 -29 -40
-34 0 -4 15 3 34 18 42 32 45 32 43 4 -1 -12 -16 -36 -33 -55 -17 -18 -26 -33
-20 -33 6 0 23 14 37 32 26 31 27 31 38 10 10 -19 6 -29 -33 -81 -36 -50 -45
-57 -49 -41 -3 11 -11 20 -17 20 -9 0 -9 -4 -3 -12 24 -30 25 -137 2 -122 -5
3 -6 11 -2 17 5 8 2 8 -9 0 -8 -7 -17 -10 -21 -7 -8 9 4 35 13 29 5 -3 12 -1
15 5 4 6 1 9 -6 8 -6 -2 -14 3 -17 11 -2 8 0 11 6 7 6 -3 14 -2 17 4 4 6 1 9
-6 8 -9 -2 -15 13 -19 44 -3 27 -12 54 -19 60 -11 11 -12 9 -7 -8 4 -12 8 -53
9 -90 1 -60 -3 -76 -28 -123 -17 -30 -65 -90 -107 -132 -57 -58 -79 -87 -84
-113 -7 -39 -1 -66 16 -66 7 0 8 6 0 19 -10 20 -4 54 9 47 3 -3 69 -7 146 -11
93 -4 147 -11 161 -20 27 -17 39 -62 23 -82 -11 -12 -15 -11 -26 12 -8 14 -11
31 -7 38 6 9 5 9 -7 0 -9 -8 -20 -9 -29 -3 -20 13 -30 12 -30 0 0 -5 7 -10 15
-10 18 0 49 -46 40 -60 -4 -7 -46 -10 -118 -9 -62 2 -177 0 -257 -5 -134 -6
-147 -5 -176 13 -25 15 -31 24 -27 45 7 33 25 47 62 48 36 1 38 4 11 18 -16 8
-28 7 -51 -4 -35 -18 -47 -14 -73 20 -20 28 -25 94 -13 157 5 22 4 37 -2 37
-13 0 -25 -102 -18 -147 6 -37 51 -93 74 -93 10 0 11 -5 3 -19 -17 -33 -11
-51 25 -72 30 -18 51 -21 138 -21 56 1 133 5 170 10 37 4 102 4 144 0 90 -10
121 -1 177 46 l38 33 -16 31 c-9 18 -22 32 -29 32 -6 0 -55 5 -107 11 -52 6
-125 10 -163 9 -87 -2 -99 16 -42 68 l38 35 19 -24 c16 -21 17 -21 12 -4 -5
19 -5 19 6 2 16 -24 8 -30 -24 -18 -17 7 -26 7 -26 1 0 -6 -8 -10 -17 -11 -15
0 -15 -2 2 -9 22 -9 79 -3 108 12 13 7 29 4 54 -7 25 -12 46 -15 72 -10 20 4
59 8 88 9 l51 2 6 -35 c4 -20 17 -58 30 -86 14 -27 28 -68 33 -89 5 -24 18
-47 34 -59 24 -18 34 -18 104 -9 67 9 81 15 101 39 13 15 23 34 24 41 0 27
-34 79 -85 127 l-52 50 -8 100 c-4 55 -7 107 -7 115 1 254 5 410 12 404 16
-19 32 -83 40 -164 5 -47 16 -139 25 -205 15 -108 21 -126 56 -181 21 -33 52
-73 69 -89 30 -28 31 -29 78 -16 65 17 132 61 132 86 0 30 -25 61 -62 75 -54
21 -76 48 -88 106 -6 30 -16 56 -21 60 -6 3 -7 -5 -3 -23 24 -106 40 -133 89
-150 37 -12 67 -76 45 -96 -10 -9 -14 -9 -17 1 -3 7 -15 23 -27 34 -11 12 -15
17 -7 13 9 -5 12 -4 7 3 -3 5 0 13 6 15 9 4 10 6 1 6 -6 1 -15 -3 -18 -9 -3
-5 -15 -10 -26 -10 -18 0 -16 -3 10 -26 43 -36 39 -50 -19 -64 -59 -14 -70 -8
-122 68 -24 34 -36 73 -59 190 -16 80 -29 164 -29 187 0 52 -27 163 -45 192
-18 26 -20 47 -4 37 7 -4 9 0 5 13 -9 27 3 60 15 41 12 -18 11 -31 -1 -23 -6
3 -7 -1 -4 -9 6 -16 34 -23 34 -8 0 4 -8 21 -19 38 -15 24 -16 33 -6 47 6 9
15 14 18 10 10 -10 8 -25 -2 -18 -5 3 -2 -12 7 -34 9 -22 20 -35 23 -29 3 5 9
2 13 -8 3 -9 9 -15 11 -12 3 2 -6 28 -20 56 -29 61 -30 66 -10 82 8 7 13 16
10 20 -3 4 3 14 12 21 15 12 16 12 10 -4 -4 -10 0 -31 8 -47 19 -37 19 -51 0
-26 -18 23 -20 14 -4 -16 16 -29 28 -6 24 44 -2 22 0 36 6 33 5 -4 6 2 2 11
-5 12 -3 15 6 9 10 -6 11 -3 1 14 -6 12 -16 19 -22 15 -7 -4 -8 1 -2 17 4 13
7 33 6 44 -1 15 1 16 8 6 4 -8 6 -19 4 -25 -3 -7 2 -20 10 -31 13 -18 14 -17
12 17 -2 21 -7 43 -13 50 -5 7 -10 39 -11 72 0 32 -6 64 -12 70 -10 8 -11 0
-6 -35z m10 -208 c-4 -9 -7 -26 -7 -39 1 -35 -9 -17 -12 21 -2 24 1 34 11 34
10 0 12 -6 8 -16z m-498 -19 c-3 -2 -1 -13 4 -23 8 -14 6 -21 -12 -30 -21 -11
-22 -11 -9 5 12 14 12 16 -2 10 -14 -5 -17 10 -7 36 1 3 2 8 1 12 0 4 6 5 15
1 8 -3 13 -8 10 -11z m154 -557 c6 -38 14 -81 17 -94 5 -22 4 -22 -17 -11 -16
9 -47 11 -97 6 l-73 -6 20 51 c11 27 20 61 20 75 0 14 17 53 37 86 l38 61 22
-49 c12 -27 27 -80 33 -119z m-192 -36 c-2 -6 3 -14 10 -16 8 -3 10 1 6 14 -6
14 -4 15 6 6 7 -7 9 -17 4 -25 -9 -13 -11 -19 -13 -40 -1 -9 -4 -9 -13 0 -17
17 -28 15 -21 -5 5 -12 3 -14 -8 -8 -11 6 -12 5 -1 -6 6 -7 12 -17 12 -22 0
-4 -6 -5 -12 -1 -8 4 -10 3 -5 -2 5 -5 14 -9 20 -9 5 0 12 -6 15 -14 3 -8 0
-11 -7 -7 -7 5 -9 1 -5 -11 4 -13 0 -11 -15 7 -12 14 -19 18 -15 9 3 -10 1
-20 -5 -24 -15 -9 -14 -22 3 -22 8 0 12 7 9 16 -3 11 0 10 11 -3 16 -20 51
-33 40 -15 -3 5 0 9 6 9 8 0 8 6 0 20 -6 10 -10 23 -9 27 1 4 1 15 0 23 -1 12
-3 12 -10 2 -7 -11 -9 -11 -14 1 -4 11 8 14 56 16 34 1 76 4 93 7 49 9 84 -19
84 -66 l0 -38 -29 29 c-16 16 -34 29 -41 29 -6 0 6 -16 26 -36 45 -45 39 -49
-76 -57 -74 -5 -89 -3 -117 15 -20 11 -33 15 -33 8 0 -6 -4 -8 -10 -5 -5 3
-10 0 -10 -7 -1 -8 -7 -5 -16 7 -8 11 -19 21 -24 21 -6 1 -12 2 -16 3 -3 0 7
16 21 35 18 23 32 33 42 29 11 -4 14 -3 9 6 -4 6 -1 22 7 34 8 12 15 27 17 32
3 16 20 45 25 45 3 0 4 -5 3 -11z m152 -318 c12 -24 13 -41 2 -41 -8 0 -32 43
-32 55 0 13 21 3 30 -14z"/>
<path d="M1468 1065 c-4 -4 -4 -14 -1 -23 5 -11 3 -13 -6 -7 -10 6 -11 3 -2
-14 14 -25 23 -28 14 -4 -4 10 -2 14 5 9 6 -3 13 -2 16 2 7 12 -17 45 -26 37z"/>
<path d="M1189 1897 c-66 -88 -103 -147 -97 -153 3 -3 15 11 26 30 12 20 40
61 64 92 68 89 71 94 62 94 -5 0 -30 -29 -55 -63z"/>
<path d="M1986 1923 c-3 -16 -8 -46 -12 -68 -4 -22 -12 -51 -19 -65 -21 -42
-27 -70 -16 -70 6 0 11 6 11 13 0 7 9 31 21 52 13 24 23 65 25 103 4 65 -1 82
-10 35z"/>
<path d="M1501 1795 c-12 -30 -39 -70 -58 -90 -19 -20 -33 -38 -30 -41 15 -15
89 87 117 161 19 49 -5 24 -29 -30z"/>
<path d="M1447 1788 c-16 -27 -26 -52 -23 -55 6 -7 58 85 54 96 -1 6 -16 -13
-31 -41z"/>
<path d="M1675 1800 c3 -5 1 -26 -4 -47 -12 -44 -7 -52 21 -34 19 12 20 11 14
-13 -6 -26 7 -37 18 -13 4 6 4 -3 1 -21 -4 -29 -2 -32 14 -27 16 5 19 -2 24
-46 6 -49 12 -67 21 -58 2 2 -1 32 -7 67 -7 48 -13 62 -24 58 -11 -5 -14 2
-11 27 2 21 -1 31 -9 30 -7 -2 -10 4 -7 12 7 18 0 19 -27 5 -18 -10 -19 -8
-13 30 5 28 3 40 -5 40 -7 0 -9 -4 -6 -10z"/>
<path d="M1575 1685 c-10 -9 -20 -26 -21 -40 -1 -25 10 -33 21 -15 3 6 12 10
18 10 7 -1 1 -10 -12 -20 -13 -11 -17 -20 -10 -20 8 0 5 -6 -7 -16 -19 -15
-19 -15 1 -5 32 15 61 40 48 41 -6 0 -10 9 -8 20 4 21 -9 27 -20 10 -9 -14
-22 -12 -22 4 0 7 7 13 15 12 8 0 16 7 17 17 2 9 3 17 2 17 -1 0 -11 -7 -22
-15z"/>
<path d="M1504 1625 c-8 -21 5 -85 23 -113 21 -33 26 -22 7 16 -8 17 -15 50
-16 72 0 42 -5 50 -14 25z"/>
<path d="M2089 1593 c-17 -58 -17 -177 0 -217 18 -44 20 -28 6 43 -12 55 -12
75 1 139 18 84 13 106 -7 35z"/>
<path d="M1280 1575 c0 -32 26 -85 42 -85 6 0 3 9 -7 20 -10 11 -19 36 -19 55
-1 40 -16 49 -16 10z"/>
<path d="M1318 1585 c-10 -11 10 -67 34 -92 l21 -23 -26 0 c-15 0 -27 -5 -27
-10 0 -6 15 -8 38 -4 30 4 45 1 75 -21 22 -14 37 -20 35 -13 -2 7 -22 22 -44
33 -50 26 -82 59 -90 93 -3 15 -7 31 -8 35 -1 5 -4 5 -8 2z"/>
<path d="M1378 1566 c-3 -14 -1 -31 3 -38 7 -10 9 -10 9 2 0 8 3 25 6 38 4 12
2 22 -4 22 -5 0 -12 -11 -14 -24z"/>
<path d="M1591 1571 c-23 -17 -38 -51 -23 -51 14 0 67 49 54 50 -7 0 -10 5 -7
10 9 14 3 12 -24 -9z"/>
<path d="M1600 1517 c-14 -12 -21 -19 -16 -14 21 16 28 6 10 -15 -19 -22 -19
-22 14 1 36 25 41 34 15 24 -16 -6 -16 -5 -4 10 19 24 11 21 -19 -6z"/>
<path d="M1020 1507 c0 -29 30 -86 51 -98 13 -6 25 -6 39 1 29 15 25 20 -10
14 -28 -6 -31 -3 -55 47 -14 30 -25 46 -25 36z"/>
<path d="M1710 1482 c0 -4 9 -15 19 -24 12 -10 22 -35 26 -65 3 -26 10 -66 15
-88 8 -35 8 -33 4 20 -9 112 -14 133 -40 150 -13 8 -24 12 -24 7z"/>
<path d="M1250 1451 c-35 -14 -110 -64 -110 -72 0 -13 4 -12 59 25 27 19 56
36 63 39 7 2 11 7 8 9 -3 3 -12 3 -20 -1z"/>
<path d="M1032 1225 c-13 -20 -21 -42 -19 -48 2 -6 13 7 25 28 13 20 21 42 19
48 -2 6 -13 -7 -25 -28z"/>
<path d="M1360 1142 c0 -5 -29 -41 -65 -80 -36 -40 -65 -82 -65 -92 0 -27 15
-26 17 1 1 12 26 46 56 78 57 60 85 101 67 101 -5 0 -10 -4 -10 -8z"/>
<path d="M1873 1044 c3 -16 9 -51 12 -79 7 -53 29 -105 45 -105 5 0 1 15 -9
33 -11 17 -22 62 -26 99 -4 37 -11 71 -17 74 -6 4 -8 -4 -5 -22z"/>
</g>
</svg>
