<?xml version="1.0" standalone="no"?>
<!DOCTYPE svg PUBLIC "-//W3C//DTD SVG 20010904//EN"
 "http://www.w3.org/TR/2001/REC-SVG-20010904/DTD/svg10.dtd">
<svg version="1.0" xmlns="http://www.w3.org/2000/svg"
 width="300.000000pt" height="300.000000pt" viewBox="0 0 300.000000 300.000000"
 preserveAspectRatio="xMidYMid meet">
<metadata>
Created by potrace 1.10, written by Peter Selinger 2001-2011
</metadata>
<g transform="translate(0.000000,300.000000) scale(0.100000,-0.100000)"
fill="#000000" stroke="none">
<path d="M2440 2683 c0 -5 42 -21 93 -38 50 -16 95 -30 99 -32 3 -2 4 -12 1
-24 -5 -16 -8 -18 -15 -7 -7 10 -11 10 -15 1 -2 -7 -19 -13 -36 -14 -33 -1 97
-31 191 -44 31 -4 52 -12 52 -19 0 -8 -11 -11 -30 -8 -37 5 -39 -5 -3 -19 22
-8 24 -12 13 -19 -9 -6 -17 -5 -21 1 -3 6 -19 12 -35 14 -16 2 -55 13 -88 25
-32 11 -66 19 -75 17 -20 -5 -8 -10 56 -27 23 -6 48 -17 56 -24 7 -7 28 -21
45 -30 35 -18 35 -20 -10 -77 -15 -20 -28 -42 -28 -49 0 -20 25 5 65 66 20 30
41 52 46 49 5 -4 9 3 9 14 0 12 4 21 8 21 5 0 9 16 10 35 2 38 10 34 -111 56
l-69 13 5 33 c5 29 3 34 -21 39 -15 3 -58 17 -95 30 -71 25 -97 29 -97 17z"/>
<path d="M2233 2657 c-58 -31 -98 -69 -139 -133 -51 -80 -36 -77 24 5 36 50
66 79 104 100 29 16 60 34 68 40 30 20 -13 11 -57 -12z"/>
<path d="M2452 2615 c-7 -8 -29 -15 -48 -15 -19 0 -33 -4 -29 -9 3 -5 -3 -12
-12 -14 -17 -4 -17 -5 0 -6 12 -1 17 -10 17 -31 0 -19 5 -30 14 -30 30 0 46
13 46 36 0 20 5 24 30 24 l31 0 -16 30 c-18 34 -16 34 -33 15z"/>
<path d="M2166 2542 c-7 -21 20 -89 31 -78 3 3 -2 17 -11 30 -9 14 -16 31 -15
38 0 7 5 2 11 -12 6 -16 12 -20 15 -12 4 10 8 10 21 0 14 -12 14 -11 1 10 -8
12 -16 17 -18 11 -2 -7 -9 -2 -16 11 -13 23 -13 23 -19 2z"/>
<path d="M2260 2536 c0 -3 9 -20 19 -38 10 -18 22 -47 26 -64 5 -27 1 -35 -30
-62 -19 -18 -52 -41 -73 -51 -45 -24 -101 -70 -86 -71 19 0 114 62 161 105 49
46 54 74 23 135 -17 34 -40 60 -40 46z"/>
<path d="M2144 2495 c17 -43 15 -47 -9 -20 l-26 30 6 -33 c6 -35 25 -72 37
-72 13 0 9 17 -7 30 -8 7 -15 17 -15 23 0 8 3 8 11 0 6 -6 18 -9 25 -6 11 4
11 10 -2 34 -15 30 -31 41 -20 14z"/>
<path d="M2020 2441 c-5 -11 -10 -41 -10 -68 0 -52 -44 -169 -68 -178 -23 -9
-222 -159 -217 -164 5 -4 31 13 190 125 37 26 57 49 76 91 l26 57 18 -53 c9
-29 24 -55 33 -58 8 -4 31 -24 50 -45 19 -21 44 -38 56 -38 18 0 16 4 -14 28
-97 76 -125 135 -118 253 4 70 -3 85 -22 50z"/>
<path d="M2806 2395 c-3 -9 -6 -24 -6 -34 0 -9 -17 -43 -37 -76 -38 -60 -38
-60 -47 -33 -8 23 -14 27 -35 22 -14 -3 -36 -11 -49 -17 -19 -9 -33 -6 -85 21
-34 17 -77 41 -94 52 -18 12 -33 17 -33 11 0 -5 21 -22 48 -37 71 -41 150 -93
157 -104 10 -16 -8 -11 -34 9 -14 10 -31 16 -40 13 -9 -3 -12 -1 -8 5 4 7 -8
20 -27 32 -39 24 -59 28 -30 6 19 -15 19 -15 -1 -9 -20 6 -20 6 0 -11 11 -10
38 -25 60 -36 22 -10 66 -38 99 -63 37 -30 68 -46 85 -45 l26 1 -27 8 c-30 9
-101 60 -94 68 3 2 19 -8 37 -22 24 -21 35 -24 43 -15 8 8 8 13 0 16 -21 7
-95 65 -90 70 3 3 26 -9 51 -26 50 -33 64 -39 46 -18 -6 8 -8 16 -5 19 2 3
-13 13 -36 22 -22 9 -40 18 -40 21 0 10 55 -7 72 -22 15 -14 21 -10 57 47 22
34 43 78 47 97 7 36 1 54 -10 28z"/>
<path d="M2240 2215 c5 -6 6 -15 2 -20 -4 -4 3 -3 15 4 17 9 29 8 58 -6 l36
-17 -8 -71 c-8 -69 -8 -166 -2 -400 4 -117 3 -122 -27 -186 -17 -36 -48 -92
-68 -123 -21 -32 -35 -60 -32 -63 7 -7 64 74 96 137 62 122 72 201 44 354 -16
87 -13 173 12 326 6 33 4 36 -31 49 -28 10 -34 16 -24 22 9 5 -4 8 -34 7 -36
0 -45 -3 -37 -13z"/>
<path d="M2726 2201 c-3 -5 0 -11 7 -14 7 -3 19 -23 27 -46 7 -23 17 -41 22
-41 13 0 10 18 -12 60 -22 42 -36 55 -44 41z"/>
<path d="M2290 2180 c23 -18 50 -26 50 -15 0 6 -56 35 -67 35 -4 0 3 -9 17
-20z"/>
<path d="M2030 2173 c0 -17 66 -87 114 -121 25 -18 46 -29 46 -24 0 5 -11 17
-25 26 -14 9 -25 22 -25 29 0 7 -18 31 -40 52 -22 21 -40 35 -40 31 0 -5 -7
-3 -15 4 -8 7 -15 8 -15 3z"/>
<path d="M2395 2161 c11 -13 33 -32 48 -43 24 -17 32 -18 51 -9 17 9 29 9 58
-4 21 -8 54 -15 75 -14 l38 1 -41 8 c-22 5 -58 15 -78 24 -29 12 -41 13 -56 4
-16 -10 -27 -7 -67 22 -34 24 -42 27 -28 11z"/>
<path d="M2051 2094 c38 -40 128 -108 134 -102 2 2 -30 29 -71 61 -41 32 -74
62 -74 67 0 6 -5 10 -12 10 -7 0 4 -16 23 -36z"/>
<path d="M2008 2094 c6 -12 42 -45 79 -74 38 -29 74 -57 81 -63 6 -5 12 -6 12
-1 0 5 -17 20 -37 34 -20 14 -61 48 -92 75 -30 28 -49 40 -43 29z"/>
<path d="M2038 2020 c80 -77 123 -110 121 -93 -1 11 -185 173 -195 173 -5 -1
28 -37 74 -80z"/>
<path d="M1590 2009 c-36 -11 -120 -24 -187 -29 -68 -6 -180 -15 -250 -20
-117 -9 -143 -14 -132 -24 4 -3 157 6 375 24 79 6 150 19 203 35 44 14 81 28
81 30 0 8 -21 4 -90 -16z"/>
<path d="M2023 1966 c27 -25 54 -46 60 -46 13 0 11 2 -58 54 l-50 38 48 -46z"/>
<path d="M1960 1994 c0 -13 108 -119 114 -113 3 3 -21 32 -54 64 -33 33 -60
55 -60 49z"/>
<path d="M890 1917 c-52 -22 -93 -49 -137 -91 -35 -32 -61 -61 -59 -64 3 -2
33 20 66 51 39 35 86 66 128 83 62 26 109 55 87 54 -6 -1 -44 -15 -85 -33z"/>
<path d="M967 1871 c-14 -17 -27 -27 -31 -24 -5 6 -15 -15 -31 -66 -5 -16 -4
-21 4 -17 6 4 11 16 11 27 0 10 7 19 15 19 8 0 15 5 15 11 0 7 16 27 36 45 21
21 30 34 21 34 -9 0 -26 -13 -40 -29z"/>
<path d="M1676 1847 c-16 -55 10 -164 57 -245 32 -54 29 -30 -4 43 -24 50 -34
88 -39 149 -5 64 -8 75 -14 53z"/>
<path d="M884 1828 c-10 -18 -21 -46 -25 -63 l-7 -30 -2 35 -2 35 -9 -40 c-4
-22 -7 -58 -7 -80 1 -30 2 -33 5 -12 3 16 11 31 19 34 8 3 14 17 14 32 0 14 9
46 20 70 24 52 19 67 -6 19z"/>
<path d="M795 1780 c-20 -33 -17 -170 4 -170 5 0 4 13 -2 30 -8 22 -8 44 1 87
11 56 11 75 -3 53z"/>
<path d="M667 1753 c-3 -5 -17 -55 -32 -112 -14 -57 -36 -122 -48 -143 l-22
-40 -82 6 c-69 4 -83 3 -83 -10 0 -40 121 -70 172 -43 11 6 22 9 24 6 6 -6
-61 -161 -97 -225 -17 -29 -49 -75 -71 -103 -22 -28 -38 -53 -35 -55 12 -12
92 101 141 196 89 175 109 234 112 330 2 47 10 110 18 140 14 52 15 72 3 53z
m-41 -248 c-19 -65 -46 -87 -108 -87 -49 0 -98 16 -98 33 0 6 7 8 16 5 9 -3
39 -9 68 -12 l53 -6 31 42 c17 23 34 57 38 74 4 17 9 25 11 19 3 -7 -3 -37
-11 -68z"/>
<path d="M761 1665 c0 -38 3 -76 8 -84 5 -7 7 17 4 60 -6 99 -11 109 -12 24z"/>
<path d="M2147 1670 c-2 -8 -23 -67 -45 -130 -23 -63 -39 -116 -37 -119 11
-10 99 233 92 252 -3 8 -6 7 -10 -3z"/>
<path d="M744 1597 c2 -38 9 -74 16 -80 9 -9 10 -6 5 16 -4 15 -11 51 -16 80
-8 51 -8 51 -5 -16z"/>
<path d="M720 1554 c0 -27 5 -56 11 -64 7 -11 8 3 3 45 -8 75 -14 83 -14 19z"/>
<path d="M1310 1510 c30 -27 57 -47 59 -44 6 6 -91 93 -104 93 -5 0 15 -22 45
-49z"/>
<path d="M1372 1498 c35 -35 65 -59 67 -53 4 10 -106 115 -121 115 -5 0 20
-28 54 -62z"/>
<path d="M1410 1554 c0 -17 120 -148 128 -140 2 3 -21 33 -52 66 -31 34 -56
65 -56 71 0 5 -4 9 -10 9 -5 0 -10 -3 -10 -6z"/>
<path d="M1570 1545 c0 -6 19 -29 42 -50 23 -22 36 -32 29 -22 -8 9 -11 20 -8
23 5 5 22 -20 27 -41 5 -21 53 -75 66 -75 17 0 18 22 2 39 -11 11 -10 12 1 6
9 -5 7 2 -5 17 -10 14 -22 24 -25 22 -4 -2 -10 3 -13 12 -3 8 -10 13 -15 9 -6
-3 -15 4 -22 16 -8 16 -13 18 -19 9 -6 -10 -15 -6 -34 16 -14 16 -26 24 -26
19z"/>
<path d="M1240 1533 c0 -6 18 -24 40 -42 22 -17 40 -28 40 -22 0 5 -18 24 -40
41 -22 17 -40 28 -40 23z"/>
<path d="M1419 1493 c44 -54 59 -68 66 -61 3 2 -21 29 -52 59 l-57 54 43 -52z"/>
<path d="M1510 1520 c6 -10 15 -22 20 -25 6 -3 10 -12 10 -18 0 -7 -14 3 -31
21 -17 19 -32 32 -34 30 -2 -2 19 -27 47 -56 28 -29 53 -51 55 -48 3 3 21 -6
39 -21 55 -42 39 -17 -41 62 -41 40 -70 65 -65 55z"/>
<path d="M696 1492 c-4 -18 -5 -36 -2 -39 11 -12 17 5 14 39 l-3 33 -9 -33z"/>
<path d="M1610 1455 c65 -65 70 -70 70 -59 0 11 -113 124 -124 124 -6 0 19
-29 54 -65z"/>
<path d="M1050 1480 c-11 -7 2 -10 43 -10 43 0 57 -4 57 -15 0 -25 -22 -64
-40 -70 -42 -13 -94 -14 -108 -3 -11 9 -14 10 -9 1 5 -8 -5 -14 -30 -19 -60
-11 -191 -81 -244 -131 -27 -25 -47 -48 -44 -51 3 -3 32 16 65 43 34 26 63 45
66 43 7 -8 -22 -82 -49 -124 -35 -55 -117 -145 -127 -139 -5 3 -12 -11 -15
-32 -3 -21 -19 -78 -36 -128 -48 -143 -47 -191 2 -60 22 61 43 131 46 157 7
56 34 88 58 68 17 -14 21 -35 4 -24 -6 3 -3 -5 6 -20 10 -15 15 -29 12 -32 -3
-3 -13 6 -22 20 -10 14 -22 26 -27 26 -5 0 3 -16 18 -35 14 -19 21 -35 15 -35
-6 0 -13 -11 -17 -25 -6 -24 -7 -25 -21 -8 -13 17 -13 16 -4 -3 11 -22 4 -94
-9 -94 -11 0 -3 -49 11 -66 10 -13 6 -14 -32 -9 -37 5 -41 4 -25 -6 11 -6 50
-14 88 -17 l69 -5 -22 37 c-11 20 -32 39 -45 42 -20 5 -23 11 -18 33 12 57 68
154 121 211 66 71 208 191 217 183 3 -4 6 1 6 9 0 8 9 27 20 41 29 37 36 83
16 106 -16 17 -15 19 30 24 54 6 75 23 83 70 l6 35 65 -18 c36 -9 150 -50 253
-89 142 -54 206 -74 257 -78 l67 -6 7 -71 c3 -39 6 -176 7 -305 1 -192 5 -247
20 -305 26 -98 37 -212 19 -201 -8 5 -11 3 -8 -6 7 -23 64 -56 118 -69 42 -10
54 -9 81 4 17 9 35 13 40 10 5 -3 9 0 9 6 0 19 -21 53 -56 92 -19 21 -40 53
-48 73 -8 19 -17 35 -20 35 -9 0 13 -61 32 -87 19 -27 19 -27 0 -54 -11 -15
-18 -33 -16 -41 3 -7 13 3 25 26 l20 38 21 -27 c28 -35 27 -41 0 -49 -41 -11
-79 -6 -127 15 l-48 20 -1 77 c0 50 -7 97 -19 135 -18 51 -20 88 -22 325 -2
303 -3 311 -38 407 -38 105 -44 117 -37 70 3 -22 12 -53 20 -69 8 -16 12 -31
11 -33 -10 -9 -162 32 -285 78 -291 108 -325 119 -387 119 -33 0 -67 -5 -75
-10z m-9 -191 c-6 -19 -19 -44 -29 -57 l-18 -23 -52 52 c-29 28 -52 48 -52 43
0 -4 21 -30 48 -57 l47 -48 -28 -25 c-15 -13 -32 -24 -38 -24 -12 0 -12 17 1
22 6 2 -6 19 -27 38 -32 29 -34 30 -10 4 41 -46 32 -53 -13 -9 -53 52 -51 37
2 -21 41 -44 42 -47 23 -60 -16 -12 -21 -12 -39 4 -50 43 -56 45 -51 22 5 -25
25 -53 33 -45 3 2 -1 13 -8 22 -8 10 -3 8 10 -5 l25 -22 -32 -32 -32 -32 -28
24 -28 25 24 -28 c23 -25 24 -29 9 -44 -15 -15 -19 -14 -43 13 -28 30 -24 13
4 -19 14 -17 14 -20 -1 -31 -10 -7 -15 -16 -11 -19 3 -4 4 -7 1 -7 -3 0 -12 8
-19 17 -10 11 -10 14 -1 9 19 -12 14 9 -8 29 -19 17 -19 18 24 68 25 27 53 66
63 86 10 20 19 38 20 40 1 2 16 -13 34 -33 17 -20 34 -34 37 -31 3 3 -10 22
-30 43 -30 31 -35 42 -31 72 4 29 12 40 46 59 l41 24 38 -43 c21 -23 38 -39
38 -34 0 4 -14 23 -32 41 -17 18 -29 35 -26 39 4 3 23 -13 43 -35 21 -23 42
-41 48 -41 6 0 -6 17 -26 38 -20 21 -37 41 -37 44 0 15 66 13 84 -3 16 -15 17
-21 7 -50z m-338 -567 c20 -18 22 -32 5 -32 -20 1 -60 38 -53 50 7 11 19 6 48
-18z"/>
<path d="M1016 1419 c10 -12 18 -23 17 -25 -2 -2 -1 -4 2 -4 3 0 10 0 17 0 6
0 1 11 -12 25 -28 30 -51 34 -24 4z"/>
<path d="M2112 1305 c-39 -42 -52 -44 -53 -7 l-1 27 -8 -30 c-55 -219 -62
-271 -61 -421 1 -126 -2 -162 -19 -214 -22 -69 -25 -100 -10 -100 6 0 10 11
10 24 0 13 8 43 17 67 13 35 16 76 15 204 0 88 1 156 3 150 19 -53 76 -282 80
-325 10 -95 27 -180 36 -180 4 0 6 15 4 33 -13 106 -28 199 -41 251 -8 32 -13
60 -11 62 6 7 117 -113 117 -127 0 -7 -23 9 -52 36 -35 34 -45 41 -30 20 11
-16 36 -46 56 -64 34 -33 47 -61 27 -61 -5 0 -26 19 -46 43 -20 23 -33 35 -28
26 9 -18 101 -119 108 -119 3 0 1 10 -4 23 -16 38 -36 314 -35 472 0 114 -2
139 -8 105 -9 -45 -4 -326 8 -410 l6 -45 -61 60 c-33 33 -61 55 -62 50 -1 -17
-59 169 -59 190 0 46 15 45 68 -5 29 -27 52 -46 52 -41 0 5 -24 31 -54 58
l-54 48 12 38 11 38 43 -36 c23 -20 42 -32 42 -27 0 5 -18 23 -40 41 -22 17
-40 37 -40 44 0 6 18 -6 40 -28 22 -21 42 -36 45 -33 3 3 -15 24 -40 47 -25
23 -45 43 -45 46 0 2 14 13 31 25 l30 22 27 -23 27 -24 -24 28 c-29 32 -17 36
16 5 13 -12 23 -17 23 -11 0 5 -9 18 -20 28 -13 11 -18 25 -14 37 7 25 4 23
-34 -17z"/>
<path d="M2100 1264 c0 -13 58 -69 65 -63 2 3 -11 21 -30 39 -19 19 -35 29
-35 24z"/>
<path d="M649 1134 c-82 -66 -144 -135 -214 -239 -55 -82 -130 -235 -116 -235
5 0 24 36 44 79 19 44 56 110 81 148 46 71 170 204 241 259 22 18 38 34 35 37
-3 2 -35 -19 -71 -49z"/>
<path d="M2085 1112 c42 -45 45 -47 45 -33 0 5 -19 24 -42 42 l-43 33 40 -42z"/>
<path d="M2085 1073 c28 -28 52 -49 54 -47 6 6 -39 52 -74 77 -19 13 -12 2 20
-30z"/>
<path d="M2028 1055 c14 -26 122 -131 122 -119 0 5 -30 39 -66 74 -37 36 -62
56 -56 45z"/>
<path d="M336 973 c-13 -21 -38 -79 -55 -129 -17 -51 -49 -126 -72 -169 -38
-71 -41 -78 -28 -102 31 -57 111 -80 158 -44 21 16 23 23 16 69 -4 30 -11 49
-17 46 -5 -3 -7 -23 -3 -45 8 -48 -6 -69 -47 -69 -32 0 -64 14 -89 39 -15 15
-13 23 27 96 23 44 55 118 69 165 15 47 38 104 52 128 31 55 23 67 -11 15z"/>
<path d="M2061 974 c46 -48 110 -99 104 -82 -3 7 -30 33 -60 57 -30 24 -55 48
-55 52 0 5 -5 9 -12 9 -7 0 4 -16 23 -36z"/>
<path d="M2060 906 c0 -10 72 -86 91 -97 14 -7 17 -6 13 3 -8 16 -104 103
-104 94z"/>
<path d="M2120 674 c0 -5 25 -37 55 -71 30 -33 55 -66 55 -72 0 -6 5 -11 10
-11 21 0 8 23 -52 88 -34 37 -63 69 -65 71 -2 2 -3 0 -3 -5z"/>
<path d="M2142 572 c25 -36 79 -94 83 -90 6 6 -77 107 -88 107 -5 1 -2 -7 5
-17z"/>
<path d="M2274 540 c46 -50 74 -95 64 -106 -13 -12 -116 -16 -137 -4 -29 15
-42 3 -17 -16 26 -19 109 -18 146 1 17 9 30 18 30 21 0 22 -35 78 -71 113 -60
57 -72 51 -15 -9z"/>
</g>
</svg>
